<?xml version="1.0" encoding="utf-8"?>
<!-- Generator: Adobe Illustrator 26.0.0, SVG Export Plug-In . SVG Version: 6.00 Build 0)  -->
<svg version="1.1" id="Capa_1" xmlns="http://www.w3.org/2000/svg" xmlns:xlink="http://www.w3.org/1999/xlink" x="0px" y="0px"
	 viewBox="0 0 25 25" style="enable-background:new 0 0 25 25;" xml:space="preserve">
<style type="text/css">
	.st0{fill:#396BA4;}
</style>
<g>
	<g>
		<path class="st0" d="M24.63,19.13c-0.14,0.34-0.23,0.71-0.43,1.01c-0.42,0.63-1.06,0.89-1.81,0.89c-2.05,0-4.1,0-6.16,0
			c-4.53,0-9.06,0-13.59,0c-0.92,0-1.64-0.37-2.04-1.22c-0.14-0.3-0.21-0.65-0.22-0.98c-0.01-4.21-0.01-8.43-0.01-12.64
			c0-1.28,0.92-2.2,2.19-2.2c6.62-0.01,13.24,0,19.86,0c1.12,0,1.96,0.71,2.16,1.81c0.01,0.03,0.02,0.06,0.03,0.09
			C24.63,10.29,24.63,14.71,24.63,19.13z M2.83,5.41c0.04,0.05,0.06,0.08,0.08,0.1c2.68,2.67,5.36,5.34,8.05,7.99
			c0.22,0.22,0.51,0.41,0.81,0.52c0.89,0.33,1.67,0.09,2.33-0.57c2.64-2.62,5.27-5.24,7.91-7.87c0.05-0.05,0.09-0.1,0.16-0.17
			C15.71,5.41,9.29,5.41,2.83,5.41z M2.96,19.58c6.34,0,12.76,0,19.07,0c-1.95-1.99-3.95-4.03-5.98-6.1c-0.35,0.36-0.66,0.7-1,1.02
			c-0.97,0.94-2.11,1.27-3.43,0.97c-0.67-0.16-1.23-0.52-1.71-1c-0.31-0.32-0.63-0.64-0.97-0.99C6.92,15.55,4.92,17.59,2.96,19.58z
			 M1.81,6.4c0,4.09,0,8.12,0,12.21c2.04-2.08,4.05-4.12,6-6.11C5.85,10.5,3.85,8.47,1.81,6.4z M23.2,6.4
			c-2.04,2.08-4.05,4.11-5.98,6.07c1.96,1.99,3.96,4.03,5.98,6.09C23.2,14.51,23.2,10.49,23.2,6.4z"/>
	</g>
</g>
</svg>
