<?xml version="1.0" encoding="utf-8"?>
<!-- Generator: Adobe Illustrator 26.0.0, SVG Export Plug-In . SVG Version: 6.00 Build 0)  -->
<svg version="1.1" id="Capa_1" xmlns="http://www.w3.org/2000/svg" xmlns:xlink="http://www.w3.org/1999/xlink" x="0px" y="0px"
	 viewBox="0 0 25 25" style="enable-background:new 0 0 25 25;" xml:space="preserve">
<style type="text/css">
	.st0{fill:#396BA4;}
</style>
<g>
	<g>
		<path class="st0" d="M11.42,0.04c0.8,0,1.61,0,2.41,0c-0.17,0.02-0.33,0.03-0.5,0.05c3.1,0.22,5.76,1.42,7.96,3.61
			c2.2,2.19,3.41,4.86,3.63,7.96c0.01-0.08,0.03-0.16,0.04-0.24c0,0.71,0,1.42,0,2.13c-0.01-0.05-0.02-0.1-0.04-0.15
			c-0.26,3.17-1.51,5.87-3.8,8.08c-2.3,2.21-5.06,3.37-8.24,3.47c-6.23,0.19-11.43-4.2-12.57-9.96c-0.73-3.68,0.04-7.05,2.31-10.03
			c2.27-2.98,5.33-4.57,9.04-4.88C11.59,0.07,11.5,0.06,11.42,0.04z M12.4,23.4c6.07,0.12,11.07-4.94,11.02-11
			C23.36,6.53,18.52,1.54,12.4,1.6C6.45,1.65,1.46,6.56,1.6,12.77C1.73,18.7,6.64,23.41,12.4,23.4z"/>
		<path class="st0" d="M5.5,8.28C5.51,8,5.51,7.72,5.55,7.45c0.03-0.22,0.14-0.41,0.3-0.57c0.3-0.3,0.59-0.62,0.9-0.9
			c0.66-0.61,1.6-0.62,2.29-0.06C9.4,6.22,9.63,6.6,9.75,7.05c0.14,0.55,0.31,1.1,0.43,1.66c0.14,0.59-0.02,1.12-0.44,1.57
			c-0.17,0.19-0.36,0.36-0.54,0.54c-0.08,0.08-0.1,0.15-0.06,0.26c0.48,1.55,1.37,2.81,2.69,3.77c0.61,0.44,1.28,0.76,1.99,1
			c0.19,0.06,0.33,0.05,0.45-0.12c0.11-0.15,0.26-0.27,0.4-0.4c0.46-0.46,1.02-0.62,1.64-0.48c0.67,0.15,1.33,0.34,1.98,0.55
			c0.62,0.19,1.19,0.96,1.21,1.61c0.01,0.46-0.1,0.89-0.44,1.23c-0.33,0.33-0.65,0.66-0.98,0.97c-0.25,0.24-0.57,0.33-0.92,0.32
			c-2.26-0.05-4.35-0.65-6.26-1.88c-2.24-1.45-3.81-3.44-4.72-5.94C5.79,10.59,5.56,9.45,5.5,8.28z"/>
	</g>
</g>
</svg>
