<?xml version="1.0" encoding="utf-8"?>
<!-- Generator: Adobe Illustrator 26.0.0, SVG Export Plug-In . SVG Version: 6.00 Build 0)  -->
<svg version="1.1" id="Capa_1" xmlns="http://www.w3.org/2000/svg" xmlns:xlink="http://www.w3.org/1999/xlink" x="0px" y="0px"
	 viewBox="0 0 34.41 34.4" style="enable-background:new 0 0 34.41 34.4;" xml:space="preserve">
<style type="text/css">
	.yyyttt{fill-rule:evenodd;clip-rule:evenodd;fill:#396BA4;}
</style>
<g>
	<g>
		<path class="yyyttt" d="M7.13,21.53c-0.01,0-0.02,0-0.04,0L7.13,21.53L7.13,21.53z M7.13,25.34c-0.01,0-0.02,0-0.04,0H7.13
			L7.13,25.34z M29.54,21.51c0.68-0.09,1.3-0.56,1.9-1.02c0.14-0.64,0.25-1.3,0.31-1.98c-0.41,0.19-0.8,0.5-1.18,0.79
			c-0.34,0.26-0.8,0.61-1.1,0.72l0,0l-0.02,0.01l0,0c-0.02,0.01-0.04,0.01-0.05,0.01l0,0c-0.02,0-0.03,0.01-0.05,0.01l0,0
			c0,0-0.01,0-0.01,0l0,0c-0.01,0-0.03,0-0.04,0c0,0-0.01,0-0.01,0l0,0c-0.01,0-0.02,0-0.03,0l0,0c-0.01,0-0.01,0-0.01,0l0,0
			c-0.01,0-0.01,0-0.02,0l0,0c-0.01,0-0.01,0-0.02,0l0,0c0,0-0.01,0-0.02,0l0,0c-0.02,0-0.05-0.01-0.07-0.02l0,0l-0.02-0.01l0,0
			l-0.02-0.01L29.06,20l0,0l-0.02-0.01l0,0c-0.02-0.01-0.04-0.02-0.06-0.02l0,0c-0.01-0.01-0.03-0.01-0.04-0.02l-0.02-0.01l0,0
			c-0.01-0.01-0.03-0.01-0.04-0.02l0,0l-0.02-0.01l-0.02-0.01l0,0l-0.02-0.01l-0.02-0.01l0,0l-0.02-0.01l0,0l-0.03-0.01
			c-0.01-0.01-0.03-0.02-0.05-0.03l0,0l-0.02-0.01l-0.02-0.01l0,0l-0.03-0.01c-0.02-0.01-0.03-0.02-0.05-0.03l0,0l-0.03-0.01l0,0
			l-0.02-0.01l0,0l-0.02-0.01l-0.03-0.02l0,0l-0.02-0.01l0,0l-0.02-0.01l-0.03-0.01l-0.05-0.03l-0.03-0.02l-0.02-0.01l-0.02-0.01
			l-0.03-0.01l0,0l-0.02-0.02l-0.03-0.01l-0.02-0.02l0,0l-0.03-0.01l-0.02-0.02l-0.02-0.01l-0.02-0.01l-0.02-0.01l-0.02-0.02
			L28,19.39l-0.02-0.01l0,0l-0.02-0.02l0,0l-0.02-0.02l0,0l-0.02-0.01l0,0l-0.02-0.01l0,0l-0.04-0.02l0,0l-0.04-0.02l0,0l-0.04-0.02
			l0,0l-0.04-0.03l0,0l-0.04-0.02l0,0l-0.04-0.02l0,0l-0.04-0.03l0,0l-0.04-0.02l0,0l-0.04-0.03l-0.04-0.02l0,0l-0.04-0.02
			l-0.04-0.02L27.41,19l0,0l-0.04-0.03l0,0l-0.04-0.02l-0.03-0.02l0,0l-0.04-0.02l0,0l-0.04-0.02l-0.04-0.02l0,0l-0.04-0.02l0,0
			l-0.04-0.02l0,0l-0.04-0.02l0,0l-0.04-0.02L27,18.76l0,0l-0.04-0.02l0,0l-0.04-0.02l-0.04-0.02l0,0
			c-0.01-0.01-0.03-0.01-0.04-0.02c-0.01,0-0.03-0.01-0.04-0.02l0,0c-0.01-0.01-0.03-0.01-0.04-0.02l0,0
			c-0.01-0.01-0.03-0.01-0.04-0.02c-0.03-0.01-0.05-0.03-0.07-0.04l0,0c-0.01-0.01-0.03-0.01-0.04-0.02
			c-0.01-0.01-0.02-0.01-0.04-0.02l0,0c-0.01-0.01-0.02-0.01-0.04-0.02l0,0c-0.01-0.01-0.03-0.01-0.04-0.01
			c-0.01-0.01-0.02-0.01-0.04-0.02l0,0c-0.03-0.01-0.05-0.02-0.07-0.03l0,0c-0.03-0.01-0.05-0.02-0.08-0.03l0,0
			c-0.01,0-0.03-0.01-0.04-0.01l0,0c-0.01,0-0.02-0.01-0.04-0.01c-0.03-0.01-0.05-0.02-0.08-0.03l0,0
			c-0.01-0.01-0.03-0.01-0.04-0.01l0,0c-0.01,0-0.03-0.01-0.04-0.01l0,0c-0.01,0-0.02,0-0.04-0.01l0,0
			c-0.03-0.01-0.05-0.01-0.08-0.02l0,0c-0.01-0.01-0.03-0.01-0.04-0.01l0,0c-0.03-0.01-0.05-0.01-0.08-0.02l0,0
			c-0.02,0-0.05-0.01-0.07-0.01l0,0c-0.01,0-0.03,0-0.04,0l0,0c-0.09-0.01-0.18-0.02-0.27-0.02l0,0c-0.01,0-0.03,0-0.04,0l0,0
			c-0.02,0-0.03,0-0.04,0l0,0c-0.01,0-0.02,0-0.04,0l0,0c-0.01,0-0.03,0-0.04,0l0,0c-0.01,0-0.03,0-0.04,0l0,0
			c-0.01,0-0.02,0-0.04,0.01l0,0c-0.01,0-0.03,0-0.04,0l0,0c-0.01,0-0.03,0-0.04,0l0,0c-0.01,0-0.03,0.01-0.04,0.01l0,0
			c-0.01,0-0.03,0.01-0.04,0.01l0,0c-0.02,0-0.03,0.01-0.04,0.01l0,0c-0.01,0-0.02,0.01-0.04,0.01l0,0c-0.02,0-0.03,0.01-0.04,0.01
			l0,0c-0.01,0-0.02,0.01-0.04,0.01l0,0c-0.01,0-0.03,0.01-0.04,0.01l0,0c-0.01,0-0.02,0-0.04,0.01l0,0c-0.01,0-0.03,0.01-0.04,0.01
			l0,0c-0.01,0-0.03,0.01-0.04,0.01c-0.01,0.01-0.03,0.01-0.04,0.01l0,0c-0.01,0-0.02,0.01-0.04,0.01l0,0
			c-0.01,0.01-0.02,0.01-0.04,0.01c-0.01,0.01-0.03,0.01-0.04,0.02l0,0c-0.01,0-0.03,0.01-0.04,0.01l0,0
			c-0.01,0-0.03,0.01-0.04,0.01l0,0c-0.01,0.01-0.03,0.01-0.04,0.02l0,0c-0.01,0-0.02,0.01-0.04,0.02l0,0
			c-0.01,0.01-0.02,0.01-0.04,0.02l0,0c-0.01,0-0.03,0.01-0.04,0.02l0,0c-0.01,0.01-0.03,0.01-0.04,0.02l0,0
			c-0.01,0.01-0.02,0.01-0.04,0.02l0,0c-0.01,0.01-0.03,0.01-0.04,0.02c-0.01,0.01-0.03,0.01-0.04,0.02l0,0
			c-0.01,0.01-0.02,0.01-0.04,0.02l0,0l-0.04,0.02c-0.01,0.01-0.03,0.01-0.04,0.02c-0.01,0.01-0.03,0.01-0.04,0.02l0,0l-0.04,0.02
			l0,0l-0.04,0.02l0,0l-0.04,0.02l0,0l-0.04,0.02l-0.04,0.02l-0.04,0.02l-0.04,0.02l-0.04,0.02l0,0l-0.04,0.02l0,0l-0.04,0.03
			l-0.04,0.02l-0.04,0.02l-0.04,0.02l-0.04,0.02l-0.04,0.03l-0.04,0.03l-0.04,0.03l-0.04,0.02l-0.04,0.03l-0.04,0.03l-0.04,0.02
			l-0.04,0.03l-0.04,0.02l-0.04,0.03l-0.04,0.03l-0.04,0.02l-0.04,0.02l-0.04,0.03l-0.02,0.01l-0.02,0.01L23,19.4l-0.02,0.01
			l-0.02,0.01l-0.02,0.01l-0.02,0.01l-0.02,0.01l0,0l-0.02,0.01l-0.02,0.01l0,0l-0.02,0.01l0,0l-0.02,0.01l0,0l-0.02,0.01
			l-0.02,0.01l-0.02,0.01l0,0l-0.02,0.01l-0.02,0.01l0,0l-0.02,0.02l-0.02,0.01l0,0l-0.02,0.01l0,0l-0.02,0.01l0,0l-0.02,0.01l0,0
			l-0.02,0.01l-0.02,0.02l0,0l-0.02,0.01l0,0l-0.02,0.01l0,0l-0.02,0.01l-0.02,0.01l0,0l-0.02,0.01l0,0l-0.02,0.01l-0.02,0.01
			l-0.02,0.01l0,0L22.4,19.8l-0.02,0.01l0,0l-0.02,0.01l-0.02,0.01l-0.02,0.01l-0.02,0.01l-0.02,0.01l0,0l-0.02,0.01l0,0l-0.02,0.01
			l-0.02,0.01l-0.02,0.01l0,0l-0.02,0.01l0,0l-0.02,0.01l-0.02,0.01l-0.02,0.01l-0.02,0.01l-0.02,0.01l0,0l-0.02,0.01l-0.02,0.01
			l0,0L22.05,20L22.03,20l-0.01,0.01L22,20.02l-0.01,0.01l-0.02,0.01l-0.01,0l-0.01,0c0,0-0.01,0-0.01,0.01c0,0-0.01,0-0.01,0
			c-0.01,0-0.01,0-0.01,0l-0.01,0.01c0,0-0.01,0-0.01,0c0,0-0.01,0-0.01,0c0,0-0.01,0-0.01,0s-0.01,0-0.01,0
			c0,0-0.01-0.01-0.01-0.01c-0.01,0-0.01,0-0.01,0c-0.01,0-0.01,0-0.01,0c0,0-0.01,0-0.01,0c0,0-0.01,0-0.01,0l0,0l-0.01-0.01
			l-0.01-0.01l0,0l-0.01-0.01l-0.01-0.01l-0.01-0.01l0,0L21.69,20L21.67,20l-0.01-0.01l0,0l-0.02,0l-0.01-0.01l-0.02-0.01l0,0
			l-0.02-0.01l0,0l-0.02-0.01l-0.02-0.01l-0.01-0.01l-0.02-0.01l0,0l-0.02-0.01l0,0l-0.02-0.01l0,0l-0.02-0.01l-0.02-0.01l0,0
			l-0.02-0.01l-0.02-0.01l0,0l-0.02-0.01l-0.02-0.01l-0.02-0.01l-0.02-0.01l-0.02-0.01l-0.02-0.01l-0.02-0.01l0,0l-0.02-0.01
			l-0.02-0.01l-0.02-0.01l-0.02-0.01c-0.02-0.01-0.04-0.03-0.06-0.04l-0.02-0.01l0,0l-0.02-0.01l0,0l-0.02-0.01l-0.02-0.02
			l-0.02-0.01l-0.02-0.01l-0.02-0.01l0,0l-0.02-0.01l-0.02-0.01l0,0l-0.02-0.01L20.9,19.5l0,0l-0.02-0.01l0,0l-0.02-0.01l0,0
			l-0.02-0.01l0,0l-0.02-0.01l0,0l-0.02-0.01l0,0l-0.02-0.01l0,0l-0.02-0.01l0,0l-0.02-0.01l0,0l-0.02-0.01l0,0l-0.03-0.02l0,0
			l-0.03-0.03l0,0l-0.07-0.05l0,0l-0.04-0.03l0,0l-0.04-0.03l0,0l-0.04-0.02l0,0l-0.03-0.03l0,0l-0.04-0.02l-0.04-0.03l-0.04-0.02
			l0,0c-0.03-0.01-0.05-0.03-0.07-0.05l-0.04-0.03l0,0L20.2,19l0,0l-0.04-0.03l0,0l-0.04-0.02l-0.04-0.02l0,0l-0.04-0.02l0,0
			l-0.04-0.02l-0.04-0.02l-0.04-0.02c-0.01-0.01-0.02-0.01-0.04-0.02l-0.04-0.02l-0.04-0.02l-0.04-0.02l-0.04-0.02
			c-0.01-0.01-0.03-0.01-0.04-0.02l0,0c-0.01-0.01-0.03-0.01-0.04-0.02l0,0c-0.01-0.01-0.02-0.01-0.04-0.02
			c-0.01-0.01-0.03-0.01-0.04-0.02l0,0c-0.01-0.01-0.02-0.02-0.04-0.02l0,0c-0.02-0.01-0.03-0.01-0.04-0.02
			c-0.01-0.01-0.03-0.01-0.04-0.02l0,0c-0.01-0.01-0.03-0.01-0.04-0.02c-0.01-0.01-0.03-0.01-0.04-0.02
			c-0.04-0.02-0.08-0.04-0.12-0.05l0,0c-0.01-0.01-0.03-0.01-0.04-0.02l0,0c-0.01,0-0.03-0.01-0.04-0.01
			c-0.04-0.01-0.08-0.03-0.12-0.04l0,0c-0.03-0.01-0.05-0.02-0.08-0.03l0,0c-0.03-0.01-0.06-0.02-0.08-0.03l0,0
			c-0.07-0.02-0.14-0.04-0.21-0.05l0,0c-0.15-0.03-0.31-0.05-0.46-0.05l0,0h-0.01l0,0h0l0,0c-0.1,0-0.2,0.01-0.3,0.02l0,0
			c-0.06,0.01-0.11,0.02-0.17,0.03l0,0c-0.02,0-0.03,0.01-0.04,0.01l0,0c-0.03,0.01-0.06,0.01-0.08,0.02l0,0
			c-0.01,0-0.03,0.01-0.04,0.01l0,0c-0.01,0-0.03,0.01-0.04,0.01l0,0c-0.01,0-0.03,0.01-0.04,0.01l0,0
			c-0.01,0.01-0.03,0.01-0.04,0.01l0,0c-0.01,0-0.03,0.01-0.04,0.01l0,0c-0.01,0.01-0.03,0.01-0.04,0.02l0,0
			c-0.01,0-0.03,0.01-0.04,0.01l0,0c-0.01,0.01-0.03,0.01-0.04,0.02l0,0c-0.01,0.01-0.03,0.01-0.04,0.01l0,0
			c-0.01,0.01-0.03,0.01-0.04,0.01c-0.01,0.01-0.03,0.01-0.04,0.02l0,0c-0.01,0.01-0.03,0.01-0.04,0.02l0,0
			c-0.01,0.01-0.03,0.01-0.04,0.02l0,0c-0.01,0.01-0.03,0.01-0.04,0.02c-0.01,0.01-0.03,0.01-0.04,0.02l0,0
			c-0.01,0.01-0.03,0.01-0.04,0.02l0,0c-0.02,0.01-0.03,0.01-0.04,0.02c-0.01,0.01-0.03,0.01-0.04,0.02l0,0
			c-0.01,0-0.03,0.01-0.04,0.02l0,0c-0.01,0.01-0.02,0.01-0.04,0.02l0,0c-0.01,0.01-0.02,0.01-0.04,0.02l0,0
			c-0.01,0.01-0.03,0.01-0.04,0.02l0,0l-0.04,0.02l-0.04,0.02l0,0l-0.04,0.02l-0.04,0.02l0,0l-0.04,0.02l0,0l-0.04,0.02l0,0
			l-0.04,0.02l0,0l-0.04,0.02l0,0l-0.04,0.02l0,0c-0.02,0.02-0.05,0.03-0.07,0.05c-0.04,0.02-0.07,0.05-0.11,0.07l0,0l-0.04,0.03
			l0,0c-0.04,0.02-0.07,0.05-0.11,0.07l0,0l-0.04,0.03l0,0l-0.04,0.02l0,0c-0.09,0.07-0.19,0.14-0.28,0.2l-0.03,0.03l0,0l-0.02,0.01
			l0,0l-0.06,0.04l0,0l-0.04,0.03l0,0l-0.04,0.03l-0.04,0.03l0,0l-0.02,0.01l0,0l-0.02,0.01l0,0l-0.02,0.01l0,0l-0.02,0.01
			l-0.02,0.02l-0.02,0.01l0,0l-0.02,0.01l0,0l-0.02,0.01l-0.02,0.01l0,0l-0.02,0.01l0,0l-0.02,0.01l-0.02,0.01l-0.02,0.01
			l-0.02,0.01l-0.02,0.01l0,0l-0.02,0.01l-0.02,0.01l-0.02,0.01l-0.02,0.01l-0.02,0.01l0,0l-0.02,0.01l-0.02,0.01l-0.02,0.01
			l-0.02,0.01l-0.02,0.01l-0.02,0.01L15,19.9l0,0l-0.02,0.01l-0.02,0.01l0,0l-0.02,0.01l0,0l-0.02,0.01l-0.02,0.01l-0.02,0.01
			l-0.02,0.01l0,0l-0.02,0.01h0l-0.02,0L14.83,20l0,0L14.81,20l-0.01,0.01l-0.02,0.01l0,0l-0.02,0.01l0,0l-0.01,0.01l-0.01,0.01l0,0
			c-0.01,0-0.01,0-0.02,0.01c-0.01,0-0.01,0-0.01,0c0,0-0.01,0-0.01,0c-0.01,0-0.01,0-0.01,0c-0.01,0-0.01,0-0.01,0l0,0
			c0,0-0.01,0-0.01,0.01l0,0c0,0-0.01,0-0.01,0c0,0-0.01,0-0.01,0c0,0-0.01,0-0.01,0c0,0-0.01,0-0.01,0c0,0-0.01,0-0.01-0.01
			l-0.01,0l-0.01,0l0,0l-0.01-0.01l-0.01,0l-0.01,0l-0.01-0.01l-0.01-0.01l-0.02-0.01l0,0L14.47,20l0,0L14.45,20l-0.02-0.01l0,0
			l-0.01-0.01l-0.02-0.01l0,0l-0.02-0.01l0,0l-0.02-0.01l-0.02-0.01l-0.02-0.01l-0.02-0.01l0,0l-0.02-0.01l0,0l-0.02-0.01
			l-0.02-0.01l-0.02-0.01l0,0l-0.02-0.01l0,0l-0.02-0.01l-0.02-0.01l-0.02-0.01l-0.02-0.01l-0.02-0.01l0,0l-0.02-0.01l-0.02-0.01
			l0,0l-0.02-0.01l-0.02-0.01l-0.02-0.01l-0.02-0.01l-0.02-0.01l-0.02-0.01l0,0l-0.04-0.03l0,0l-0.02-0.02l-0.02-0.01l0,0
			l-0.02-0.01l0,0l-0.02-0.01l-0.02-0.01l0,0l-0.02-0.01l0,0l-0.02-0.02l-0.02-0.01l-0.04-0.03l0,0l-0.02-0.01l-0.02-0.01l0,0
			l-0.02-0.01l0,0l-0.02-0.01l0,0l-0.02-0.01l0,0l-0.02-0.01l0,0l-0.02-0.01l-0.02-0.01l0,0l-0.02-0.01l-0.02-0.01L13.5,19.4
			l-0.02-0.01l-0.02-0.01l-0.02-0.01l-0.04-0.03l-0.04-0.02l-0.04-0.02l-0.04-0.03l-0.04-0.03l-0.04-0.02l-0.04-0.03l-0.04-0.02
			l-0.04-0.03l-0.04-0.03l-0.04-0.02L13,19.06l-0.04-0.03l-0.04-0.03l-0.04-0.02l-0.04-0.02l-0.04-0.02l-0.04-0.02l-0.04-0.03l0,0
			l-0.04-0.02l0,0l-0.04-0.02l-0.04-0.02l-0.04-0.02l-0.04-0.02l-0.04-0.02l0,0l-0.04-0.02l0,0l-0.04-0.02l0,0l-0.04-0.02l0,0
			c-0.01-0.01-0.03-0.01-0.04-0.02c-0.01-0.01-0.03-0.01-0.04-0.02l-0.04-0.02l0,0c-0.01-0.01-0.03-0.01-0.04-0.02l0,0
			c-0.01-0.01-0.03-0.01-0.04-0.02c-0.01-0.01-0.03-0.01-0.04-0.02l0,0c-0.01,0-0.02-0.01-0.04-0.02l0,0
			c-0.01-0.01-0.02-0.01-0.04-0.02l0,0c-0.01-0.01-0.03-0.01-0.04-0.02l0,0c-0.01-0.01-0.03-0.01-0.04-0.02l0,0
			c-0.01-0.01-0.02-0.01-0.04-0.02c-0.01-0.01-0.03-0.01-0.04-0.02c-0.03-0.01-0.05-0.02-0.08-0.03l0,0
			c-0.01-0.01-0.03-0.01-0.04-0.02c-0.01,0-0.02-0.01-0.04-0.01l0,0c-0.03-0.01-0.05-0.02-0.08-0.03l0,0
			c-0.03-0.01-0.05-0.02-0.08-0.02l0,0c-0.03-0.01-0.05-0.01-0.08-0.02l0,0c-0.01,0-0.03-0.01-0.04-0.01l0,0
			c-0.03-0.01-0.05-0.01-0.08-0.02l0,0c-0.05-0.01-0.1-0.02-0.15-0.03l0,0c-0.04,0-0.08-0.01-0.12-0.01l0,0c-0.05,0-0.1,0-0.16,0
			l0,0c-0.01,0-0.03,0-0.04,0l0,0c-0.01,0-0.03,0-0.04,0l0,0c-0.01,0-0.03,0-0.04,0l0,0c-0.01,0-0.03,0-0.04,0l0,0
			c-0.01,0-0.02,0-0.04,0l0,0c-0.01,0-0.02,0-0.04,0.01l0,0c-0.01,0-0.03,0.01-0.04,0.01l0,0c-0.01,0-0.03,0-0.04,0
			c-0.01,0-0.03,0-0.04,0.01l0,0c-0.01,0-0.02,0-0.04,0.01l0,0c-0.01,0-0.03,0.01-0.04,0.01l0,0c-0.01,0-0.03,0.01-0.04,0.01l0,0
			c-0.01,0-0.02,0-0.04,0.01l0,0c-0.01,0-0.02,0.01-0.04,0.01l0,0c-0.01,0-0.03,0.01-0.04,0.01c-0.01,0-0.03,0.01-0.04,0.01
			c-0.01,0.01-0.03,0.01-0.04,0.01l0,0c-0.01,0-0.03,0.01-0.04,0.01l0,0c-0.01,0-0.03,0.01-0.04,0.01l0,0
			c-0.01,0-0.03,0.01-0.04,0.01l0,0c-0.01,0-0.02,0.01-0.04,0.01l0,0c-0.01,0.01-0.03,0.01-0.04,0.01l0,0
			c-0.01,0.01-0.02,0.01-0.04,0.01l0,0c-0.01,0-0.03,0.01-0.04,0.01l0,0c-0.01,0-0.03,0.01-0.04,0.01l0,0
			c-0.01,0.01-0.02,0.01-0.04,0.01l0,0C10.01,18.5,10,18.5,9.99,18.51c-0.01,0-0.03,0.01-0.04,0.01c-0.01,0.01-0.02,0.01-0.04,0.02
			c-0.01,0-0.03,0.01-0.04,0.02l0,0c-0.01,0-0.03,0.01-0.04,0.02L9.8,18.6l0,0c-0.01,0.01-0.02,0.01-0.04,0.02l-0.04,0.02l0,0
			l-0.04,0.02l0,0l-0.04,0.02l-0.04,0.02l-0.04,0.02l-0.04,0.02L9.5,18.76l-0.04,0.02L9.42,18.8l-0.04,0.02l0,0l-0.04,0.02
			l-0.04,0.02l0,0l-0.04,0.02l-0.04,0.02l0,0L9.2,18.93l0,0l-0.04,0.02l-0.04,0.02l0,0L9.09,19l0,0l-0.04,0.02l-0.04,0.02l0,0
			l-0.04,0.02l0,0L8.94,19.1L8.9,19.12l0,0l-0.04,0.02l0,0l-0.04,0.03l0,0l-0.04,0.02l0,0l-0.04,0.02l0,0l-0.04,0.03l0,0l-0.04,0.02
			l0,0l-0.04,0.02l0,0l-0.04,0.02l0,0l-0.02,0.01l0,0l-0.02,0.01l0,0L8.5,19.39l-0.02,0.02l-0.02,0.02l-0.03,0.01L8.4,19.45l0,0
			l-0.03,0.01l-0.02,0.02L8.33,19.5l0,0l-0.02,0.02l-0.03,0.01l0,0l-0.02,0.02l0,0l-0.02,0.01l-0.02,0.01l-0.03,0.01l-0.02,0.02
			l-0.05,0.03l-0.03,0.01l-0.02,0.01l0,0l-0.02,0.01l0,0L8.01,19.7l-0.02,0.01l-0.03,0.01l0,0l-0.03,0.01
			c-0.02,0.01-0.03,0.02-0.05,0.03l-0.03,0.01L7.84,19.8l-0.02,0.01l-0.02,0.01l0,0l-0.02,0.01l-0.02,0.01l-0.02,0.01L7.7,19.88l0,0
			l-0.03,0.01l0,0L7.65,19.9l0,0l-0.02,0.01l-0.02,0.01l0,0l-0.02,0.01l-0.02,0.01l0,0l-0.02,0.01l0,0l-0.02,0.01l0,0L7.5,19.98l0,0
			l-0.02,0.01l0,0l-0.02,0.01L7.44,20l-0.02,0.01l0,0L7.4,20.02l0,0l-0.02,0.01l0,0l-0.02,0.01l0,0c0,0-0.01,0-0.02,0.01l0,0
			c-0.01,0-0.01,0-0.02,0l0,0c0,0-0.01,0-0.02,0l0,0c-0.01,0-0.01,0-0.02,0l0,0c0,0-0.01,0-0.01,0l0,0c-0.01,0-0.01,0-0.02,0l0,0
			c0,0-0.01,0-0.01,0l0,0c-0.01,0-0.01,0-0.01,0l0,0c-0.01,0-0.01,0-0.02,0l0,0c0,0-0.01,0-0.01,0h0c0,0-0.01,0-0.01,0h0
			c0,0-0.01,0-0.01,0h0c0,0-0.01,0-0.01,0h0c0,0-0.01,0-0.01,0h0l-0.01,0l0,0h0c0,0-0.01,0-0.01,0l0,0h0c0,0-0.01,0-0.01,0h0l0,0h0
			c0,0-0.01,0-0.01,0l0,0h0c0,0-0.01,0-0.01,0h0l0,0l-0.01,0l0,0h0l-0.01-0.01h0l0,0h0l-0.01-0.01l0,0l0,0h0l-0.01,0l0,0h0L6.98,20
			l0,0h0l0,0l-0.01-0.01l-0.01,0c-0.3-0.13-0.71-0.45-1.03-0.69c-0.65-0.49-1.32-1.01-2.05-1.01c-0.32,0-0.75,0.12-1.21,0.31
			c0.05,0.51,0.12,1.01,0.22,1.51c0.45-0.21,0.81-0.34,0.99-0.34c0.23,0,0.79,0.43,1.16,0.71c0.61,0.47,1.24,0.95,1.93,1.04l0,0
			l0.01,0h0.01l0.01,0c0.01,0,0.01,0,0.02,0h0h0.01h0l0.02,0h0h0.01c0.01,0,0.02,0,0.03,0h0l0,0h0c0.01,0,0.02,0,0.04,0h0
			c0.03,0,0.05,0,0.07,0l0,0c0.01,0,0.02,0,0.03,0l0,0c0.01,0,0.02,0,0.04,0l0,0c0.01,0,0.02,0,0.03,0l0,0c0.01,0,0.02,0,0.04,0l0,0
			c0.01,0,0.02,0,0.03,0l0,0c0.01,0,0.02,0,0.04,0l0,0c0.01,0,0.02-0.01,0.04-0.01l0,0c0.01,0,0.02,0,0.03-0.01l0,0
			c0.01,0,0.02,0,0.03,0c0.01,0,0.02,0,0.04-0.01l0,0c0.01,0,0.02,0,0.04-0.01l0,0c0.01,0,0.02,0,0.03-0.01l0,0
			c0.01,0,0.02,0,0.03-0.01l0,0c0.01,0,0.02-0.01,0.03-0.01l0,0c0.01,0,0.02,0,0.03-0.01c0.01,0,0.03-0.01,0.04-0.01l0,0
			c0.01,0,0.02-0.01,0.04-0.01l0,0c0.01,0,0.02-0.01,0.03-0.01l0,0c0.01,0,0.02-0.01,0.04-0.01c0.01,0,0.02-0.01,0.03-0.01
			c0.01,0,0.02-0.01,0.03-0.01l0,0c0.02-0.01,0.05-0.02,0.07-0.03l0,0c0.01-0.01,0.02-0.01,0.03-0.01l0,0
			c0.01,0,0.02-0.01,0.03-0.01c0.01-0.01,0.03-0.01,0.04-0.01l0,0c0.01-0.01,0.02-0.01,0.03-0.02l0.03-0.01l0,0
			c0.01,0,0.02-0.01,0.03-0.01c0.01-0.01,0.02-0.01,0.03-0.02l0,0c0.01-0.01,0.02-0.01,0.04-0.02l0,0l0.03-0.02h0l0.03-0.02
			l0.04-0.02l0.03-0.02l0.03-0.02l0,0l0.04-0.02l0,0l0.04-0.02l0,0l0.03-0.02l0,0l0.03-0.02l0.04-0.02l0.04-0.02l0,0l0.03-0.02l0,0
			L8.72,21l0,0l0.03-0.02l0,0l0.03-0.02l0,0l0.04-0.02l0,0l0.04-0.02l0.03-0.02l0,0l0.04-0.02l0.04-0.02l0,0L9,20.83l0.03-0.02l0,0
			l0.04-0.02l0,0l0.03-0.02l0.04-0.02l0.03-0.02l0,0l0.04-0.02l0,0l0.04-0.02l0,0l0.04-0.02l0,0l0.04-0.02l0,0l0.03-0.02l0,0
			l0.04-0.03l0,0l0.04-0.02l0,0l0.02-0.01l0,0l0.02-0.01l0,0l0.02-0.01l0,0l0.02-0.01l0,0l0.02-0.01l0,0l0.02-0.02l0,0l0.02-0.01
			l0.02-0.01l0,0l0.02-0.02l0,0l0.02-0.01l0,0l0.02-0.01l0.02-0.01l0,0l0.02-0.02l0,0l0.02-0.01l0,0l0.02-0.01l0.03-0.02l0,0
			l0.02-0.01l0,0l0.02-0.01l0.03-0.02l0,0l0.02-0.01l0,0l0.02-0.01l0.03-0.01l0,0l0.02-0.02l0.03-0.01L10,20.17l0.02-0.01l0.02-0.01
			l0,0l0.02-0.01l0.02-0.01l0.02-0.01l0.02-0.01l0.02-0.01l0.02-0.01l0.02-0.01l0.02-0.01l0.02-0.01l0.02-0.01L10.3,20l0.02-0.01
			l0,0l0.02-0.01l0.02-0.01l0,0l0.02-0.01l0.02-0.01l0.02-0.01l0.02-0.01l0,0l0.02-0.01l0,0l0.02-0.01l0.02-0.01l0,0l0.02-0.01
			l0.02-0.01l0,0l0.02-0.01l0,0l0.02-0.01l0,0l0.02-0.01l0,0l0.02-0.01l0,0l0.02-0.01l0,0l0.02-0.01l0,0l0.02-0.01l0,0l0.02-0.01
			l0,0l0.02-0.01l0,0l0.02-0.01l0,0l0.02-0.01l0,0l0.02,0l0,0c0,0,0.01,0,0.02-0.01l0,0c0.01,0,0.01,0,0.02,0l0,0l0.04,0.02l0,0
			l0.04,0.03l0,0l0.04,0.03l0,0L11,19.87l0,0l0.04,0.03l0,0l0.04,0.03l0,0l0.05,0.03l0,0l0.04,0.03l0,0l0.05,0.03l0,0l0.05,0.03l0,0
			l0.05,0.03l0,0l0.05,0.03l0,0l0.05,0.03l0,0l0.05,0.04l0,0l0.05,0.03l0,0l0.05,0.04l0,0l0.06,0.04l0,0l0.06,0.03l0,0l0.06,0.04
			l0,0l0.06,0.04l0,0l0.06,0.03l0,0l0.06,0.04L12,20.49l0,0l0.06,0.04l0,0l0.06,0.03l0.06,0.04l0,0l0.06,0.04l0,0l0.06,0.04
			l0.06,0.03l0,0c0.02,0.01,0.04,0.02,0.06,0.04l0,0c0.02,0.01,0.04,0.02,0.06,0.03l0,0l0.06,0.03c0.02,0.01,0.04,0.03,0.06,0.04
			l0,0c0.02,0.01,0.04,0.02,0.06,0.03c0.04,0.02,0.09,0.04,0.13,0.06c0.02,0.01,0.04,0.02,0.06,0.03l0,0
			c0.02,0.01,0.04,0.02,0.06,0.03l0,0c0.02,0.01,0.04,0.02,0.06,0.03l0,0c0.02,0.01,0.04,0.02,0.07,0.03
			c0.02,0.01,0.04,0.02,0.06,0.03c0.02,0.01,0.04,0.02,0.06,0.03l0,0c0.02,0.01,0.04,0.02,0.07,0.03c0.02,0.01,0.04,0.02,0.06,0.03
			c0.02,0.01,0.04,0.02,0.06,0.03c0.02,0.01,0.04,0.02,0.06,0.03c0.02,0.01,0.04,0.02,0.06,0.03l0,0c0.02,0.01,0.04,0.01,0.06,0.02
			l0,0c0.02,0.01,0.04,0.01,0.06,0.02c0.02,0.01,0.04,0.01,0.06,0.02l0,0c0.02,0.01,0.04,0.02,0.06,0.02l0,0
			c0.02,0.01,0.04,0.01,0.06,0.02l0,0c0.04,0.01,0.08,0.03,0.12,0.04c0.02,0.01,0.04,0.01,0.06,0.02l0,0
			c0.02,0.01,0.04,0.01,0.06,0.02l0,0c0.02,0,0.04,0.01,0.06,0.01l0,0c0.02,0,0.04,0.01,0.06,0.01l0,0
			c0.01,0.01,0.04,0.01,0.05,0.01l0,0c0.02,0,0.04,0.01,0.05,0.01l0,0c0.02,0.01,0.04,0.01,0.05,0.01c0.02,0,0.04,0.01,0.05,0.01
			l0,0c0.02,0,0.03,0,0.05,0.01l0,0c0.02,0,0.03,0,0.05,0l0,0h0l0,0h0l0,0h0l0,0h0l0,0l0,0l0,0h0l0,0l0,0l0,0h0l0,0h0.01l0,0h0l0,0
			h0l0,0l0.01,0l0,0h0l0,0h0h0l0,0h0l0,0h0l0,0h0l0,0h0l0,0h0l0,0h0h0l0,0h0l0,0h0l0.01,0h0l0,0l0,0h0h0h0l0,0h0l0,0h0l0,0h0l0,0
			h0.01l0,0l0,0h0l0,0l0,0l0,0h0.01l0,0h0l0,0h0.01l0,0h0h0l0,0h0l0,0h0l0,0h0l0,0h0l0,0l0,0l0,0h0.01l0,0h0l0,0h0l0,0h0l0,0h0l0,0
			h0l0,0h0l0,0h0l0,0h0l0,0h0l0,0h0l0,0h0l0,0c0.01,0,0.02,0,0.03,0l0,0c0.01,0,0.02,0,0.03,0l0,0c0.01,0,0.02,0,0.03,0l0,0
			c0.01,0,0.02,0,0.03,0l0,0c0.01,0,0.02,0,0.03,0l0,0c0.01,0,0.02,0,0.03-0.01c0.01,0,0.02,0,0.03,0l0,0c0.01,0,0.02,0,0.03,0l0,0
			c0.01,0,0.02,0,0.03-0.01l0,0c0.01,0,0.02-0.01,0.03-0.01l0,0c0.01,0,0.02,0,0.03-0.01c0.01,0,0.02-0.01,0.03-0.01
			c0.01,0,0.02-0.01,0.03-0.01c0.01,0,0.02-0.01,0.03-0.01l0,0c0.01-0.01,0.02-0.01,0.03-0.01c0.01-0.01,0.02-0.01,0.03-0.01
			c0.01,0,0.02-0.01,0.03-0.01c0.01,0,0.02-0.01,0.03-0.01c0.01,0,0.02-0.01,0.03-0.01c0.01,0,0.02-0.01,0.03-0.01l0,0
			c0.01,0,0.02-0.01,0.03-0.01c0.01,0,0.02-0.01,0.03-0.01c0.01,0,0.02-0.01,0.03-0.01c0.01,0,0.02-0.01,0.03-0.01
			c0.01-0.01,0.02-0.01,0.03-0.01c0.01,0,0.02-0.01,0.03-0.01c0.01,0,0.02-0.01,0.03-0.01c0.01-0.01,0.02-0.01,0.03-0.02l0,0
			c0.01,0,0.02-0.01,0.03-0.01c0.01,0,0.02-0.01,0.03-0.01l0,0c0.01-0.01,0.02-0.01,0.03-0.02c0.01,0,0.02-0.01,0.03-0.01l0.03-0.02
			c0.01-0.01,0.02-0.01,0.03-0.02l0.03-0.02l0.03-0.02l0.03-0.02l0.03-0.02l0.03-0.02l0.03-0.02l0.03-0.02l0.03-0.02L16,21.05
			l0.03-0.02l0.03-0.02l0.03-0.02l0.03-0.02l0.03-0.02l0.03-0.02l0.03-0.02l0.03-0.02l0.03-0.02l0.03-0.02l0.03-0.02l0.03-0.02
			l0.03-0.02l0.03-0.02l0.03-0.02l0.03-0.02l0.03-0.02l0.03-0.03l0.03-0.02l0.03-0.02l0.03-0.02l0.03-0.02l0.03-0.02l0.03-0.02
			l0.02-0.02l0.03-0.02l0,0l0.02-0.02l0.03-0.02l0.02-0.02l0.03-0.01l0.03-0.02l0.03-0.02l0.02-0.02l0.03-0.02l0.03-0.02l0.03-0.02
			l0.02-0.01l0.03-0.02l0.03-0.02l0.03-0.02l0.03-0.02l0.02-0.02l0.03-0.02l0,0l0.03-0.01l0.03-0.02l0.03-0.02l0.03-0.02l0.03-0.02
			l0,0l0.03-0.02l0.03-0.02l0.02-0.01l0,0l0.03-0.02l0,0L17.49,20l0,0l0.03-0.02l0.03-0.01l0.03-0.01l0.03-0.01l0.03-0.01l0.02-0.02
			c0.01-0.01,0.02-0.01,0.03-0.01l0,0l0.02-0.01l0.02-0.01c0.01-0.01,0.02-0.01,0.03-0.01l0.03-0.01c0.01,0,0.01-0.01,0.02-0.01
			l0.02-0.01c0.01,0,0.02-0.01,0.02-0.01c0.01,0,0.02,0,0.03-0.01c0.01,0,0.01-0.01,0.02-0.01c0.01,0,0.01-0.01,0.02-0.01
			c0.01,0,0.01-0.01,0.03-0.01c0.01,0,0.01-0.01,0.02-0.01c0.01,0,0.02,0,0.02-0.01c0.01,0,0.01-0.01,0.02-0.01
			c0.01,0,0.02,0,0.03,0c0.01,0,0.01-0.01,0.02-0.01c0.01,0,0.01,0,0.02-0.01c0.01,0,0.01,0,0.02,0c0.01,0,0.01,0,0.02,0
			c0.01,0,0.01,0,0.02,0l0,0c0.01,0,0.01-0.01,0.02-0.01l0,0c0.01,0,0.01,0,0.02,0c0.01,0,0.01,0,0.02,0l0,0c0.01,0,0.01,0,0.02,0
			l0,0c0.01,0,0.02,0,0.02,0l0,0c0.01,0,0.01,0,0.02,0l0,0c0.01,0,0.01,0,0.02,0l0,0c0.01,0,0.01,0,0.02,0l0,0c0.01,0,0.01,0,0.02,0
			l0,0c0.01,0,0.01,0,0.02,0.01l0,0c0.01,0,0.01,0,0.02,0l0,0c0.01,0,0.01,0,0.02,0l0,0c0.01,0,0.01,0,0.02,0l0,0
			c0.01,0,0.02,0.01,0.02,0.01l0,0c0.01,0,0.01,0,0.02,0.01l0,0c0.01,0,0.01,0,0.02,0l0,0c0.01,0,0.01,0.01,0.02,0.01l0,0
			c0.01,0,0.01,0.01,0.03,0.01l0,0c0.01,0,0.01,0.01,0.02,0.01l0,0c0.01,0,0.02,0.01,0.02,0.01l0,0c0.01,0,0.02,0,0.03,0.01l0,0
			c0.01,0,0.01,0.01,0.02,0.01l0,0c0.01,0,0.02,0.01,0.02,0.01l0,0c0.01,0.01,0.01,0.01,0.03,0.01l0,0l0.02,0.01l0,0l0.03,0.01l0,0
			l0.03,0.01c0.01,0.01,0.01,0.01,0.02,0.01l0,0c0.01,0,0.02,0.01,0.03,0.01l0.03,0.01l0,0l0.03,0.01l0,0l0.02,0.02l0.02,0.01
			l0.03,0.01l0,0l0.03,0.01l0.03,0.01l0,0L19.01,20l0,0l0.02,0.02l0,0l0.03,0.02l0,0l0.03,0.01l0.03,0.02l0,0l0.03,0.02l0,0
			l0.03,0.02l0.03,0.02l0.03,0.02l0,0l0.03,0.02l0.03,0.01l0,0l0.03,0.02l0.03,0.02l0.03,0.02l0.03,0.02l0.03,0.02l0.03,0.02
			l0.03,0.01l0.03,0.02l0.02,0.02l0.03,0.02l0.03,0.02l0.03,0.02l0.03,0.02l0.03,0.01l0.03,0.02l0.03,0.02l0.03,0.02l0,0l0.03,0.02
			l0.03,0.02l0.03,0.02l0.03,0.02l0.03,0.02c0.66,0.49,1.29,0.95,1.97,0.95h0h0h0h0h0h0h0h0h0h0h0.01h0h0h0h0.01l0,0h0h0h0h0l0,0h0
			h0.01h0h0l0,0l0,0l0,0h0l0,0h0h0h0h0h0h0h0.01h0h0l0,0h0h0l0,0v0l0,0h0l0,0l0,0h0l0,0h0l0,0l0,0h0.01l0,0h0l0,0h0h0l0,0h0.01l0,0
			h0l0,0h0h0l0,0h0l0,0l0,0l0,0h0l0,0h0l0,0h0l0,0h0l0,0h0l0,0h0l0,0l0,0l0,0h0l0,0h0l0,0h0l0,0h0l0,0c0.02,0,0.04,0,0.05,0l0,0
			c0.02,0,0.03-0.01,0.05-0.01l0,0c0.02-0.01,0.03-0.01,0.05-0.01c0.02,0,0.04,0,0.06-0.01l0,0c0.01,0,0.03-0.01,0.05-0.01l0,0
			c0.02,0,0.04-0.01,0.05-0.01l0,0c0.02,0,0.04-0.01,0.06-0.01l0,0c0.02,0,0.04-0.01,0.06-0.01l0,0c0.02-0.01,0.04-0.01,0.06-0.02
			l0,0c0.02,0,0.04-0.01,0.06-0.02c0.02-0.01,0.04-0.01,0.06-0.02l0,0c0.02-0.01,0.04-0.01,0.06-0.02l0,0
			c0.02-0.01,0.04-0.01,0.06-0.02l0,0c0.02-0.01,0.04-0.01,0.06-0.02l0,0c0.02-0.01,0.04-0.01,0.06-0.02
			c0.02-0.01,0.04-0.02,0.06-0.02l0,0c0.02-0.01,0.04-0.02,0.06-0.02l0,0c0.02-0.01,0.04-0.02,0.06-0.03
			c0.02-0.01,0.04-0.01,0.06-0.03c0.02-0.01,0.04-0.01,0.06-0.03c0.02-0.01,0.04-0.02,0.07-0.03c0.02-0.01,0.04-0.02,0.06-0.03l0,0
			c0.02-0.01,0.04-0.02,0.06-0.03c0.02-0.01,0.04-0.02,0.06-0.03c0.02-0.01,0.04-0.02,0.07-0.03c0.02-0.01,0.04-0.02,0.06-0.03
			c0.02-0.01,0.04-0.02,0.07-0.03c0.02-0.01,0.04-0.02,0.06-0.03c0.02-0.01,0.04-0.02,0.06-0.03l0,0c0.02-0.01,0.04-0.02,0.06-0.03
			c0.02-0.01,0.04-0.02,0.06-0.03c0.02-0.01,0.04-0.03,0.06-0.04c0.02-0.01,0.04-0.02,0.06-0.03c0.02-0.01,0.04-0.02,0.06-0.03
			l0.06-0.04l0.06-0.03l0.06-0.04l0.06-0.04l0.06-0.04l0.06-0.03l0.06-0.04l0.06-0.04l0.06-0.04l0.06-0.03l0.06-0.04l0.06-0.04
			l0.06-0.03l0.06-0.04l0.05-0.04l0.06-0.03l0.05-0.04l0.05-0.03l0.05-0.03l0.05-0.03l0.05-0.03l0.04-0.03l0.05-0.03l0.04-0.03
			l0.04-0.03l0.04-0.03l0.04-0.03l0.04-0.03l0.04-0.03l0.04-0.02l0.02,0c0.01,0.01,0.01,0.01,0.02,0.01l0.01,0l0.02,0.01l0.02,0.01
			l0.02,0.01l0.02,0.01l0.02,0.01l0.02,0.01l0.02,0.01l0.02,0.01l0.02,0.01l0.02,0.01l0.02,0.01l0.02,0.01l0,0l0.02,0.01l0.02,0.01
			l0.02,0.01l0.02,0.01l0.02,0.01l0.02,0.01l0,0l0.02,0.01l0,0l0.02,0.01l0,0l0.02,0.01l0.02,0.01l0,0L26.19,20l0.02,0.01l0,0
			l0.02,0.01l0.02,0.01l0,0l0.02,0.01l0,0l0.03,0.01l0,0l0.02,0.01l0,0l0.02,0.01l0,0l0.02,0.01l0,0l0.03,0.01l0,0l0.02,0.01l0,0
			l0.02,0.01l0,0c0.04,0.03,0.08,0.05,0.12,0.08l0,0l0.02,0.01l0,0c0.05,0.03,0.1,0.06,0.14,0.09l0,0c0.06,0.04,0.12,0.08,0.18,0.12
			l0,0c0.06,0.04,0.11,0.07,0.16,0.1c0.07,0.05,0.14,0.09,0.21,0.14l0,0l0.07,0.05l0,0l0.04,0.02l0,0c0.03,0.02,0.05,0.03,0.07,0.05
			l0,0l0.04,0.02h0l0.03,0.02l0.04,0.02l0,0l0.04,0.02l0,0l0.04,0.02l0,0l0.04,0.02l0,0c0.02,0.01,0.05,0.03,0.07,0.04l0,0L27.78,21
			l0,0l0.03,0.02l0,0l0.04,0.02l0,0l0.04,0.02l0.04,0.02l0.04,0.02l0,0l0.03,0.02l0.04,0.02l0.04,0.02l0.03,0.02l0.04,0.02
			c0.01,0.01,0.02,0.01,0.04,0.02l0.03,0.02l0,0l0.04,0.02l0,0c0.01,0.01,0.02,0.01,0.03,0.02c0.01,0.01,0.03,0.01,0.03,0.02
			l0.04,0.01c0.01,0.01,0.02,0.01,0.03,0.01l0.04,0.02l0,0c0.01,0,0.02,0.01,0.04,0.01c0.01,0,0.02,0.01,0.03,0.01l0,0
			c0.03,0.01,0.07,0.03,0.1,0.04l0,0c0.01,0,0.02,0.01,0.04,0.01l0,0c0.01,0,0.02,0.01,0.03,0.01l0,0c0.01,0,0.02,0.01,0.04,0.01
			l0,0c0.03,0.01,0.07,0.02,0.1,0.03l0,0c0.06,0.01,0.11,0.03,0.17,0.04l0,0c0.01,0,0.02,0,0.04,0.01l0,0
			c0.02,0,0.04,0.01,0.07,0.01l0,0c0.03,0.01,0.05,0.01,0.07,0.01l0,0c0.01,0,0.02,0,0.03,0l0,0c0.01,0,0.02,0,0.03,0l0,0
			c0.01,0,0.02,0,0.04,0l0,0c0.01,0,0.02,0,0.03,0l0,0c0.01,0,0.02,0,0.04,0l0,0h0c0.01,0,0.02,0,0.03,0h0.01c0.01,0,0.02,0,0.03,0
			h0.01h0h0.02l0,0h0.01h0.02h0h0.01l0,0h0.02h0l0.02,0l0,0h0h0h0.01h0l0,0l0.02,0l0,0H29.54L29.54,21.51L29.54,21.51z M18.27,17.6
			c-0.8,0.03-1.58,0.55-2.35,1.05c-0.47,0.31-1.11,0.74-1.4,0.74c-0.29,0-0.86-0.44-1.27-0.75c-0.65-0.5-1.33-1.01-2.06-1.01
			c-0.06,0-0.11,0-0.18,0.01c0.23-0.4,0.6-0.72,1.07-0.89l3.5-1.23c0.11-0.04,0.23-0.06,0.34-0.09l-0.19-0.75
			c-0.03-0.14-0.25-1.24,0.46-2.28c0.57-0.84,1.56-1.37,2.91-1.57c0.04-0.01,0.09-0.01,0.13-0.01c0.43,0,0.79,0.31,0.86,0.74
			c0.07,0.47-0.26,0.91-0.73,0.98c-0.85,0.13-1.45,0.42-1.74,0.84c-0.29,0.42-0.21,0.9-0.21,0.9c0,0,0.68,2.29,0.74,2.46
			C18.27,17.03,18.3,17.32,18.27,17.6L18.27,17.6z M29.33,25.35L29.33,25.35c-0.01,0-0.02,0-0.03,0h0l0,0c-0.01,0-0.02,0-0.04,0l0,0
			c-0.01,0-0.02,0-0.03,0l0,0c-0.01,0-0.02,0-0.04,0l0,0c-0.01,0-0.02,0-0.03,0l0,0c-0.01,0-0.02,0-0.03,0l0,0
			c-0.02,0-0.04,0-0.07-0.01l0,0c-0.02-0.01-0.04-0.01-0.07-0.01l0,0c-0.01,0-0.03,0-0.04-0.01l0,0c-0.06-0.01-0.11-0.02-0.17-0.04
			l0,0c-0.04-0.01-0.07-0.02-0.1-0.03l0,0c-0.01,0-0.03-0.01-0.04-0.01l0,0c-0.01,0-0.02-0.01-0.03-0.01l0,0
			c-0.01-0.01-0.02-0.01-0.04-0.01l0,0c-0.03-0.01-0.07-0.02-0.1-0.04l0,0c-0.01,0-0.02-0.01-0.03-0.01
			c-0.01-0.01-0.02-0.01-0.04-0.01l0,0l-0.04-0.01c-0.01-0.01-0.02-0.01-0.03-0.01l-0.04-0.01c-0.01-0.01-0.02-0.01-0.03-0.02
			c-0.01,0-0.02-0.01-0.03-0.02l0,0l-0.04-0.01l0,0l-0.03-0.01c-0.01-0.01-0.02-0.02-0.04-0.02l-0.04-0.01l-0.03-0.02l-0.04-0.02
			l-0.04-0.02l-0.03-0.02l0,0l-0.04-0.02l-0.04-0.02l-0.04-0.02l0,0l-0.04-0.02l0,0l-0.03-0.02l0,0l-0.04-0.02l0,0
			c-0.02-0.01-0.05-0.03-0.07-0.04l0,0l-0.04-0.02l0,0L27.6,24.7l0,0l-0.04-0.02l0,0l-0.04-0.02l-0.03-0.02h0l-0.04-0.02l0,0
			c-0.02-0.01-0.04-0.03-0.07-0.05l0,0l-0.04-0.02l0,0l-0.07-0.05l0,0c-0.07-0.05-0.14-0.09-0.21-0.14c-0.05-0.03-0.1-0.06-0.16-0.1
			l0,0c-0.06-0.04-0.12-0.08-0.18-0.12l0,0c-0.05-0.03-0.09-0.06-0.14-0.09l0,0l-0.02-0.01l0,0c-0.04-0.03-0.08-0.05-0.12-0.07l0,0
			l-0.02-0.01l0,0l-0.02-0.01l0,0l-0.03-0.01l0,0l-0.02-0.02l0,0l-0.02-0.01l0,0l-0.02-0.01l0,0l-0.03-0.01l0,0l-0.02-0.01l0,0
			l-0.02-0.01l-0.02-0.01l0,0l-0.02-0.01l-0.02-0.01l0,0l-0.02-0.01l-0.02-0.01l0,0l-0.02-0.01l0,0l-0.02-0.01l0,0l-0.02-0.01
			l-0.02-0.01l-0.02-0.01l-0.02-0.01l-0.02-0.01l-0.02-0.01l0,0l-0.02-0.01l-0.02-0.01l-0.02-0.01l-0.02-0.01l-0.02-0.01l-0.02-0.01
			l-0.02-0.01l-0.02-0.01l-0.02-0.01l-0.02-0.01l-0.02-0.01l-0.02-0.01l-0.01,0c-0.01,0-0.01,0-0.02,0l-0.02-0.01l-0.04,0.02
			l-0.04,0.03l-0.04,0.03l-0.04,0.03l-0.04,0.03l-0.04,0.03l-0.04,0.03l-0.05,0.03l-0.04,0.03l-0.05,0.03l-0.05,0.03l-0.05,0.03
			l-0.05,0.03l-0.05,0.03l-0.06,0.03l-0.05,0.03l-0.06,0.04l-0.06,0.03l-0.06,0.04l-0.06,0.04l-0.06,0.04l-0.06,0.03L24.5,24.3
			l-0.06,0.04l-0.06,0.04l-0.06,0.03l-0.06,0.04l-0.06,0.03l-0.06,0.04l-0.06,0.03c-0.02,0.01-0.04,0.02-0.06,0.04
			c-0.02,0.01-0.04,0.02-0.06,0.03c-0.02,0.01-0.04,0.03-0.06,0.04c-0.02,0.01-0.04,0.02-0.06,0.03c-0.02,0.01-0.04,0.02-0.06,0.03
			l0,0c-0.02,0.01-0.04,0.02-0.06,0.03c-0.02,0.01-0.04,0.02-0.06,0.04c-0.02,0.01-0.04,0.02-0.07,0.03
			c-0.02,0.01-0.04,0.02-0.06,0.03c-0.02,0.01-0.04,0.02-0.07,0.03c-0.02,0.01-0.04,0.02-0.06,0.03c-0.02,0.01-0.04,0.02-0.06,0.03
			l0,0c-0.02,0.01-0.04,0.02-0.06,0.03c-0.02,0.01-0.04,0.02-0.07,0.03c-0.02,0.01-0.04,0.02-0.06,0.03
			c-0.02,0.01-0.04,0.02-0.06,0.03c-0.02,0.01-0.04,0.01-0.06,0.03l0,0c-0.02,0.01-0.04,0.01-0.06,0.02l0,0
			c-0.02,0.01-0.04,0.02-0.06,0.03c-0.02,0.01-0.04,0.01-0.06,0.02l0,0c-0.02,0.01-0.04,0.01-0.06,0.02l0,0
			c-0.02,0.01-0.04,0.02-0.06,0.02l0,0c-0.02,0.01-0.04,0.01-0.06,0.02l0,0c-0.02,0.01-0.04,0.01-0.06,0.02
			c-0.02,0.01-0.04,0.01-0.06,0.02l0,0c-0.02,0.01-0.04,0.01-0.06,0.02l0,0c-0.02,0-0.04,0.01-0.06,0.01l0,0
			c-0.02,0-0.04,0.01-0.06,0.01l0,0c-0.02,0-0.04,0.01-0.05,0.01l0,0c-0.02,0-0.04,0.01-0.05,0.01l0,0
			c-0.02,0.01-0.04,0.01-0.06,0.01c-0.02,0-0.03,0.01-0.05,0.01l0,0c-0.02,0-0.03,0-0.05,0.01l0,0c-0.02,0-0.03,0-0.05,0l0,0h0l0,0
			l0,0l0,0h0l0,0h0l0,0h0l0,0h0l0,0h0l0,0h0l0,0h0l0,0h0l0,0h0l0,0h0v0h0l0,0h0h0l0,0h0l0,0h-0.01l0,0h0h0l0,0h0l0,0h-0.01l0,0l0,0
			h0l0,0h0l0,0l0,0h0l0,0v0l0,0h0h0l0,0h0h0h-0.01h0h0h0h0h0h0l0,0h0l0,0h0l0,0h0h0h-0.01h0l0,0h0h0h0h0v0h-0.01h0h0h0h-0.01h0h0h0
			h0h0h0h0h0h0h0c-0.68,0-1.31-0.46-1.97-0.95l-0.03-0.02l-0.03-0.02l-0.03-0.02l-0.03-0.02l-0.03-0.02l0,0l-0.03-0.02l-0.03-0.02
			l-0.03-0.02l-0.03-0.02l-0.03-0.02l-0.03-0.02l-0.03-0.02l-0.03-0.02l-0.02-0.02l-0.03-0.02l-0.03-0.02l-0.03-0.02l-0.03-0.02
			l-0.03-0.01l-0.03-0.02L19.3,24l-0.03-0.02l0,0l-0.03-0.02l-0.03-0.02l0,0l-0.03-0.02l-0.03-0.02l-0.03-0.02l0,0l-0.03-0.02l0,0
			l-0.03-0.02l-0.03-0.01l0,0l-0.03-0.02l0,0l-0.02-0.01l0,0l-0.03-0.02l0,0l-0.03-0.02l-0.03-0.01l0,0l-0.03-0.01l-0.02-0.01
			l-0.02-0.01l0,0l-0.03-0.01l0,0L18.8,23.7c-0.01,0-0.01,0-0.03-0.01l0,0c-0.01-0.01-0.01-0.01-0.02-0.01l-0.03-0.01l0,0
			l-0.03-0.01l0,0l-0.02-0.01l0,0c-0.01,0-0.02-0.01-0.03-0.01l0,0c-0.01,0-0.02,0-0.02-0.01l0,0c-0.01,0-0.02-0.01-0.02-0.01l0,0
			c-0.01,0-0.02-0.01-0.03-0.01l0,0c-0.01-0.01-0.01-0.01-0.02-0.01l0,0c-0.01,0-0.01-0.01-0.02-0.01l0,0
			c-0.01,0-0.02-0.01-0.03-0.01l0,0c-0.01,0-0.01-0.01-0.02-0.01l0,0c-0.01,0-0.01-0.01-0.02-0.01l0,0c-0.01,0-0.02-0.01-0.02-0.01
			l0,0c-0.01,0-0.02,0-0.02-0.01l0,0c-0.01,0-0.01,0-0.02,0l0,0c-0.01,0-0.01-0.01-0.02-0.01l0,0c-0.01,0-0.02,0-0.02,0l0,0
			c-0.01,0-0.01,0-0.02,0l0,0c-0.01,0-0.02,0-0.02,0l0,0c-0.01,0-0.01,0-0.02,0l0,0c-0.01,0-0.01,0-0.02,0l0,0
			c-0.01,0-0.01,0-0.02,0l0,0c0,0-0.01,0-0.02,0l0,0c-0.01,0-0.01,0-0.02,0l0,0c-0.01,0-0.01,0-0.02,0c-0.01,0-0.01,0-0.02,0l0,0
			c-0.01,0-0.01,0-0.02,0l0,0c-0.01,0-0.01,0-0.02,0c-0.01,0-0.02,0-0.02,0.01c-0.01,0-0.01,0-0.02,0c-0.01,0-0.01,0-0.02,0.01
			c-0.01,0-0.01,0-0.02,0.01c-0.01,0-0.02,0-0.03,0.01c-0.01,0-0.01,0.01-0.02,0.01c-0.01,0-0.01,0-0.02,0.01
			c-0.01,0-0.01,0-0.02,0.01c-0.01,0-0.01,0-0.03,0.01c-0.01,0-0.01,0.01-0.02,0.01c-0.01,0.01-0.02,0.01-0.02,0.01
			c-0.01,0-0.02,0.01-0.03,0.01c-0.01,0-0.02,0.01-0.02,0.01l-0.02,0.01c-0.01,0-0.02,0.01-0.02,0.01l-0.03,0.01
			c-0.01,0.01-0.01,0.01-0.03,0.01l-0.02,0.01l-0.02,0.02l0,0c-0.01,0-0.02,0.01-0.03,0.01l-0.02,0.01l-0.03,0.01l-0.03,0.01
			l-0.03,0.01l-0.03,0.02l-0.03,0.02l0,0l-0.02,0.01l0,0l-0.03,0.02l0,0l-0.02,0.01l-0.03,0.02l-0.03,0.02l0,0l-0.03,0.02
			l-0.03,0.02l-0.03,0.02l-0.03,0.02l-0.03,0.02l0,0L17.2,24l-0.02,0.02l-0.03,0.02l-0.03,0.01l-0.03,0.02l-0.03,0.02l-0.02,0.02
			l-0.03,0.02l-0.03,0.02l-0.03,0.02l-0.02,0.02l-0.03,0.02l-0.03,0.02l-0.03,0.02l-0.02,0.02l-0.03,0.02l-0.02,0.02l0,0l-0.03,0.02
			l-0.02,0.02l-0.03,0.02l-0.03,0.02l-0.03,0.02l-0.03,0.02l-0.03,0.02l-0.03,0.02l-0.03,0.02l-0.03,0.02l-0.03,0.02l-0.03,0.02
			l-0.03,0.02l-0.03,0.02l-0.03,0.02l-0.03,0.02l-0.03,0.02l-0.03,0.02l-0.03,0.02l-0.03,0.02l-0.03,0.02l-0.03,0.02l-0.03,0.02
			l-0.03,0.02l-0.03,0.02L16,24.86l-0.03,0.02l-0.03,0.01l-0.03,0.02l-0.03,0.02l-0.03,0.02l-0.03,0.02l-0.03,0.01l-0.03,0.02
			l-0.03,0.02c-0.01,0.01-0.02,0.01-0.03,0.02l-0.03,0.01c-0.01,0.01-0.02,0.01-0.03,0.02c-0.01,0.01-0.02,0.01-0.03,0.02l0,0
			c-0.01,0-0.02,0.01-0.03,0.01c-0.01,0.01-0.02,0.01-0.03,0.02l0,0c-0.01,0.01-0.02,0.01-0.03,0.01c-0.01,0-0.02,0.01-0.03,0.01
			c-0.01,0-0.02,0.01-0.03,0.01c-0.01,0-0.02,0.01-0.03,0.01c-0.01,0-0.02,0.01-0.03,0.01c-0.01,0.01-0.02,0.01-0.03,0.01
			c-0.01,0-0.02,0.01-0.03,0.01c-0.01,0-0.02,0.01-0.03,0.01l0,0c-0.01,0-0.02,0.01-0.03,0.01c-0.01,0-0.02,0.01-0.03,0.01
			c-0.01,0-0.02,0.01-0.03,0.01c-0.01,0-0.02,0.01-0.03,0.01c-0.01,0-0.02,0.01-0.03,0.01c-0.01,0-0.02,0-0.03,0.01l0,0
			c-0.01,0-0.02,0.01-0.03,0.01c-0.01,0-0.02,0.01-0.03,0.01c-0.01,0-0.02,0-0.03,0.01c-0.01,0-0.02,0-0.03,0.01l0,0
			c-0.01,0-0.02,0.01-0.03,0.01l0,0c-0.01,0-0.02,0-0.03,0.01l0,0c-0.01,0-0.02,0-0.03,0l0,0c-0.01,0-0.02,0-0.03,0.01
			c-0.01,0-0.02,0-0.03,0l0,0c-0.01,0-0.02,0-0.03,0l0,0c-0.01,0-0.02,0.01-0.03,0.01l0,0c-0.01,0-0.02,0-0.03,0l0,0
			c-0.01,0-0.02,0-0.03,0l0,0c-0.01,0-0.02,0-0.03,0l0,0h0l0,0h0l0,0h0l0,0h0l0,0h0l0,0h0l0,0h0l0,0h0l0,0h0l0,0h0l0,0h0l0,0h-0.01
			l0,0l0,0l0,0h0l0,0h0l0,0l0,0l0,0h0l0,0h0h0l0,0h-0.01l0,0h0l0,0H14.6l0,0h0l0,0h0l0,0l0,0h-0.01l0,0h0l0,0h0l0,0h0l0,0h0h0h0l0,0
			l0,0h0l-0.01-0.01h0l0,0h0l0,0h0h0l0,0h0l0,0h0l0,0h0l0,0h0l0,0h0l0,0h0h0l0,0h0v0h-0.01l0,0h0l0,0h0l0,0H14.5l0,0h0l0,0l0,0l0,0
			h0l0,0h0l0,0h0l0,0h0l0,0l0,0l0,0h0l0,0c-0.01,0-0.03,0-0.05,0l0,0c-0.02,0-0.03,0-0.05-0.01l0,0c-0.02,0-0.04-0.01-0.05-0.01
			c-0.02,0-0.03-0.01-0.05-0.01l0,0c-0.02,0-0.04-0.01-0.05-0.01l0,0c-0.02,0-0.04-0.01-0.05-0.01l0,0c-0.02,0-0.04-0.01-0.06-0.01
			l0,0c-0.02-0.01-0.04-0.01-0.06-0.01l0,0c-0.02-0.01-0.04-0.01-0.06-0.02l0,0c-0.02-0.01-0.04-0.01-0.06-0.02
			c-0.04-0.01-0.08-0.03-0.12-0.04l0,0c-0.02-0.01-0.04-0.01-0.06-0.02l0,0c-0.02,0-0.04-0.01-0.06-0.02l0,0
			c-0.02-0.01-0.04-0.01-0.06-0.02c-0.02-0.01-0.04-0.02-0.06-0.03l0,0c-0.02-0.01-0.04-0.02-0.06-0.02l0,0
			c-0.02-0.01-0.04-0.02-0.06-0.03c-0.02-0.01-0.04-0.02-0.06-0.03c-0.02-0.01-0.04-0.02-0.06-0.03c-0.02-0.01-0.04-0.01-0.06-0.03
			c-0.02-0.01-0.04-0.02-0.07-0.03l0,0c-0.02-0.01-0.04-0.02-0.06-0.03c-0.02-0.01-0.04-0.02-0.06-0.03
			c-0.02-0.01-0.04-0.02-0.07-0.03l0,0c-0.02-0.01-0.04-0.02-0.06-0.03l0,0c-0.02-0.01-0.04-0.02-0.06-0.03l0,0
			c-0.02-0.01-0.04-0.03-0.06-0.04c-0.04-0.02-0.09-0.04-0.13-0.06c-0.02-0.01-0.04-0.02-0.06-0.03l0,0
			c-0.02-0.01-0.04-0.02-0.06-0.04l-0.06-0.03l0,0c-0.02-0.01-0.04-0.02-0.06-0.04l0,0c-0.02-0.01-0.04-0.02-0.06-0.03l0,0
			l-0.06-0.04l-0.06-0.03l0,0l-0.06-0.04l0,0l-0.06-0.03l-0.06-0.04l0,0L12,24.3l0,0l-0.06-0.04l-0.06-0.03l0,0l-0.06-0.04l0,0
			l-0.06-0.04l0,0l-0.06-0.04l0,0l-0.06-0.03l0,0l-0.06-0.04l0,0l-0.05-0.03l0,0l-0.05-0.03l0,0l-0.05-0.03l0,0l-0.05-0.03l0,0
			l-0.05-0.03l0,0l-0.05-0.03l0,0l-0.05-0.03l0,0l-0.05-0.03l0,0l-0.04-0.03l0,0l-0.05-0.03l0,0l-0.04-0.03l0,0L11,23.68l0,0
			l-0.04-0.03l0,0l-0.04-0.03l0,0l-0.04-0.03l0,0l-0.04-0.02l0,0c-0.01,0-0.01,0.01-0.02,0.01l0,0c0,0-0.01,0-0.02,0l0,0l-0.02,0
			l0,0l-0.02,0.01l0,0l-0.02,0.01l0,0l-0.02,0.01l0,0l-0.02,0.01l0,0l-0.02,0.01l0,0l-0.02,0.01l0,0l-0.02,0.01l0,0l-0.02,0.01l0,0
			l-0.02,0.01l0,0l-0.02,0.01l0,0l-0.02,0.01l0,0l-0.02,0.01l-0.02,0.01l0,0l-0.02,0.01l-0.02,0.01l0,0l-0.02,0.01l0,0l-0.02,0.01
			l-0.02,0.01l-0.02,0.01l-0.02,0.01l0,0l-0.02,0.01l-0.02,0.01l0,0l-0.02,0.01l-0.02,0.01l-0.02,0.01l-0.02,0.01l-0.02,0.01
			l-0.02,0.01l-0.02,0.01l-0.02,0.01l-0.02,0.02l-0.02,0.01l-0.02,0.01l-0.02,0.01l0,0l-0.02,0.01L10,23.99L9.98,24l-0.03,0.02
			l-0.02,0.01l0,0L9.9,24.05l-0.02,0.01l0,0l-0.02,0.02l0,0l-0.03,0.01L9.81,24.1l0,0l-0.02,0.01l0,0l-0.03,0.02l-0.02,0.01l0,0
			l-0.02,0.01l0,0l-0.02,0.01l0,0L9.67,24.2l-0.02,0.01l0,0l-0.02,0.02l0,0L9.6,24.24l0,0l-0.02,0.01l-0.02,0.02l0,0l-0.02,0.01l0,0
			L9.51,24.3l0,0l-0.02,0.01l0,0l-0.02,0.01l0,0l-0.02,0.01l0,0l-0.02,0.01l0,0l-0.04,0.03l0,0l-0.04,0.02l0,0l-0.03,0.02l0,0
			l-0.04,0.02l0,0l-0.04,0.02l0,0L9.21,24.5l0,0l-0.04,0.02l0,0l-0.03,0.03L9.1,24.57l-0.03,0.03l0,0l-0.04,0.02l0,0L9,24.64
			l-0.04,0.02l0,0l-0.04,0.02L8.89,24.7l0,0l-0.03,0.02l-0.04,0.02l0,0l-0.04,0.02l0,0l-0.03,0.02l0,0l-0.03,0.02l0,0l-0.04,0.02
			l0,0l-0.03,0.02l0,0l-0.04,0.02l-0.04,0.02l-0.03,0.02l0,0l-0.03,0.02l0,0l-0.04,0.02l0,0l-0.04,0.02l0,0l-0.03,0.02L8.37,25
			l-0.04,0.02L8.3,25.04h0l-0.03,0.01l0,0c-0.01,0.01-0.02,0.01-0.04,0.02l0,0c-0.01,0.01-0.02,0.01-0.03,0.02
			c-0.01,0-0.02,0.01-0.03,0.01l0,0l-0.03,0.01c-0.01,0-0.02,0.01-0.03,0.01l0,0c-0.01,0-0.02,0.01-0.04,0.01
			c-0.01,0-0.02,0.01-0.03,0.01l0,0C8.02,25.17,8,25.18,7.99,25.18l0,0c-0.02,0.01-0.05,0.02-0.07,0.02l0,0
			c-0.01,0-0.02,0.01-0.03,0.01c-0.01,0-0.02,0.01-0.03,0.01c-0.01,0-0.03,0.01-0.04,0.01l0,0c-0.01,0-0.02,0.01-0.03,0.01l0,0
			c-0.01,0-0.03,0.01-0.04,0.01l0,0c-0.01,0-0.02,0-0.04,0.01c-0.01,0-0.02,0.01-0.03,0.01l0,0c-0.01,0-0.02,0.01-0.03,0.01l0,0
			c-0.01,0-0.02,0.01-0.03,0.01l0,0c-0.01,0-0.02,0-0.03,0.01l0,0c-0.01,0-0.02,0-0.04,0.01l0,0c-0.01,0-0.02,0-0.04,0.01
			c-0.01,0-0.02,0-0.03,0.01l0,0c-0.01,0-0.02,0-0.03,0.01l0,0c-0.01,0-0.02,0-0.04,0l0,0c-0.01,0-0.02,0-0.04,0l0,0
			c-0.01,0-0.02,0-0.03,0l0,0c-0.01,0-0.02,0-0.04,0l0,0c-0.01,0-0.02,0-0.03,0l0,0c-0.01,0-0.02,0-0.04,0l0,0
			c-0.01,0-0.02,0-0.03,0l0,0c-0.03,0-0.05,0-0.07,0h0c-0.01,0-0.02,0-0.04,0h0l0,0h0c-0.01,0-0.02,0-0.03,0H7.06h0l-0.02,0h0H7.02
			l0,0c-0.01,0-0.01,0-0.02,0l-0.01,0H6.98H6.96l0,0c-0.69-0.1-1.32-0.58-1.93-1.04c-0.28-0.21-0.67-0.51-0.94-0.64
			c-0.24-0.49-0.45-0.98-0.63-1.49c0.15-0.03,0.29-0.05,0.42-0.05c0.73,0,1.4,0.51,2.05,1.01c0.32,0.24,0.73,0.55,1.03,0.69l0.01,0
			l0.01,0l0,0h0l0,0L7,23.82h0l0,0l0.01,0.01h0h0l0,0l0.01,0.01h0l0,0l0,0l0.01,0h0l0,0h0.01h0h0c0,0.01,0.01,0.01,0.01,0.01h0l0,0
			c0.01,0,0.01,0,0.01,0h0l0,0h0c0,0,0.01,0,0.01,0h0l0,0c0.01,0,0.01,0,0.01,0h0l0,0l0.01,0h0c0,0,0.01,0,0.01,0h0
			c0.01,0,0.01,0,0.01,0h0c0.01,0,0.01,0,0.01,0h0c0,0,0.01,0,0.01,0h0c0,0,0.01,0,0.01,0l0,0c0.01,0,0.01,0,0.02,0l0,0
			c0,0,0.01,0,0.01,0l0,0c0,0,0.01,0,0.01,0l0,0c0.01,0,0.01,0,0.02,0l0,0c0,0,0.01,0,0.01,0l0,0c0.01,0,0.01,0,0.02,0l0,0
			c0.01,0,0.01,0,0.02,0l0,0c0.01,0,0.01,0,0.02-0.01l0,0c0,0,0.01,0,0.02,0l0,0l0.02-0.01l0,0l0.02-0.01l0,0l0.02-0.01l0,0
			l0.02-0.01l0.02-0.01l0.02-0.01l0,0l0.02-0.01l0,0l0.02-0.01l0,0l0.02-0.01l0,0l0.02-0.01l0,0l0.02-0.01l0.02-0.01l0,0l0.02-0.01
			l0.02-0.01l0,0l0.02-0.01l0,0l0.03-0.01l0,0l0.02-0.01l0.02-0.01l0.02-0.01l0.02-0.01l0,0l0.02-0.01l0.02-0.02l0.02-0.01
			l0.03-0.01c0.01-0.01,0.03-0.02,0.05-0.03l0.03-0.01l0,0l0.03-0.01l0.02-0.01l0.02-0.02l0,0l0.02-0.02l0,0l0.02-0.01l0.03-0.02
			l0.05-0.03l0.02-0.02l0.03-0.01l0.02-0.02l0.02-0.01l0,0l0.02-0.02l0,0l0.03-0.01l0.02-0.02l0,0l0.02-0.01l0.02-0.02l0.03-0.01
			l0,0l0.02-0.02l0.03-0.01l0.02-0.01L8.5,23.2l0.07-0.05l0,0l0.02-0.01l0,0l0.02-0.02l0,0l0.04-0.02l0,0l0.04-0.03l0,0l0.04-0.02
			l0,0l0.04-0.03l0,0l0.04-0.02l0,0l0.04-0.03l0,0l0.04-0.02l0,0l0.04-0.02l0,0l0.04-0.02l0.04-0.03l0,0l0.04-0.02l0,0l0.04-0.02
			l0.04-0.02l0,0l0.04-0.02l0,0l0.04-0.02l0.04-0.02l0,0l0.04-0.02l0,0l0.04-0.02l0.04-0.02l0,0l0.04-0.02l0.04-0.02l0,0l0.04-0.02
			l0.04-0.02l0.04-0.02l0.04-0.02l0.04-0.02l0.04-0.02l0.04-0.02l0.04-0.02l0,0l0.04-0.01l0,0l0.04-0.02
			c0.01-0.01,0.02-0.01,0.04-0.02l0,0l0.04-0.02c0.01-0.01,0.03-0.01,0.04-0.02l0,0c0.01,0,0.03-0.01,0.04-0.02
			c0.01-0.01,0.03-0.01,0.04-0.02c0.01-0.01,0.03-0.01,0.04-0.02c0.01-0.01,0.02-0.01,0.04-0.02l0,0c0.01,0,0.02-0.01,0.04-0.02l0,0
			c0.01-0.01,0.03-0.01,0.04-0.01l0,0c0.01-0.01,0.03-0.01,0.04-0.01l0,0c0.01,0,0.02-0.01,0.04-0.02l0,0
			c0.01,0,0.03-0.01,0.04-0.01l0,0c0.01,0,0.02-0.01,0.04-0.01l0,0c0.01-0.01,0.03-0.01,0.04-0.01l0,0c0.01,0,0.02-0.01,0.04-0.01
			l0,0c0.01,0,0.03-0.01,0.04-0.01l0,0c0.01-0.01,0.03-0.01,0.04-0.01s0.03-0.01,0.04-0.01c0.01-0.01,0.03-0.01,0.04-0.01l0,0
			c0.01,0,0.02-0.01,0.04-0.01l0,0c0.01,0,0.03,0,0.04-0.01l0,0c0.01,0,0.02-0.01,0.04-0.01l0,0c0.01,0,0.03,0,0.04-0.01l0,0
			c0.01,0,0.03,0,0.04-0.01l0,0c0.01,0,0.03,0,0.04-0.01c0.01,0,0.02,0,0.04-0.01l0,0c0.01,0,0.02,0,0.04-0.01l0,0
			c0.01,0,0.02,0,0.04-0.01l0,0c0.01,0,0.03,0,0.04,0l0,0c0.01,0,0.03,0,0.04,0l0,0c0.01,0,0.03,0,0.04,0l0,0c0.01,0,0.03,0,0.04,0
			l0,0c0.01,0,0.02,0,0.04,0l0,0c0.05,0,0.1,0,0.16,0.01l0,0c0.04,0,0.08,0.01,0.12,0.01l0,0c0.05,0.01,0.1,0.02,0.15,0.03l0,0
			c0.03,0.01,0.05,0.01,0.08,0.02l0,0c0.01,0,0.02,0.01,0.04,0.01l0,0c0.02,0.01,0.05,0.01,0.08,0.02l0,0
			c0.03,0.01,0.05,0.02,0.08,0.03l0,0c0.02,0.01,0.05,0.02,0.08,0.03l0,0c0.01,0.01,0.03,0.01,0.04,0.01c0.01,0,0.03,0.01,0.04,0.01
			l0,0c0.03,0.01,0.05,0.02,0.08,0.03c0.01,0.01,0.02,0.01,0.04,0.02c0.01,0,0.03,0.01,0.04,0.01l0,0c0.01,0.01,0.03,0.01,0.04,0.02
			l0,0c0.01,0,0.02,0.01,0.04,0.01l0,0c0.01,0.01,0.03,0.01,0.04,0.02l0,0c0.01,0.01,0.03,0.01,0.04,0.02l0,0
			c0.01,0.01,0.03,0.01,0.04,0.02c0.01,0.01,0.02,0.01,0.04,0.02l0,0c0.01,0,0.03,0.01,0.04,0.01l0,0l0.04,0.02
			c0.01,0.01,0.02,0.01,0.04,0.02c0.01,0.01,0.02,0.01,0.04,0.02l0,0l0.04,0.02l0,0l0.04,0.02l0,0l0.04,0.02l0,0l0.04,0.02
			l0.04,0.02l0.04,0.02l0.04,0.02l0.04,0.02l0,0l0.04,0.03l0,0l0.04,0.02l0.04,0.03l0.04,0.02l0.04,0.02l0.04,0.02l0.04,0.03
			L13,22.88l0.04,0.03l0.04,0.03l0.04,0.03l0.04,0.03L13.19,23l0.04,0.03l0.04,0.02l0.04,0.03l0.04,0.03l0.04,0.02l0.04,0.03
			l0.04,0.02l0.02,0.01l0.02,0.01l0.02,0.01l0.02,0.01l0.02,0.01l0.02,0.01l0,0l0.02,0.01l0.02,0.01l0,0l0.02,0.01l0,0l0.02,0.01
			l0,0l0.02,0.01l0,0l0.02,0.01l0,0l0.02,0.01l0.02,0.01l0,0l0.04,0.02l0.02,0.01l0.02,0.01l0,0l0.02,0.01l0,0l0.02,0.01l0.02,0.01
			l0,0l0.02,0.01l0,0l0.02,0.01l0.02,0.01l0,0l0.04,0.03l0,0l0.02,0.01l0.02,0.01l0.02,0.01l0.02,0.01l0.02,0.01l0.02,0.01l0,0
			l0.02,0.01l0.02,0.01l0,0l0.02,0.01l0.02,0.01l0.02,0.01l0.02,0.01l0.02,0.01l0,0l0.02,0.01l0,0l0.02,0.01l0.02,0.01l0.02,0.01
			l0,0l0.02,0.01l0,0l0.02,0.01l0.02,0.01l0.02,0.01l0.02,0.01l0,0l0.02,0.01l0,0l0.02,0.01l0.01,0.01l0,0l0.02,0.01l0.01,0.01l0,0
			l0.02,0.01l0,0l0.02,0.01l0.01,0.01l0.01,0l0.01,0.01l0.01,0.01l0.01,0l0,0l0.01,0l0.01,0.01c0.01,0,0.01,0,0.01,0
			c0.01,0,0.01,0,0.01,0s0.01,0,0.01,0c0.01,0,0.01,0,0.01,0c0.01,0,0.01,0,0.01,0l0,0c0.01,0,0.01,0,0.01,0l0,0
			c0.01,0,0.01,0,0.01-0.01c0,0,0.01,0,0.01,0c0,0,0.01,0,0.01,0c0,0,0.01,0,0.01,0c0.01,0,0.01,0,0.02-0.01l0,0l0.01-0.01l0.01,0
			l0,0l0.02-0.01l0,0l0.02-0.01l0.01,0l0.02-0.01l0,0l0.01-0.01l0.02-0.01h0l0.02-0.01l0,0l0.02-0.01l0.02-0.01l0.02-0.01l0.02-0.01
			l0,0l0.02-0.01l0,0l0.02-0.01L15,23.72l0,0l0.02-0.01l0.02-0.01l0.02-0.01l0.02-0.01l0.02-0.01l0.02-0.01l0.02-0.01l0,0l0.02-0.01
			l0.02-0.01l0.02-0.01l0.02-0.01l0.02-0.02l0,0l0.02-0.01l0.02-0.01l0.02-0.01l0.02-0.01l0.02-0.01l0,0l0.02-0.01l0,0l0.02-0.01
			l0.02-0.01l0,0l0.02-0.01l0,0l0.02-0.01l0.02-0.02l0.02-0.01l0,0l0.02-0.02l0,0l0.02-0.01l0,0l0.02-0.01l0,0l0.04-0.03l0.04-0.03
			l0,0l0.04-0.03l0,0l0.06-0.04l0,0l0.02-0.01l0,0l0.03-0.03c0.09-0.07,0.19-0.13,0.28-0.2l0,0l0.04-0.03l0,0l0.04-0.02l0,0
			c0.04-0.02,0.07-0.05,0.11-0.08l0,0l0.04-0.02l0,0c0.04-0.02,0.07-0.05,0.11-0.07c0.02-0.02,0.05-0.04,0.07-0.05l0,0l0.04-0.03
			l0,0l0.04-0.02l0,0l0.04-0.03l0,0l0.04-0.02l0,0l0.04-0.02l0,0l0.04-0.02l0.04-0.02l0,0l0.04-0.02l0.04-0.02l0,0
			c0.01-0.01,0.02-0.01,0.04-0.02l0,0c0.01-0.01,0.02-0.01,0.04-0.02l0,0c0.01-0.01,0.03-0.02,0.04-0.02l0,0
			c0.01-0.01,0.03-0.01,0.04-0.02l0,0c0.01-0.01,0.03-0.01,0.04-0.02c0.01-0.01,0.02-0.02,0.04-0.02l0,0
			c0.01-0.01,0.02-0.01,0.04-0.02l0,0c0.01-0.01,0.03-0.01,0.04-0.02c0.01-0.01,0.03-0.01,0.04-0.02l0,0
			c0.01-0.01,0.03-0.01,0.04-0.02l0,0c0.01-0.01,0.03-0.01,0.04-0.02l0,0c0.01-0.01,0.03-0.01,0.04-0.02
			c0.01-0.01,0.03-0.01,0.04-0.02l0,0c0.01,0,0.03-0.01,0.04-0.01l0,0c0.01-0.01,0.03-0.01,0.04-0.02l0,0
			c0.01-0.01,0.03-0.01,0.04-0.01l0,0c0.01,0,0.03-0.01,0.04-0.01l0,0c0.01,0,0.03-0.01,0.04-0.01l0,0
			c0.01-0.01,0.03-0.01,0.04-0.01l0,0c0.01-0.01,0.03-0.01,0.04-0.01l0,0c0.01,0,0.03-0.01,0.04-0.01l0,0
			c0.01-0.01,0.03-0.01,0.04-0.01l0,0c0.03-0.01,0.05-0.01,0.08-0.02l0,0c0.01,0,0.03-0.01,0.04-0.01l0,0
			c0.05-0.01,0.11-0.02,0.17-0.03l0,0c0.1-0.01,0.2-0.02,0.3-0.02l0,0h0l0,0h0.01l0,0c0.16,0,0.31,0.02,0.46,0.05l0,0
			c0.07,0.01,0.14,0.03,0.21,0.06l0,0c0.03,0.01,0.05,0.02,0.08,0.02l0,0c0.03,0.01,0.05,0.02,0.08,0.03l0,0
			c0.04,0.01,0.08,0.03,0.12,0.05c0.01,0.01,0.03,0.01,0.04,0.02l0,0c0.01,0.01,0.03,0.01,0.04,0.02l0,0
			c0.04,0.02,0.08,0.03,0.12,0.05c0.01,0.01,0.03,0.01,0.04,0.02c0.01,0.01,0.03,0.01,0.04,0.02l0,0c0.01,0.01,0.03,0.01,0.04,0.02
			c0.01,0.01,0.02,0.01,0.04,0.02l0,0c0.01,0.01,0.02,0.01,0.04,0.02l0,0c0.01,0.01,0.03,0.01,0.04,0.02c0.01,0,0.03,0.01,0.04,0.02
			l0,0c0.01,0.01,0.03,0.01,0.04,0.02l0,0c0.01,0.01,0.02,0.01,0.04,0.02l0.04,0.02l0.04,0.02l0.04,0.02l0.04,0.02
			c0.01,0.01,0.03,0.01,0.04,0.02l0.04,0.03l0.04,0.02l0.04,0.03l0,0l0.04,0.02l0,0l0.04,0.02l0.04,0.02l0,0l0.04,0.03l0,0
			l0.04,0.02l0,0l0.04,0.02c0.02,0.02,0.05,0.03,0.07,0.05l0,0l0.04,0.02l0.04,0.02L20.45,23l0,0l0.03,0.03l0,0l0.04,0.02l0,0
			l0.04,0.02l0,0l0.04,0.03l0,0l0.07,0.05l0,0l0.03,0.03l0,0l0.03,0.02l0,0l0.02,0.01l0,0l0.02,0.01l0,0l0.02,0.01l0,0l0.02,0.01
			l0,0l0.02,0.01l0,0l0.02,0.01l0,0l0.02,0.01l0,0l0.02,0.01l0,0l0.02,0.01l0,0l0.02,0.01l0.02,0.01l0,0l0.02,0.02l0.02,0.01l0,0
			l0.02,0.01l0.02,0.02l0.02,0.01l0.02,0.02l0.02,0.01l0,0l0.02,0.01l0,0l0.02,0.01c0.02,0.01,0.04,0.03,0.06,0.04l0.02,0.01
			l0.02,0.01l0.02,0.01l0.02,0.01l0,0l0.02,0.02l0.02,0.01l0.02,0.01l0.02,0.01l0.02,0.01l0.02,0.01l0.02,0.01l0,0l0.02,0.01
			l0.02,0.01l0,0l0.02,0.01l0.02,0.01l0,0l0.02,0.01l0,0l0.02,0.01l0,0l0.02,0.01l0.01,0.01l0.02,0.01l0.02,0.01l0,0l0.02,0.01l0,0
			l0.02,0.01l0.01,0.01l0.02,0.01l0,0l0.01,0.01l0.02,0.01l0.01,0l0,0l0.01,0.01l0.01,0.01l0.01,0l0,0l0.01,0.01l0.01,0.01l0,0
			c0.01,0,0.01,0,0.01,0c0.01,0,0.01,0,0.01,0c0.01,0,0.01,0,0.01,0c0,0,0.01,0.01,0.01,0.01c0,0,0.01,0,0.01,0
			c0.01,0,0.01,0,0.01,0s0.01,0,0.01,0c0,0,0.01,0,0.01,0c0,0,0.01,0,0.01,0l0.01,0c0,0,0.01,0,0.01-0.01c0.01,0,0.01,0,0.01,0
			c0.01,0,0.01,0,0.01,0l0.01-0.01l0.01-0.01l0.02,0L22,23.83l0.01-0.01l0.01-0.01l0.02-0.01l0.02-0.01l0,0l0.02-0.01l0.02-0.01l0,0
			l0.02-0.01l0.02-0.01l0.02-0.01l0.02-0.01l0.02-0.01l0,0l0.02-0.01l0,0l0.02-0.01l0.02-0.01l0.02-0.01l0,0l0.02-0.01l0,0
			l0.02-0.01l0.02-0.01l0.02-0.01l0.02-0.01l0.02-0.01l0,0l0.02-0.01l0.02-0.01l0,0l0.02-0.01l0.02-0.01l0.02-0.01l0,0l0.02-0.01
			l0,0l0.02-0.01l0.02-0.01l0,0l0.02-0.01l0,0l0.02-0.01l0,0l0.02-0.01l0.02-0.01l0,0l0.02-0.01l0,0l0.02-0.01l0,0l0.02-0.01l0,0
			l0.02-0.01l0.02-0.01l0,0l0.02-0.01l0.02-0.01l0,0l0.02-0.01l0.02-0.01l0.02-0.01l0,0l0.02-0.01l0,0l0.02-0.01l0,0l0.02-0.01
			l0.02-0.01l0,0l0.02-0.01l0.02-0.01l0.02-0.01l0.02-0.01L23,23.22l0.02-0.01l0.02-0.01l0.02-0.01l0.04-0.02l0.04-0.03l0.04-0.02
			l0.04-0.03l0.04-0.03l0.04-0.02L23.31,23l0.04-0.02l0.04-0.03l0.04-0.03l0.04-0.03l0.04-0.03l0.04-0.02l0.04-0.03l0.04-0.02
			l0.04-0.02l0.04-0.02l0.04-0.03l0.04-0.02l0,0l0.04-0.03l0,0l0.04-0.02l0.04-0.02l0.04-0.02l0.04-0.02l0.04-0.02l0,0l0.04-0.02
			l0,0l0.04-0.02l0,0l0.04-0.02l0,0c0.01-0.01,0.03-0.01,0.04-0.02c0.01-0.01,0.02-0.01,0.04-0.02l0.04-0.02l0,0
			c0.01-0.01,0.02-0.01,0.04-0.01l0,0c0.01-0.01,0.03-0.01,0.04-0.02c0.01-0.01,0.02-0.01,0.04-0.02l0,0
			c0.01-0.01,0.03-0.01,0.04-0.02l0,0c0.01-0.01,0.03-0.01,0.04-0.02l0,0c0.01,0,0.02-0.01,0.04-0.01l0,0
			c0.01-0.01,0.03-0.01,0.04-0.02l0,0c0.01-0.01,0.03-0.01,0.04-0.01l0,0c0.01-0.01,0.03-0.01,0.04-0.02l0,0
			c0.01,0,0.03-0.01,0.04-0.01l0,0c0.01-0.01,0.03-0.01,0.04-0.01l0,0c0.01-0.01,0.02-0.01,0.04-0.01c0.01,0,0.03-0.01,0.04-0.01
			l0,0c0.01-0.01,0.03-0.01,0.04-0.01l0,0c0.01,0,0.03-0.01,0.04-0.01c0.01,0,0.02-0.01,0.04-0.01l0,0
			c0.01-0.01,0.02-0.01,0.04-0.01l0,0c0.01,0,0.03,0,0.04-0.01l0,0c0.01,0,0.03-0.01,0.04-0.01l0,0c0.01,0,0.03-0.01,0.04-0.01l0,0
			c0.01,0,0.02-0.01,0.04-0.01l0,0c0.01-0.01,0.02-0.01,0.04-0.01l0,0c0.01,0,0.02-0.01,0.04-0.01l0,0c0.01,0,0.02-0.01,0.04-0.01
			l0,0c0.01,0,0.02,0,0.04-0.01l0,0c0.01,0,0.03,0,0.04-0.01l0,0c0.01,0,0.03,0,0.04,0l0,0c0.01-0.01,0.03-0.01,0.04-0.01l0,0
			c0.01,0,0.03,0,0.04,0l0,0c0.01,0,0.02,0,0.04,0l0,0c0.01,0,0.03,0,0.04,0l0,0c0.01,0,0.02,0,0.04,0l0,0c0.01,0,0.03,0,0.04,0l0,0
			c0.09,0,0.18,0.01,0.27,0.02l0,0c0.01,0,0.03,0.01,0.04,0.01l0,0c0.02,0,0.05,0.01,0.07,0.01l0,0c0.03,0.01,0.05,0.01,0.08,0.02
			l0,0c0.01,0,0.02,0,0.04,0.01l0,0c0.03,0.01,0.05,0.01,0.08,0.02l0,0c0.01,0,0.02,0.01,0.04,0.01l0,0c0.01,0,0.03,0.01,0.04,0.01
			l0,0c0.01,0,0.03,0.01,0.04,0.01l0,0c0.03,0.01,0.05,0.02,0.08,0.03c0.01,0,0.02,0.01,0.04,0.01l0,0
			c0.01,0.01,0.03,0.01,0.04,0.01l0,0c0.03,0.01,0.05,0.02,0.08,0.03l0,0c0.02,0.01,0.05,0.02,0.07,0.03l0,0
			c0.01,0.01,0.03,0.01,0.04,0.02c0.01,0.01,0.03,0.01,0.04,0.02l0,0c0.01,0,0.03,0.01,0.04,0.02l0,0c0.01,0.01,0.02,0.01,0.04,0.02
			c0.01,0.01,0.03,0.01,0.04,0.02l0,0c0.03,0.01,0.05,0.02,0.07,0.04c0.01,0.01,0.03,0.01,0.04,0.02l0,0
			c0.01,0.01,0.02,0.01,0.04,0.01l0,0c0.01,0.01,0.02,0.01,0.04,0.02c0.01,0.01,0.02,0.01,0.04,0.02l0,0l0.04,0.02l0.04,0.02l0,0
			L27,22.57l0,0l0.04,0.02l0.04,0.02l0,0l0.04,0.02l0,0l0.04,0.02l0,0l0.04,0.02l0,0l0.04,0.02l0.04,0.02l0,0l0.04,0.02l0,0
			l0.03,0.02l0.04,0.02l0,0l0.04,0.02l0,0l0.04,0.02l0.04,0.02l0.04,0.02l0,0l0.04,0.03l0.04,0.02l0,0l0.04,0.02l0,0l0.04,0.02l0,0
			l0.04,0.03l0,0l0.04,0.02l0,0l0.04,0.03l0,0l0.04,0.02l0,0l0.04,0.03l0,0l0.04,0.02l0,0l0.02,0.02l0,0l0.02,0.01l0,0l0.02,0.02
			l0,0l0.02,0.01l0,0L28,23.2l0.03,0.01l0.02,0.01l0.02,0.01l0.02,0.02l0.02,0.01l0.02,0.02l0.03,0.01l0,0l0.02,0.02l0.03,0.01
			l0.02,0.02l0,0l0.03,0.01l0.02,0.02l0.02,0.01l0.03,0.02l0.05,0.03l0.03,0.02l0.02,0.01l0,0l0.02,0.02l0,0l0.03,0.02l0.02,0.01
			l0,0l0.02,0.01l0,0l0.03,0.01l0,0c0.01,0.01,0.03,0.02,0.05,0.03l0.03,0.01l0,0l0.02,0.01l0.02,0.02l0,0
			c0.02,0.01,0.03,0.02,0.05,0.03l0.03,0.01l0,0l0.02,0.01l0,0l0.02,0.01l0.02,0.01l0,0l0.02,0.01l0.02,0.01l0,0
			c0.02,0.01,0.03,0.01,0.04,0.02l0,0l0.02,0.01c0.01,0.01,0.03,0.01,0.04,0.02l0,0c0.02,0.01,0.04,0.01,0.06,0.02l0,0l0.02,0.01
			l0,0l0.02,0.01l0.02,0.01l0,0l0.02,0.01l0,0c0.03,0.01,0.05,0.02,0.07,0.02l0,0c0.01,0,0.01,0,0.02,0l0,0c0.01,0,0.01,0,0.02,0
			l0,0c0.01,0,0.01,0,0.02,0l0,0c0,0,0.01,0,0.01,0l0,0c0.01,0,0.02,0,0.03,0l0,0c0.01,0,0.01,0,0.01,0c0.01,0,0.03,0,0.04,0l0,0
			c0.01,0,0.01,0,0.01,0l0,0c0.02,0,0.03-0.01,0.05-0.01l0,0c0.01,0,0.03-0.01,0.05-0.01l0,0l0.02-0.01l0,0
			c0.3-0.11,0.75-0.45,1.09-0.71C30.21,23.9,29.8,24.64,29.33,25.35L29.33,25.35z M26.94,28.09l-0.03-0.02l0,0
			c-0.06-0.04-0.12-0.08-0.18-0.12l0,0c-0.05-0.03-0.09-0.06-0.14-0.09l0,0l-0.02-0.01l0,0c-0.04-0.02-0.08-0.05-0.12-0.07l0,0
			l-0.02-0.01l0,0l-0.02-0.01l0,0l-0.03-0.01l0,0l-0.02-0.01l0,0l-0.02-0.01l0,0l-0.02-0.01l0,0l-0.03-0.01l0,0l-0.02-0.02l0,0
			l-0.02-0.01l-0.02-0.01l0,0l-0.02-0.02l-0.02-0.01l0,0l-0.02-0.01l-0.02-0.01l0,0l-0.02-0.01l0,0l-0.02-0.01l0,0l-0.02-0.01
			l-0.02-0.01l-0.02-0.01l-0.02-0.01l-0.02-0.01l-0.02-0.01l0,0l-0.02-0.01l-0.02-0.01l-0.02-0.01l-0.02-0.01l-0.02-0.01l-0.02-0.01
			l-0.02-0.01l-0.02-0.01l-0.02,0l-0.02-0.01l-0.02-0.01l-0.02-0.01l-0.01-0.01c-0.01,0-0.01,0-0.02-0.01l-0.02,0l-0.04,0.03
			l-0.04,0.02l-0.04,0.03L25.5,27.5l-0.04,0.03l-0.04,0.03l-0.04,0.03l-0.05,0.03l-0.04,0.03l-0.05,0.03l-0.05,0.03l-0.05,0.03
			l-0.05,0.03l-0.05,0.04l-0.06,0.03l-0.05,0.03l-0.06,0.03l-0.06,0.04l-0.06,0.04l-0.06,0.04l-0.06,0.04l-0.06,0.04l-0.06,0.04
			l-0.06,0.04l-0.06,0.04l-0.06,0.03l-0.06,0.04L24.2,28.3l-0.06,0.03l-0.06,0.04c-0.02,0.01-0.04,0.02-0.06,0.03
			c-0.02,0.01-0.04,0.02-0.06,0.04c-0.02,0.01-0.04,0.02-0.06,0.04c-0.02,0.01-0.04,0.02-0.06,0.03c-0.02,0.01-0.04,0.02-0.06,0.03
			l0,0c-0.02,0.01-0.04,0.02-0.06,0.03c-0.02,0.01-0.04,0.02-0.06,0.03c-0.02,0.01-0.04,0.02-0.07,0.03
			c-0.02,0.01-0.04,0.02-0.06,0.03c-0.02,0.01-0.04,0.02-0.07,0.03c-0.02,0.01-0.04,0.02-0.06,0.03c-0.02,0.01-0.04,0.02-0.06,0.03
			l0,0c-0.02,0.01-0.04,0.02-0.06,0.03c-0.02,0.01-0.04,0.02-0.07,0.03c-0.02,0.01-0.04,0.02-0.06,0.03
			c-0.02,0.01-0.04,0.02-0.06,0.03c-0.02,0.01-0.04,0.02-0.06,0.03l0,0c-0.02,0.01-0.04,0.01-0.06,0.02l0,0
			c-0.02,0.01-0.04,0.01-0.06,0.02c-0.02,0.01-0.04,0.01-0.06,0.02l0,0c-0.02,0.01-0.04,0.01-0.06,0.02l0,0
			c-0.02,0.01-0.04,0.01-0.06,0.02l0,0c-0.02,0.01-0.04,0.01-0.06,0.02l0,0c-0.02,0-0.04,0.01-0.06,0.02
			c-0.02,0.01-0.04,0.01-0.06,0.01l0,0c-0.02,0.01-0.04,0.01-0.06,0.02l0,0c-0.02,0-0.04,0.01-0.06,0.01l0,0
			c-0.02,0-0.04,0.01-0.06,0.01l0,0c-0.02,0.01-0.04,0.01-0.05,0.01l0,0c-0.02,0-0.04,0.01-0.05,0.01l0,0
			c-0.02,0-0.04,0.01-0.06,0.01c-0.02,0-0.03,0.01-0.05,0.01l0,0c-0.02,0-0.03,0-0.05,0.01l0,0c-0.02,0-0.03,0-0.05,0l0,0h0l0,0h0
			l0,0h0l0,0l0,0l0,0h0l0,0h0l0,0h0l0,0h0l0,0h0l0,0h0l0,0h0l0,0h0l0,0h0l0,0l0,0h0l0,0h0l0,0h-0.01l0,0h0h0l0,0h0l0,0h-0.01l0,0
			l0,0h0l0,0h0h0l0,0h0l0,0l0,0l0,0l0,0h0l0,0h0h0h-0.01h0h0h0h0h0h0l0,0h0l0,0h0l0,0h0l0,0h-0.01h0l0,0h0h0h0h0l0,0h-0.01h0h0h0
			h-0.01h0h0h0h0h0h0h0h0h0h0c-0.68,0-1.31-0.46-1.97-0.95l-0.03-0.02l-0.03-0.02l-0.03-0.02l-0.03-0.01l-0.03-0.02l0,0L19.7,28.1
			l-0.03-0.02l-0.03-0.02l-0.03-0.01l-0.03-0.02l-0.03-0.02l-0.03-0.02l-0.03-0.02l-0.02-0.02l-0.03-0.02l-0.03-0.02l-0.03-0.02
			l-0.03-0.02l-0.03-0.02l-0.03-0.02l-0.03-0.02l-0.03-0.02l0,0l-0.03-0.02l-0.03-0.02l0,0l-0.03-0.02l-0.03-0.02l-0.03-0.02l0,0
			l-0.03-0.01l0,0l-0.03-0.02l-0.03-0.01l0,0l-0.03-0.02l0,0l-0.02-0.01l0,0l-0.03-0.02l0,0l-0.03-0.01l-0.03-0.01l0,0l-0.03-0.02
			l-0.02-0.01l-0.02-0.01l0,0l-0.03-0.01l0,0l-0.03-0.01c-0.01,0-0.01-0.01-0.03-0.01l0,0c-0.01,0-0.01-0.01-0.02-0.01l-0.03-0.01
			l0,0l-0.03-0.01l0,0l-0.02-0.01l0,0c-0.01-0.01-0.02-0.01-0.03-0.01l0,0c-0.01,0-0.02-0.01-0.02-0.01l0,0
			c-0.01,0-0.02,0-0.02-0.01l0,0c-0.01,0-0.02-0.01-0.03-0.01l0,0c-0.01-0.01-0.01-0.01-0.02-0.01l0,0c-0.01,0-0.01-0.01-0.02-0.01
			l0,0c-0.01-0.01-0.02-0.01-0.03-0.01l0,0c-0.01,0-0.01-0.01-0.02-0.01l0,0c-0.01,0-0.01,0-0.02,0l0,0c-0.01,0-0.02,0-0.02-0.01
			l0,0c-0.01,0-0.02,0-0.02,0l0,0c-0.01,0-0.01-0.01-0.02-0.01l0,0c-0.01,0-0.01-0.01-0.02-0.01l0,0c-0.01,0-0.02,0-0.02,0l0,0
			c-0.01,0-0.01-0.01-0.02-0.01l0,0c-0.01,0-0.02,0-0.02,0l0,0c-0.01,0-0.01,0-0.02,0l0,0c-0.01,0-0.01,0-0.02,0l0,0
			c-0.01,0-0.01,0-0.02,0l0,0c0,0-0.01,0-0.02,0l0,0c-0.01,0-0.01,0-0.02,0l0,0c-0.01,0-0.01,0-0.02,0c-0.01,0-0.01,0-0.02,0l0,0
			c-0.01,0-0.01,0-0.02,0.01l0,0c-0.01,0-0.01,0-0.02,0c-0.01,0-0.02,0.01-0.02,0.01c-0.01,0-0.01,0-0.02,0.01
			c-0.01,0-0.01,0-0.02,0c-0.01,0-0.01,0-0.02,0.01c-0.01,0-0.02,0-0.03,0c-0.01,0-0.01,0.01-0.02,0.01c-0.01,0-0.01,0-0.02,0.01
			c-0.01,0-0.01,0-0.02,0.01c-0.01,0-0.01,0-0.03,0.01c-0.01,0-0.01,0.01-0.02,0.01c-0.01,0.01-0.02,0.01-0.02,0.01
			c-0.01,0-0.02,0.01-0.03,0.01c-0.01,0-0.02,0.01-0.02,0.01l-0.02,0.01c-0.01,0-0.02,0.01-0.02,0.01l-0.03,0.01
			c-0.01,0-0.01,0.01-0.03,0.01l-0.02,0.01l-0.02,0.01l0,0c-0.01,0-0.02,0.01-0.03,0.01l-0.02,0.01l-0.03,0.01l-0.03,0.02
			l-0.03,0.01l-0.03,0.01l-0.03,0.02l0,0l-0.02,0.01l0,0l-0.03,0.02l0,0l-0.02,0.01l-0.03,0.02l-0.03,0.01l0,0l-0.03,0.02
			l-0.03,0.02l-0.03,0.02l-0.03,0.02l-0.03,0.02l0,0l-0.03,0.02l-0.02,0.02l-0.03,0.02l-0.03,0.02l-0.03,0.02l-0.03,0.02l-0.02,0.02
			l-0.03,0.02l-0.03,0.02l-0.03,0.02l-0.02,0.02l-0.03,0.02l-0.03,0.02l-0.03,0.01l-0.02,0.02L16.8,28.1l-0.02,0.02l0,0l-0.03,0.02
			l-0.02,0.01l-0.03,0.02l-0.03,0.02l-0.03,0.02l-0.03,0.02l-0.03,0.02l-0.03,0.02l-0.03,0.03l-0.03,0.02l-0.03,0.03l-0.03,0.02
			L16.4,28.4l-0.03,0.02l-0.03,0.02l-0.03,0.02l-0.03,0.02l-0.03,0.02l-0.03,0.02l-0.03,0.02l-0.03,0.02l-0.03,0.02l-0.03,0.02
			l-0.03,0.02l-0.03,0.02L16,28.68l-0.03,0.02l-0.03,0.01l-0.03,0.02l-0.03,0.01l-0.03,0.02l-0.03,0.02l-0.03,0.02l-0.03,0.02
			l-0.03,0.01c-0.01,0.01-0.02,0.01-0.03,0.02l-0.03,0.01c-0.01,0.01-0.02,0.01-0.03,0.02c-0.01,0.01-0.02,0.01-0.03,0.01l0,0
			c-0.01,0.01-0.02,0.01-0.03,0.01c-0.01,0.01-0.02,0.01-0.03,0.01l0,0c-0.01,0.01-0.02,0.01-0.03,0.02c-0.01,0-0.02,0.01-0.03,0.01
			c-0.01,0-0.02,0.01-0.03,0.02c-0.01,0-0.02,0.01-0.03,0.01c-0.01,0-0.02,0.01-0.03,0.01c-0.01,0-0.02,0.01-0.03,0.01
			c-0.01,0-0.02,0.01-0.03,0.01c-0.01,0.01-0.02,0.01-0.03,0.01l0,0c-0.01,0-0.02,0-0.03,0.01c-0.01,0-0.02,0.01-0.03,0.01
			c-0.01,0-0.02,0.01-0.03,0.01c-0.01,0-0.02,0.01-0.03,0.01c-0.01,0-0.02,0.01-0.03,0.01c-0.01,0-0.02,0-0.03,0.01l0,0
			c-0.01,0-0.02,0.01-0.03,0.01c-0.01,0-0.02,0-0.03,0.01c-0.01,0-0.02,0-0.03,0.01c-0.01,0-0.02,0.01-0.03,0.01l0,0
			c-0.01,0-0.02,0-0.03,0l0,0c-0.01,0-0.02,0.01-0.03,0.01l0,0c-0.01,0-0.02,0-0.03,0l0,0c-0.01,0-0.02,0-0.03,0
			c-0.01,0-0.02,0-0.03,0l0,0c-0.01,0-0.02,0-0.03,0l0,0c-0.01,0-0.02,0-0.03,0l0,0c-0.01,0-0.02,0-0.03,0l0,0
			c-0.01,0-0.02,0-0.03,0l0,0c-0.01,0-0.02,0-0.03,0l0,0h0l0,0h0l0,0h0l0,0h0l0,0h0l0,0h0l0,0h0l0,0h0l0,0h0l0,0h0l0,0h0l0,0h-0.01
			l0,0l0,0l0,0h0l0,0h0l0,0h0l0,0h0l0,0h0h0l0,0h-0.01l0,0h0l0,0l-0.01,0l0,0h0l0,0h0l0,0l0,0h-0.01l0,0h0l0,0h0l0,0h0l0,0h0h0h0
			l0,0l0,0h0l-0.01,0h0l0,0h0l0,0h0h0l0,0h0l0,0h0l0,0h0l0,0h0l0,0h0l0,0h0l0,0l0,0h0l0,0h-0.01l0,0h0l0,0h0l0,0H14.5l0,0h0l0,0l0,0
			l0,0h0l0,0h0l0,0l0,0l0,0h0l0,0h0l0,0h0l0,0c-0.01,0-0.03,0-0.05,0l0,0c-0.02,0-0.03,0-0.05-0.01l0,0c-0.02,0-0.04-0.01-0.05-0.01
			c-0.02,0-0.03-0.01-0.05-0.01l0,0c-0.02-0.01-0.04-0.01-0.05-0.01l0,0c-0.02-0.01-0.04-0.01-0.05-0.01l0,0
			c-0.02,0-0.04-0.01-0.06-0.01l0,0c-0.02-0.01-0.04-0.01-0.06-0.01l0,0c-0.02-0.01-0.04-0.01-0.06-0.02l0,0
			c-0.02,0-0.04-0.01-0.06-0.01c-0.04-0.01-0.08-0.03-0.12-0.04l0,0c-0.02-0.01-0.04-0.01-0.06-0.02l0,0
			c-0.02-0.01-0.04-0.01-0.06-0.02l0,0c-0.02-0.01-0.04-0.01-0.06-0.02c-0.02-0.01-0.04-0.02-0.06-0.02l0,0
			c-0.02-0.01-0.04-0.02-0.06-0.02l0,0c-0.02-0.01-0.04-0.02-0.06-0.03c-0.02-0.01-0.04-0.02-0.06-0.03
			c-0.02-0.01-0.04-0.02-0.06-0.03c-0.02-0.01-0.04-0.02-0.06-0.03c-0.02-0.01-0.04-0.02-0.07-0.03l0,0
			c-0.02-0.01-0.04-0.02-0.06-0.03c-0.02-0.01-0.04-0.02-0.06-0.03c-0.02-0.01-0.04-0.02-0.07-0.03l0,0
			c-0.02-0.01-0.04-0.02-0.06-0.03l0,0c-0.02-0.01-0.04-0.02-0.06-0.03l0,0c-0.02-0.01-0.04-0.02-0.06-0.03
			c-0.04-0.02-0.09-0.04-0.13-0.06c-0.02-0.01-0.04-0.02-0.06-0.03l0,0c-0.02-0.01-0.04-0.02-0.06-0.04l-0.06-0.04l0,0
			c-0.02-0.01-0.04-0.02-0.06-0.03l0,0c-0.02-0.01-0.04-0.02-0.06-0.04l0,0L12.3,28.3l-0.06-0.04l0,0l-0.06-0.04l0,0l-0.06-0.03
			l-0.06-0.04l0,0L12,28.12l0,0l-0.06-0.04l-0.06-0.04l0,0l-0.06-0.04l0,0l-0.06-0.04l0,0l-0.06-0.04l0,0l-0.06-0.04l0,0l-0.06-0.03
			l0,0l-0.05-0.03l0,0l-0.05-0.03l0,0l-0.05-0.04l0,0l-0.05-0.03l0,0l-0.05-0.03l0,0l-0.05-0.03l0,0l-0.05-0.03l0,0l-0.05-0.03l0,0
			l-0.04-0.03l0,0l-0.05-0.03l0,0l-0.04-0.03l0,0L11,27.5l0,0l-0.04-0.03l0,0l-0.04-0.03l0,0l-0.04-0.02l0,0l-0.04-0.03l0,0
			c-0.01,0-0.01,0-0.02,0l0,0c0,0-0.01,0-0.02,0.01l0,0l-0.02,0.01l0,0l-0.02,0.01l0,0l-0.02,0.01l0,0l-0.02,0.01l0,0l-0.02,0l0,0
			l-0.02,0.01l0,0l-0.02,0.01l0,0l-0.02,0.01l0,0l-0.02,0.01l0,0l-0.02,0.01l0,0l-0.02,0.01l0,0l-0.02,0.01l0,0l-0.02,0.01
			l-0.02,0.01l0,0l-0.02,0.01l-0.02,0.01l0,0l-0.02,0.01l0,0l-0.02,0.01l-0.02,0.01l-0.02,0.01l-0.02,0.01l0,0l-0.02,0.01
			l-0.02,0.01l0,0l-0.02,0.01l-0.02,0.02l-0.02,0.01l-0.02,0.01l-0.02,0.02l-0.02,0.01l-0.02,0.01l-0.02,0.01l-0.02,0.01l-0.02,0.01
			l-0.02,0.01l-0.02,0.01l0,0l-0.02,0.01L10,27.8l-0.02,0.01l-0.03,0.02l-0.02,0.01l0,0L9.9,27.86l-0.02,0.01l0,0l-0.02,0.02l0,0
			l-0.03,0.02l-0.02,0.01l0,0l-0.02,0.01l0,0l-0.03,0.02l-0.02,0.01l0,0l-0.02,0.01l0,0l-0.02,0.02l0,0l-0.02,0.02l-0.02,0.01l0,0
			l-0.02,0.01l0,0L9.6,28.05l0,0l-0.02,0.01l-0.02,0.01l0,0L9.54,28.1l0,0l-0.02,0.02l0,0l-0.02,0.01l0,0l-0.02,0.01l0,0l-0.02,0.01
			l0,0l-0.02,0.01l0,0L9.39,28.2l0,0l-0.04,0.02l0,0l-0.03,0.02l0,0l-0.04,0.02l0,0l-0.04,0.02l0,0l-0.04,0.02l0,0l-0.04,0.02l0,0
			l-0.03,0.03L9.1,28.38l-0.03,0.03l0,0l-0.04,0.02l0,0L9,28.45l-0.04,0.02l0,0L8.93,28.5l-0.04,0.02l0,0l-0.03,0.03l-0.04,0.02l0,0
			l-0.04,0.02l0,0l-0.03,0.02l0,0l-0.03,0.02l0,0l-0.04,0.02l0,0l-0.03,0.02l0,0l-0.04,0.02l-0.04,0.02l-0.03,0.02l0,0l-0.03,0.02
			l0,0l-0.04,0.02l0,0l-0.04,0.02l0,0L8.41,28.8l-0.03,0.02l-0.01,0.01c-0.49-0.37-0.95-0.77-1.39-1.21l0.01,0.01l0,0h0l0,0L7,27.63
			h0h0l0.01,0.01h0l0,0l0,0l0.01,0h0l0,0l0,0l0.01,0.01h0l0,0l0.01,0h0h0c0,0,0.01,0,0.01,0.01h0l0,0c0.01,0,0.01,0,0.01,0h0l0,0h0
			c0,0,0.01,0,0.01,0h0l0,0c0.01,0,0.01,0.01,0.01,0.01h0l0,0l0.01,0h0c0,0,0.01,0,0.01,0h0c0.01,0,0.01,0,0.01,0h0
			c0.01,0,0.01,0,0.01,0h0c0,0,0.01,0,0.01,0h0c0,0,0.01,0,0.01,0l0,0c0.01,0,0.01,0,0.02,0l0,0c0,0,0.01,0,0.01,0l0,0
			c0,0,0.01,0,0.01,0l0,0c0.01,0,0.01,0,0.02,0l0,0c0,0,0.01,0,0.01-0.01l0,0c0.01,0,0.01,0,0.02,0l0,0c0.01,0,0.01,0,0.02,0l0,0
			c0.01,0,0.01,0,0.02-0.01l0,0c0,0,0.01,0,0.02,0l0,0l0.02-0.01l0,0l0.02,0l0,0l0.02-0.01l0,0l0.02-0.01l0.02-0.01l0.02-0.01l0,0
			L7.5,27.6l0,0l0.02-0.01l0,0l0.02-0.01l0,0l0.02-0.01l0,0l0.02-0.01l0.02-0.01l0,0l0.02-0.01l0.02-0.01l0,0l0.02-0.01l0,0
			l0.03-0.01l0,0l0.02-0.01l0.02-0.01l0.02-0.01l0.02-0.01l0,0l0.02-0.01l0.02-0.01l0.02-0.01l0.03-0.01
			c0.01-0.01,0.03-0.02,0.05-0.03l0.03-0.01l0,0l0.03-0.01l0.02-0.01l0.02-0.01l0,0l0.02-0.02l0,0l0.02-0.01l0.03-0.02l0.05-0.03
			l0.02-0.02l0.03-0.01l0.02-0.01l0.02-0.01l0,0l0.02-0.02l0,0l0.03-0.01l0.02-0.02l0,0l0.02-0.01l0.02-0.02l0.03-0.01l0,0
			l0.02-0.02l0.03-0.01l0.02-0.02l0.02-0.01l0.07-0.05l0,0l0.02-0.01l0,0l0.02-0.01l0,0l0.04-0.02l0,0l0.04-0.03l0,0l0.04-0.03l0,0
			l0.04-0.02l0,0l0.04-0.03l0,0l0.04-0.02l0,0l0.04-0.02l0,0l0.04-0.02l0,0l0.04-0.02l0.04-0.03l0,0l0.04-0.03l0,0l0.04-0.02
			l0.04-0.02l0,0l0.04-0.03l0,0l0.04-0.02l0.04-0.02l0,0l0.04-0.02l0,0l0.04-0.02l0.04-0.02l0,0l0.04-0.02l0.04-0.02l0,0l0.04-0.02
			l0.04-0.02l0.04-0.02l0.04-0.02l0.04-0.02l0.04-0.02l0.04-0.02l0.04-0.02l0,0l0.04-0.02l0,0l0.04-0.02
			c0.01-0.01,0.02-0.01,0.04-0.02l0,0l0.04-0.02c0.01-0.01,0.03-0.01,0.04-0.02l0,0c0.01-0.01,0.03-0.01,0.04-0.01
			c0.01-0.01,0.03-0.01,0.04-0.02c0.01-0.01,0.03-0.01,0.04-0.02c0.01-0.01,0.02-0.01,0.04-0.02l0,0c0.01,0,0.02-0.01,0.04-0.01l0,0
			c0.01-0.01,0.03-0.01,0.04-0.02l0,0c0.01,0,0.03-0.01,0.04-0.02l0,0c0.01,0,0.02-0.01,0.04-0.01l0,0c0.01,0,0.03-0.01,0.04-0.01
			l0,0c0.01,0,0.02-0.01,0.04-0.01l0,0c0.01-0.01,0.03-0.01,0.04-0.01l0,0c0.01-0.01,0.02-0.01,0.04-0.01l0,0
			c0.01,0,0.03-0.01,0.04-0.01l0,0c0.01,0,0.03-0.01,0.04-0.01c0.01-0.01,0.03-0.01,0.04-0.01c0.01,0,0.03-0.01,0.04-0.01l0,0
			c0.01,0,0.02-0.01,0.04-0.01l0,0c0.01,0,0.03-0.01,0.04-0.01l0,0c0.01,0,0.02-0.01,0.04-0.01l0,0c0.01,0,0.03,0,0.04-0.01l0,0
			c0.01,0,0.03,0,0.04-0.01l0,0c0.01,0,0.03,0,0.04,0c0.01,0,0.02,0,0.04-0.01l0,0c0.01,0,0.02,0,0.04-0.01l0,0
			c0.01,0,0.02,0,0.04,0l0,0c0.01,0,0.03,0,0.04-0.01l0,0c0.01,0,0.03,0,0.04,0l0,0c0.01,0,0.03,0,0.04,0l0,0c0.01,0,0.03,0,0.04,0
			l0,0c0.01,0,0.02,0,0.04,0l0,0c0.05,0,0.1,0,0.16,0.01l0,0c0.04,0,0.08,0.01,0.12,0.01l0,0c0.05,0.01,0.1,0.02,0.15,0.03l0,0
			c0.03,0.01,0.05,0.01,0.08,0.02l0,0c0.01,0,0.02,0.01,0.04,0.01l0,0c0.02,0.01,0.05,0.01,0.08,0.02l0,0
			c0.03,0.01,0.05,0.01,0.08,0.03l0,0c0.02,0.01,0.05,0.01,0.08,0.02l0,0c0.01,0.01,0.03,0.01,0.04,0.01
			c0.01,0.01,0.03,0.01,0.04,0.02l0,0c0.03,0.01,0.05,0.02,0.08,0.03c0.01,0.01,0.02,0.01,0.04,0.02c0.01,0,0.03,0.01,0.04,0.01l0,0
			c0.01,0.01,0.03,0.01,0.04,0.02l0,0c0.01,0.01,0.02,0.01,0.04,0.02l0,0c0.01,0.01,0.03,0.01,0.04,0.02l0,0
			c0.01,0,0.03,0.01,0.04,0.02l0,0c0.01,0.01,0.03,0.01,0.04,0.02c0.01,0,0.02,0.01,0.04,0.02l0,0c0.01,0.01,0.03,0.01,0.04,0.02
			l0,0l0.04,0.02c0.01,0.01,0.02,0.01,0.04,0.02c0.01,0.01,0.02,0.01,0.04,0.02l0,0l0.04,0.02l0,0l0.04,0.02l0,0l0.04,0.02l0,0
			l0.04,0.02l0.04,0.02l0.04,0.02l0.04,0.02l0.04,0.02l0,0l0.04,0.02l0,0l0.04,0.03l0.04,0.02l0.04,0.02l0.04,0.02l0.04,0.02
			l0.04,0.03L13,26.69l0.04,0.02l0.04,0.03l0.04,0.02l0.04,0.03l0.04,0.02l0.04,0.03l0.04,0.02l0.04,0.03l0.04,0.03l0.04,0.02
			l0.04,0.03l0.04,0.02l0.02,0.01l0.02,0.01l0.02,0.01l0.02,0.01l0.02,0.01l0.02,0.01l0,0l0.02,0.01l0.02,0.01l0,0l0.02,0.01l0,0
			l0.02,0.01v0l0.02,0.01l0,0l0.02,0.01l0,0l0.02,0.01l0.02,0.01l0,0l0.04,0.03l0.02,0.01l0.02,0.01l0,0l0.02,0.01l0,0l0.02,0.01
			l0.02,0.01l0,0l0.02,0.01l0,0l0.02,0.01l0.02,0.01l0,0l0.04,0.03l0,0l0.02,0.01l0.02,0.01l0.02,0.01l0.02,0.01l0.02,0.01
			l0.02,0.01l0,0l0.02,0.01l0.02,0.01l0,0l0.02,0.01l0.02,0.01l0.02,0.01l0.02,0.01l0.02,0.01l0,0l0.02,0.01l0,0l0.02,0.01
			l0.02,0.01l0.02,0.01l0,0l0.02,0.01l0,0l0.02,0.01l0.02,0.01l0.02,0.01l0.02,0.01l0,0l0.02,0.01l0,0l0.02,0.01l0.01,0.01l0,0
			l0.02,0.01l0.01,0.01l0,0l0.02,0.01l0,0l0.02,0.01l0.01,0.01l0.01,0l0.01,0.01l0.01,0.01l0.01,0.01l0,0l0.01,0l0.01,0
			c0.01,0,0.01,0,0.01,0c0.01,0,0.01,0,0.01,0s0.01,0,0.01,0c0.01,0,0.01,0,0.01,0c0.01,0,0.01,0,0.01,0l0,0c0.01,0,0.01,0,0.01,0
			l0,0c0.01,0,0.01,0,0.01,0c0,0,0.01,0,0.01,0c0,0,0.01,0,0.01-0.01c0,0,0.01,0,0.01,0c0.01,0,0.01,0,0.02-0.01l0,0l0.01,0
			l0.01-0.01l0,0l0.02,0l0,0l0.02-0.01l0.01-0.01l0.02-0.01l0,0l0.01-0.01l0.02-0.01h0l0.02-0.01l0,0l0.02-0.01l0.02-0.01l0.02-0.01
			l0.02-0.01l0,0l0.02-0.01l0,0l0.02-0.01L15,27.53l0,0l0.02-0.01l0.02-0.01l0.02-0.01l0.02-0.01l0.02-0.01l0.02-0.01l0.02-0.01l0,0
			l0.02-0.01l0.02-0.01l0.02-0.01l0.02-0.01l0.02-0.01l0,0l0.02-0.01l0.02-0.01l0.02-0.01l0.02-0.01l0.02-0.01l0,0l0.02-0.01l0,0
			l0.02-0.01l0.02-0.01l0,0l0.02-0.01l0,0l0.02-0.01l0.02-0.01l0.02-0.01l0,0l0.02-0.01l0,0l0.02-0.01l0,0l0.02-0.01l0,0l0.04-0.03
			l0.04-0.03l0,0l0.04-0.03l0,0l0.06-0.04l0,0l0.02-0.01l0,0l0.03-0.02c0.09-0.07,0.19-0.14,0.28-0.2l0,0l0.04-0.03l0,0l0.04-0.02
			l0,0c0.04-0.03,0.07-0.05,0.11-0.08l0,0l0.04-0.02l0,0c0.04-0.03,0.07-0.05,0.11-0.07c0.02-0.01,0.05-0.03,0.07-0.05l0,0
			l0.04-0.02l0,0l0.04-0.02l0,0l0.04-0.02l0,0l0.04-0.02l0,0l0.04-0.02l0,0l0.04-0.02l0.04-0.02l0,0l0.04-0.02l0.04-0.03l0,0
			c0.01-0.01,0.02-0.01,0.04-0.02l0,0c0.01-0.01,0.02-0.02,0.04-0.02l0,0c0.01-0.01,0.03-0.01,0.04-0.02l0,0
			c0.01-0.01,0.03-0.02,0.04-0.02l0,0c0.01-0.01,0.03-0.01,0.04-0.02c0.01-0.01,0.02-0.01,0.04-0.02l0,0
			c0.01-0.01,0.02-0.01,0.04-0.02l0,0c0.01-0.01,0.03-0.01,0.04-0.02c0.01-0.01,0.03-0.01,0.04-0.02l0,0
			c0.01-0.01,0.03-0.01,0.04-0.02l0,0c0.01-0.01,0.03-0.01,0.04-0.02l0,0c0.01-0.01,0.03-0.01,0.04-0.02
			c0.01-0.01,0.03-0.01,0.04-0.02l0,0c0.01,0,0.03-0.01,0.04-0.01l0,0c0.01-0.01,0.03-0.01,0.04-0.01l0,0
			c0.01-0.01,0.03-0.01,0.04-0.02l0,0c0.01,0,0.03-0.01,0.04-0.01l0,0c0.01,0,0.03-0.01,0.04-0.01l0,0c0.01,0,0.03-0.01,0.04-0.01
			l0,0c0.01-0.01,0.03-0.01,0.04-0.01l0,0c0.01,0,0.03-0.01,0.04-0.01l0,0c0.01,0,0.03-0.01,0.04-0.01l0,0
			c0.03-0.01,0.05-0.01,0.08-0.02l0,0c0.01,0,0.03-0.01,0.04-0.01l0,0c0.05-0.01,0.11-0.02,0.17-0.03l0,0
			c0.1-0.01,0.2-0.02,0.3-0.02l0,0h0l0,0h0.01l0,0c0.16,0,0.31,0.02,0.46,0.05l0,0c0.07,0.01,0.14,0.03,0.21,0.05l0,0
			c0.03,0.01,0.05,0.02,0.08,0.03l0,0c0.03,0.01,0.05,0.02,0.08,0.03l0,0c0.04,0.01,0.08,0.03,0.12,0.05
			c0.01,0.01,0.03,0.01,0.04,0.02l0,0c0.01,0.01,0.03,0.01,0.04,0.02l0,0c0.04,0.02,0.08,0.04,0.12,0.05
			c0.01,0.01,0.03,0.01,0.04,0.02c0.01,0.01,0.03,0.01,0.04,0.02l0,0c0.01,0.01,0.03,0.01,0.04,0.02c0.01,0.01,0.02,0.01,0.04,0.02
			l0,0c0.01,0,0.02,0.01,0.04,0.02l0,0c0.01,0.01,0.03,0.01,0.04,0.02c0.01,0.01,0.03,0.01,0.04,0.02l0,0
			c0.01,0.01,0.03,0.01,0.04,0.02l0,0c0.01,0.01,0.02,0.02,0.04,0.03l0.04,0.02l0.04,0.02l0.04,0.02l0.04,0.02
			c0.01,0.01,0.03,0.02,0.04,0.02l0.04,0.02l0.04,0.02l0.04,0.02l0,0l0.04,0.03l0,0l0.04,0.02l0.04,0.03l0,0l0.04,0.02l0,0
			l0.04,0.03l0,0l0.04,0.02c0.02,0.02,0.05,0.04,0.07,0.05l0,0l0.04,0.03l0.04,0.02l0.04,0.03l0,0l0.03,0.02l0,0l0.04,0.03l0,0
			l0.04,0.02l0,0l0.04,0.03l0,0l0.07,0.05l0,0l0.03,0.03l0,0l0.03,0.03l0,0l0.02,0.01l0,0l0.02,0.01l0,0l0.02,0.01l0,0l0.02,0.01
			l0,0l0.02,0.01l0,0l0.02,0.01l0,0l0.02,0.01l0,0l0.02,0.01l0,0l0.02,0.01l0,0l0.02,0.01l0.02,0.01l0,0l0.02,0.01l0.02,0.01l0,0
			l0.02,0.01l0.02,0.01l0.02,0.01l0.02,0.01l0.02,0.01l0,0l0.02,0.01l0,0l0.02,0.01c0.02,0.01,0.04,0.03,0.06,0.04l0.02,0.01
			l0.02,0.01l0.02,0.01l0.02,0.01l0,0l0.02,0.01l0.02,0.01l0.02,0.01l0.02,0.01l0.02,0.01l0.02,0.01l0.02,0.01l0,0l0.02,0.01
			l0.02,0.01l0,0l0.02,0.01l0.02,0.01l0,0l0.02,0.01l0,0l0.02,0.01l0,0l0.02,0.01l0.01,0.01l0.02,0.01l0.02,0.01l0,0l0.02,0.01l0,0
			l0.02,0.01l0.01,0.01l0.02,0.01l0,0l0.01,0.01l0.02,0.01l0.01,0.01l0,0l0.01,0.01l0.01,0l0.01,0.01l0,0l0.01,0l0.01,0.01l0,0
			c0.01,0,0.01,0,0.01,0c0.01,0,0.01,0.01,0.01,0.01c0.01,0,0.01,0,0.01,0c0,0,0.01,0,0.01,0c0,0,0.01,0,0.01,0
			c0.01,0,0.01,0,0.01,0s0.01,0,0.01,0c0,0,0.01,0,0.01,0c0,0,0.01,0,0.01,0l0.01,0c0,0,0.01,0,0.01,0c0.01,0,0.01,0,0.01,0
			c0.01,0,0.01-0.01,0.01-0.01l0.01-0.01l0.01-0.01l0.02,0L22,27.65l0.01-0.01l0.01-0.01l0.02-0.01l0.02-0.01l0,0l0.02-0.01
			l0.02-0.01l0,0l0.02-0.01l0.02-0.01l0.02-0.01l0.02-0.01l0.02-0.01l0,0l0.02-0.01l0,0l0.02-0.01l0.02-0.01l0.02-0.01l0,0
			l0.02-0.01l0,0l0.02-0.01l0.02-0.01l0.02-0.01l0.02-0.01l0.02-0.01l0,0l0.02-0.01l0.02-0.01l0,0l0.02-0.01l0.02-0.01l0.02-0.01
			l0,0l0.02-0.01l0,0l0.02-0.01l0.02-0.01l0,0l0.02-0.01l0,0l0.02-0.02l0,0l0.02-0.01l0.02-0.01l0,0l0.02-0.01l0,0l0.02-0.01l0,0
			l0.02-0.01l0,0l0.02-0.01l0.02-0.01l0,0l0.02-0.01l0.02-0.01l0,0l0.02-0.01l0.02-0.01l0.02-0.01l0,0l0.02-0.01l0,0l0.02-0.01v0
			l0.02-0.01l0.02-0.01l0,0l0.02-0.01l0.02-0.01l0.02-0.01l0.02-0.01L23,27.03l0.02-0.01l0.02-0.01l0.02-0.01l0.04-0.02l0.04-0.03
			l0.04-0.02l0.04-0.03l0.04-0.03l0.04-0.02l0.04-0.03l0.04-0.02l0.04-0.03l0.04-0.02l0.04-0.03l0.04-0.02l0.04-0.02l0.04-0.03
			l0.04-0.02l0.04-0.02l0.04-0.02l0.04-0.02l0.04-0.03l0,0l0.04-0.02l0,0l0.04-0.02l0.04-0.02l0.04-0.02l0.04-0.02l0.04-0.02l0,0
			l0.04-0.02l0,0l0.04-0.02l0,0l0.04-0.02l0,0c0.01-0.01,0.03-0.01,0.04-0.02c0.01-0.01,0.02-0.01,0.04-0.02l0.04-0.02l0,0
			c0.01-0.01,0.02-0.01,0.04-0.02l0,0c0.01-0.01,0.03-0.01,0.04-0.02c0.01-0.01,0.02-0.01,0.04-0.02l0,0
			c0.01-0.01,0.03-0.01,0.04-0.02l0,0c0.01-0.01,0.03-0.01,0.04-0.02l0,0c0.01-0.01,0.02-0.01,0.04-0.02l0,0
			c0.01,0,0.03-0.01,0.04-0.02l0,0c0.01,0,0.03-0.01,0.04-0.01l0,0c0.01,0,0.03-0.01,0.04-0.02l0,0c0.01,0,0.03-0.01,0.04-0.01l0,0
			c0.01-0.01,0.03-0.01,0.04-0.02l0,0c0.01-0.01,0.02-0.01,0.04-0.02c0.01,0,0.03-0.01,0.04-0.01l0,0c0.01,0,0.03-0.01,0.04-0.01
			l0,0c0.01,0,0.03-0.01,0.04-0.01C24.8,26.01,24.81,26,24.82,26l0,0c0.01,0,0.02-0.01,0.04-0.01l0,0c0.01,0,0.03-0.01,0.04-0.01
			l0,0c0.01,0,0.03-0.01,0.04-0.01l0,0c0.01-0.01,0.03-0.01,0.04-0.01l0,0c0.01,0,0.02-0.01,0.04-0.01l0,0
			c0.01,0,0.02-0.01,0.04-0.01l0,0c0.01,0,0.02,0,0.04-0.01l0,0c0.01,0,0.02-0.01,0.04-0.01l0,0c0.01,0,0.02,0,0.04,0l0,0
			c0.01,0,0.03,0,0.04-0.01l0,0c0.01,0,0.03,0,0.04,0l0,0c0.01-0.01,0.03-0.01,0.04-0.01l0,0c0.01,0,0.03,0,0.04,0l0,0
			c0.01,0,0.02,0,0.04,0l0,0c0.01,0,0.03,0,0.04,0l0,0c0.01,0,0.02,0,0.04,0l0,0c0.01,0,0.03,0,0.04,0l0,0
			c0.09,0,0.18,0.01,0.27,0.02l0,0c0.01,0,0.03,0.01,0.04,0.01l0,0c0.02,0,0.05,0.01,0.07,0.01l0,0c0.03,0.01,0.05,0.01,0.08,0.01
			l0,0c0.01,0,0.02,0.01,0.04,0.01l0,0c0.03,0.01,0.05,0.01,0.08,0.02l0,0c0.01,0,0.02,0.01,0.04,0.01l0,0
			c0.01,0,0.03,0.01,0.04,0.01l0,0c0.01,0,0.03,0.01,0.04,0.01l0,0c0.03,0.01,0.05,0.02,0.08,0.03c0.01,0,0.02,0.01,0.04,0.01l0,0
			c0.01,0.01,0.03,0.01,0.04,0.01l0,0c0.03,0.01,0.05,0.02,0.08,0.03l0,0c0.02,0.01,0.05,0.02,0.07,0.03l0,0
			c0.01,0.01,0.03,0.01,0.04,0.02c0.01,0.01,0.03,0.01,0.04,0.02l0,0c0.01,0,0.03,0.01,0.04,0.02l0,0c0.01,0,0.02,0.01,0.04,0.01
			c0.01,0.01,0.03,0.01,0.04,0.02l0,0c0.03,0.01,0.05,0.02,0.07,0.04c0.01,0.01,0.03,0.01,0.04,0.02l0,0
			c0.01,0.01,0.02,0.01,0.04,0.02l0,0c0.01,0.01,0.02,0.01,0.04,0.02c0.01,0.01,0.02,0.01,0.04,0.02l0,0l0.04,0.02l0.04,0.02l0,0
			L27,26.38l0,0l0.04,0.02l0.04,0.02l0,0l0.04,0.02l0,0l0.04,0.02l0,0l0.04,0.02l0,0l0.04,0.02l0.04,0.02l0,0l0.04,0.02l0,0
			l0.03,0.02l0.04,0.02l0,0l0.04,0.03l0,0l0.04,0.02l0.04,0.02l0.04,0.03l0,0l0.04,0.03l0.04,0.02l0,0l0.04,0.02l0,0l0.04,0.02l0,0
			l0.04,0.02l0,0l0.04,0.03l0,0l0.04,0.02l0,0l0.04,0.03l0,0l0.04,0.03l0,0l0.04,0.02l0,0l0.02,0.01l0,0l0.02,0.01l0,0l0.02,0.01
			l0,0L27.98,27l0,0L28,27.02l0.01,0.01C27.67,27.4,27.31,27.75,26.94,28.09L26.94,28.09z M17.2,0C7.7,0,0,7.7,0,17.2
			c0,9.5,7.7,17.2,17.2,17.2c9.5,0,17.2-7.7,17.2-17.2C34.41,7.7,26.7,0,17.2,0L17.2,0z M17.2,1.28C8.41,1.28,1.28,8.41,1.28,17.2
			c0,8.79,7.13,15.92,15.92,15.92c8.79,0,15.92-7.13,15.92-15.92C33.12,8.41,25.99,1.28,17.2,1.28L17.2,1.28z M22.75,15.47
			c0-1.18-0.96-2.14-2.14-2.14c-1.18,0-2.14,0.96-2.14,2.14c0,1.18,0.96,2.14,2.14,2.14C21.79,17.61,22.75,16.65,22.75,15.47z"/>
	</g>
</g>
</svg>
