<?xml version="1.0" encoding="utf-8"?>
<!-- Generator: Adobe Illustrator 26.0.0, SVG Export Plug-In . SVG Version: 6.00 Build 0)  -->
<svg version="1.1" id="Capa_1" xmlns="http://www.w3.org/2000/svg" xmlns:xlink="http://www.w3.org/1999/xlink" x="0px" y="0px"
	 viewBox="0 0 39.79 39.79" style="enable-background:new 0 0 39.79 39.79;" xml:space="preserve">
<style type="text/css">
	.yyyttt{fill:#396BA4;}
</style>
<g>
	<g>
		<g>
			<rect x="30.87" y="17.34" class="yyyttt" width="3.5" height="5.11"/>
		</g>
		<g>
			<rect x="28.87" y="17.34" class="yyyttt" width="1.29" height="5.11"/>
		</g>
		<g>
			<rect x="5.42" y="17.34" class="yyyttt" width="22.74" height="5.11"/>
		</g>
	</g>
	<g>
		<path class="yyyttt" d="M19.89,39.79C8.92,39.79,0,30.86,0,19.89S8.92,0,19.89,0c10.97,0,19.89,8.92,19.89,19.89
			S30.86,39.79,19.89,39.79z M19.89,1.89c-9.93,0-18,8.08-18,18s8.08,18,18,18c9.93,0,18-8.08,18-18S29.82,1.89,19.89,1.89z"/>
	</g>
	<g>
		
			<rect x="18.95" y="0.95" transform="matrix(0.6836 -0.7298 0.7298 0.6836 -8.2207 20.8154)" class="yyyttt" width="1.89" height="37.89"/>
	</g>
</g>
</svg>
