<?xml version="1.0" encoding="utf-8"?>
<!-- Generator: Adobe Illustrator 26.0.0, SVG Export Plug-In . SVG Version: 6.00 Build 0)  -->
<svg version="1.1" id="Capa_1" xmlns="http://www.w3.org/2000/svg" xmlns:xlink="http://www.w3.org/1999/xlink" x="0px" y="0px"
	 viewBox="0 0 43.29 39.05" style="enable-background:new 0 0 43.29 39.05;" xml:space="preserve">
<style type="text/css">
	.yyyttt{fill:#396BA4;}
</style>
<g>
	<g>
		<path class="yyyttt" d="M20.02,22.62c0.35,0.95-0.12,2.02-1.07,2.38l0,0c-0.95,0.36-2-0.13-2.35-1.08L12.88,13.9
			c-0.35-0.95,0.12-2.02,1.07-2.38l0,0c0.95-0.36,2,0.13,2.35,1.08L20.02,22.62z"/>
		<g>
			<path class="yyyttt" d="M15.35,5.41c0,2.89-2.37,5.23-5.28,5.23c-2.92,0-5.28-2.34-5.28-5.23c0-2.89,2.37-5.23,5.28-5.23
				C12.99,0.18,15.35,2.52,15.35,5.41z"/>
		</g>
		<g>
			<path class="yyyttt" d="M15.53,25.53c0,1.09-0.89,1.98-1.98,1.98H6.58c-1.09,0-1.98-0.89-1.98-1.98V13.28
				c0-1.09,0.89-1.98,1.98-1.98h6.97c1.09,0,1.98,0.89,1.98,1.98V25.53z"/>
		</g>
		<g>
			<path class="yyyttt" d="M9.52,36.56c0,1.37-1.1,2.49-2.46,2.49l0,0c-1.36,0-2.46-1.11-2.46-2.49v-14.4c0-1.37,1.1-2.49,2.46-2.49
				l0,0c1.36,0,2.46,1.11,2.46,2.49V36.56z"/>
		</g>
		<g>
			<path class="yyyttt" d="M15.54,36.56c0,1.37-1.1,2.49-2.46,2.49l0,0c-1.36,0-2.46-1.11-2.46-2.49v-14.4c0-1.37,1.1-2.49,2.46-2.49
				l0,0c1.36,0,2.46,1.11,2.46,2.49V36.56z"/>
		</g>
		<g>
			<path class="yyyttt" d="M0.12,22.62c-0.35,0.95,0.12,2.02,1.07,2.38l0,0c0.95,0.36,2-0.13,2.35-1.08L7.26,13.9
				c0.35-0.95-0.12-2.02-1.07-2.38l0,0c-0.95-0.36-2,0.13-2.35,1.08L0.12,22.62z"/>
		</g>
	</g>
	<g>
		<g>
			
				<ellipse transform="matrix(0.2285 -0.9735 0.9735 0.2285 20.1071 35.9411)" class="yyyttt" cx="32.73" cy="5.28" rx="5.28" ry="5.28"/>
		</g>
		<g>
			<g>
				<path class="yyyttt" d="M32.4,36.49c0,1.36-0.85,2.46-1.89,2.46l0,0c-1.04,0-1.89-1.1-1.89-2.46V22.23c0-1.36,0.85-2.46,1.89-2.46
					l0,0c1.04,0,1.89,1.1,1.89,2.46V36.49z"/>
			</g>
			<g>
				<path class="yyyttt" d="M36.84,36.49c0,1.36-0.85,2.46-1.89,2.46l0,0c-1.04,0-1.89-1.1-1.89-2.46V22.23c0-1.36,0.85-2.46,1.89-2.46
					l0,0c1.04,0,1.89,1.1,1.89,2.46V36.49z"/>
			</g>
		</g>
		<g>
			<path class="yyyttt" d="M40.46,28.55c0.15,0.84-0.42,1.53-1.28,1.53H26.46c-0.86,0-1.42-0.69-1.25-1.53l2.87-16.1
				c0.17-0.84,1.01-1.12,1.87-1.12h6.13c0.86,0,1.69,0.28,1.84,1.12L40.46,28.55z"/>
		</g>
		<path class="yyyttt" d="M43.12,22.32c0.43,0.92,0.04,2.02-0.88,2.45l0,0c-0.91,0.43-2,0.03-2.43-0.89L35.3,14.2
			c-0.43-0.92-0.04-2.02,0.88-2.45l0,0c0.91-0.43,2-0.03,2.43,0.89L43.12,22.32z"/>
		<g>
			<path class="yyyttt" d="M22.47,22.25c-0.45,0.92-0.07,2.02,0.83,2.47l0,0c0.91,0.45,2,0.07,2.45-0.84l4.68-9.6
				c0.45-0.92,0.07-2.02-0.83-2.47l0,0c-0.91-0.45-2-0.07-2.45,0.84L22.47,22.25z"/>
		</g>
	</g>
</g>
</svg>
