<?xml version="1.0" encoding="utf-8"?>
<!-- Generator: Adobe Illustrator 26.0.0, SVG Export Plug-In . SVG Version: 6.00 Build 0)  -->
<svg version="1.1" id="Capa_1" xmlns="http://www.w3.org/2000/svg" xmlns:xlink="http://www.w3.org/1999/xlink" x="0px" y="0px"
	 viewBox="0 0 50 50" style="enable-background:new 0 0 50 50;" xml:space="preserve">
<style type="text/css">
	.st0265221{fill:#1A8235;}
	.st112650{fill:#FFFFFF;}
</style>
<g>
	<g>
		<path class="st0265221" d="M25,47.99C12.32,47.99,2,37.67,2,25C2,12.33,12.32,2.01,25,2.01c12.68,0,23,10.31,23,22.99
			C48,37.67,37.68,47.99,25,47.99z"/>
		<path class="st112650" d="M25,2.51c12.43,0,22.5,10.07,22.5,22.49c0,12.42-10.07,22.49-22.5,22.49S2.5,37.42,2.5,25
			C2.5,12.58,12.57,2.51,25,2.51 M25,1.51C12.04,1.51,1.5,12.05,1.5,25c0,12.95,10.54,23.49,23.5,23.49
			c12.96,0,23.5-10.54,23.5-23.49C48.5,12.05,37.96,1.51,25,1.51L25,1.51z"/>
	</g>
	<path id="WhatsApp_3_" class="st112650" d="M39.06,24.64c0,7.56-6.18,13.69-13.81,13.69c-2.42,0-4.69-0.62-6.68-1.7l-7.64,2.43
		l2.49-7.35c-1.26-2.06-1.98-4.48-1.98-7.07c0-7.56,6.18-13.69,13.81-13.69C32.88,10.94,39.06,17.08,39.06,24.64z M25.26,13.13
		c-6.4,0-11.61,5.16-11.61,11.51c0,2.52,0.82,4.85,2.21,6.75l-1.45,4.27l4.46-1.42c1.84,1.2,4.03,1.9,6.39,1.9
		c6.4,0,11.61-5.16,11.61-11.51C36.87,18.29,31.65,13.13,25.26,13.13z M32.23,27.79c-0.09-0.14-0.31-0.22-0.65-0.39
		c-0.34-0.17-2-0.98-2.31-1.09c-0.31-0.11-0.54-0.17-0.76,0.17c-0.22,0.34-0.87,1.09-1.07,1.32c-0.2,0.22-0.4,0.25-0.74,0.09
		c-0.34-0.17-1.43-0.52-2.72-1.67c-1.01-0.89-1.68-1.99-1.88-2.32c-0.2-0.34-0.02-0.52,0.15-0.69c0.15-0.15,0.34-0.39,0.51-0.59
		c0.17-0.19,0.23-0.34,0.34-0.56c0.12-0.22,0.06-0.42-0.03-0.59c-0.08-0.17-0.76-1.82-1.04-2.49c-0.28-0.67-0.56-0.56-0.76-0.56
		c-0.2,0-0.42-0.03-0.65-0.03c-0.23,0-0.59,0.08-0.9,0.42c-0.31,0.34-1.19,1.15-1.19,2.8c0,1.65,1.21,3.25,1.38,3.47
		c0.17,0.22,2.34,3.72,5.78,5.07c3.44,1.34,3.44,0.9,4.06,0.84c0.62-0.06,2-0.81,2.28-1.6C32.31,28.6,32.31,27.93,32.23,27.79
		L32.23,27.79z"/>
</g>
</svg>
