<?xml version="1.0" encoding="utf-8"?>
<!-- Generator: Adobe Illustrator 26.0.0, SVG Export Plug-In . SVG Version: 6.00 Build 0)  -->
<svg version="1.1" id="Capa_1" xmlns="http://www.w3.org/2000/svg" xmlns:xlink="http://www.w3.org/1999/xlink" x="0px" y="0px"
	 viewBox="0 0 25 25" style="enable-background:new 0 0 25 25;" xml:space="preserve">
<style type="text/css">
	.st0{fill:#396BA4;}
</style>
<path id="WhatsApp_00000183929465569361728040000012317843241148434618_" class="st0" d="M24.34,12.18
	c0,6.73-5.21,12.18-11.63,12.18c-2.04,0-3.95-0.55-5.62-1.51L0.66,25l2.1-6.53c-1.06-1.84-1.67-3.99-1.67-6.29
	C1.08,5.45,6.29,0,12.72,0C19.14,0,24.34,5.45,24.34,12.18z M12.72,1.94c-5.39,0-9.78,4.59-9.78,10.24c0,2.24,0.69,4.32,1.86,6
	l-1.22,3.8l3.76-1.26c1.55,1.07,3.39,1.69,5.38,1.69c5.39,0,9.78-4.59,9.78-10.24C22.49,6.53,18.1,1.94,12.72,1.94z M18.59,14.98
	c-0.07-0.12-0.26-0.2-0.55-0.35c-0.28-0.15-1.69-0.87-1.95-0.97c-0.26-0.1-0.45-0.15-0.64,0.15c-0.19,0.3-0.74,0.97-0.9,1.17
	c-0.17,0.2-0.33,0.22-0.62,0.08c-0.28-0.15-1.2-0.47-2.29-1.48c-0.85-0.79-1.42-1.77-1.58-2.07c-0.17-0.3-0.02-0.46,0.12-0.61
	c0.13-0.13,0.29-0.35,0.43-0.52c0.14-0.17,0.19-0.3,0.28-0.5c0.1-0.2,0.05-0.37-0.02-0.52c-0.07-0.15-0.64-1.62-0.88-2.21
	c-0.24-0.6-0.47-0.5-0.64-0.5c-0.17,0-0.35-0.03-0.55-0.03c-0.19,0-0.5,0.07-0.76,0.37c-0.26,0.3-1,1.02-1,2.49
	c0,1.47,1.02,2.89,1.16,3.09c0.14,0.2,1.97,3.31,4.87,4.51c2.9,1.19,2.9,0.8,3.42,0.75c0.52-0.05,1.69-0.72,1.92-1.42
	C18.66,15.71,18.66,15.11,18.59,14.98L18.59,14.98z"/>
</svg>
