<?xml version="1.0" encoding="utf-8"?>
<!-- Generator: Adobe Illustrator 26.0.0, SVG Export Plug-In . SVG Version: 6.00 Build 0)  -->
<svg version="1.1" id="Capa_1" xmlns="http://www.w3.org/2000/svg" xmlns:xlink="http://www.w3.org/1999/xlink" x="0px" y="0px"
	 viewBox="0 0 109.81 17.17" style="enable-background:new 0 0 109.81 17.17;" xml:space="preserve">
<style type="text/css">
	.st0{fill:#3573AF;}
</style>
<path class="st0" d="M0.43,0C0.29,0.22,0.14,0.44,0,0.66c4.76,3.01,9.54,6,14.28,9.04c7.42,4.74,15.55,7,24.33,6.94
	c2.62-0.02,5.24-0.18,7.85-0.39c14.71-1.23,29.4-2.84,44.21-2.51c5.72,0.13,11.27,0.77,16.58,2.97c0.78,0.32,1.7,0.32,2.55,0.47
	c-3.2-2.11-6.54-3.76-10.01-5.03C92.84,9.6,85.51,8.88,78.2,9.09c-11.17,0.32-22.33,1.08-33.48,1.79
	c-10.19,0.64-20.16-0.47-29.71-4.02C9.99,4.99,5.28,2.31,0.43,0z"/>
</svg>
