<?xml version="1.0" encoding="utf-8"?>
<!-- Generator: Adobe Illustrator 26.0.0, SVG Export Plug-In . SVG Version: 6.00 Build 0)  -->
<svg version="1.1" id="Capa_1" xmlns="http://www.w3.org/2000/svg" xmlns:xlink="http://www.w3.org/1999/xlink" x="0px" y="0px"
	 viewBox="0 0 50 50" style="enable-background:new 0 0 50 50;" xml:space="preserve">
<style type="text/css">
	.st0{fill:url(#SVGID_1_);}
	.st1{fill:#FFFFFF;}
</style>
<linearGradient id="SVGID_1_" gradientUnits="userSpaceOnUse" x1="-50" y1="75" x2="0" y2="75" gradientTransform="matrix(1 0 0 1 50 -50)">
	<stop  offset="1" style="stop-color:#3573AF"/>
	<stop  offset="1" style="stop-color:#3573AF;stop-opacity:0.0363"/>
</linearGradient>
<circle class="st0" cx="25" cy="25" r="25"/>
<g>
	<g>
		<path class="st1" d="M5.06,30.38c-0.19,0.22-0.46,0.34-0.81,0.34c-0.16,0-0.31-0.03-0.43-0.1c-0.13-0.07-0.23-0.15-0.32-0.24
			c0,0.08-0.01,0.14-0.04,0.21c-0.03,0.06-0.08,0.09-0.15,0.09c-0.07,0-0.11-0.02-0.14-0.07c-0.02-0.05-0.04-0.11-0.04-0.17v-2.76
			l-0.47,0.12c-0.01,0-0.01,0-0.01,0c0,0,0,0-0.01,0c-0.04,0-0.08-0.02-0.11-0.05c-0.03-0.04-0.05-0.07-0.05-0.11
			c0-0.06,0.01-0.09,0.04-0.11c0.03-0.02,0.07-0.03,0.11-0.05l0.76-0.22c0,0,0.01,0,0.01,0c0,0,0.01,0,0.02,0
			c0.03,0,0.05,0.01,0.07,0.03c0.02,0.02,0.03,0.04,0.03,0.07v1.29c0.09-0.09,0.2-0.16,0.31-0.22c0.11-0.06,0.25-0.08,0.41-0.08
			c0.33,0,0.6,0.11,0.8,0.34c0.2,0.23,0.29,0.51,0.29,0.85C5.36,29.87,5.26,30.15,5.06,30.38z M4.75,28.92
			c-0.11-0.17-0.28-0.26-0.5-0.26c-0.16,0-0.3,0.02-0.41,0.07c-0.12,0.05-0.21,0.11-0.29,0.2v1.1c0.07,0.1,0.16,0.19,0.27,0.25
			c0.11,0.07,0.25,0.1,0.41,0.1c0.23,0,0.4-0.09,0.52-0.26c0.12-0.17,0.17-0.37,0.17-0.6C4.92,29.29,4.86,29.09,4.75,28.92z"/>
		<path class="st1" d="M7.24,28.68c-0.16,0-0.3,0.03-0.42,0.1c-0.12,0.07-0.22,0.15-0.28,0.25v1.29h0.53c0.05,0,0.09,0.02,0.11,0.05
			c0.02,0.04,0.03,0.08,0.03,0.13c0,0.04-0.01,0.08-0.04,0.12c-0.03,0.03-0.06,0.05-0.11,0.05h-1.3c-0.06,0-0.1-0.02-0.12-0.05
			c-0.03-0.03-0.04-0.07-0.04-0.12c0-0.05,0.01-0.09,0.04-0.13c0.02-0.03,0.06-0.05,0.11-0.05h0.39v-1.59L5.85,28.8
			c0,0-0.01,0-0.01,0c0,0-0.01,0-0.02,0c-0.04,0-0.08-0.02-0.11-0.05c-0.03-0.03-0.05-0.07-0.05-0.11c0-0.04,0.01-0.08,0.03-0.11
			c0.02-0.03,0.05-0.05,0.08-0.06l0.55-0.16c0.01,0,0.01,0,0.01,0s0,0,0.01,0h0.01c0.03,0,0.05,0.01,0.07,0.02
			c0.02,0.02,0.03,0.04,0.03,0.07l0.04,0.37c0.09-0.14,0.21-0.25,0.36-0.33c0.15-0.09,0.34-0.13,0.57-0.13
			c0.04,0,0.08,0.01,0.12,0.04c0.03,0.03,0.05,0.06,0.05,0.11v0.42c0,0.06-0.02,0.1-0.05,0.12c-0.03,0.03-0.07,0.04-0.12,0.04
			c-0.05,0-0.09-0.01-0.13-0.04c-0.03-0.02-0.05-0.06-0.05-0.11V28.68z"/>
		<path class="st1" d="M7.93,30.38c0.02-0.03,0.06-0.05,0.11-0.05h0.27v-1.6L8.03,28.8c0,0-0.01,0-0.01,0c0,0-0.01,0-0.02,0
			c-0.04,0-0.08-0.02-0.11-0.05c-0.03-0.03-0.05-0.07-0.05-0.11c0-0.04,0.01-0.08,0.03-0.11c0.02-0.03,0.05-0.05,0.08-0.06
			l0.63-0.16c0,0,0.01,0,0.01,0c0.01,0,0.01,0,0.02,0c0.03,0,0.05,0.01,0.07,0.02c0.02,0.02,0.03,0.04,0.03,0.07v1.91h0.3
			c0.05,0,0.09,0.02,0.11,0.05c0.02,0.04,0.03,0.08,0.03,0.13c0,0.04-0.01,0.08-0.04,0.11s-0.06,0.05-0.11,0.05H8.06
			c-0.06,0-0.1-0.01-0.12-0.04c-0.03-0.03-0.04-0.07-0.04-0.12C7.89,30.45,7.91,30.41,7.93,30.38z M8.29,27.75
			c-0.06-0.06-0.09-0.13-0.09-0.21c0-0.08,0.03-0.15,0.09-0.21c0.06-0.06,0.13-0.09,0.21-0.09c0.08,0,0.15,0.03,0.21,0.09
			c0.06,0.06,0.09,0.13,0.09,0.21c0,0.08-0.03,0.15-0.09,0.21c-0.06,0.06-0.13,0.09-0.21,0.09C8.42,27.84,8.35,27.81,8.29,27.75z"/>
		<path class="st1" d="M9.83,28.46c0.18-0.09,0.38-0.13,0.58-0.13c0.13,0,0.27,0.03,0.4,0.08c0.13,0.06,0.22,0.13,0.27,0.21l0-0.17
			c0-0.04,0.01-0.07,0.04-0.1c0.03-0.02,0.06-0.04,0.1-0.04c0.06,0,0.1,0.01,0.13,0.04c0.03,0.03,0.04,0.06,0.04,0.11l-0.01,0.57
			c-0.01,0.04-0.02,0.08-0.05,0.1c-0.03,0.02-0.07,0.03-0.11,0.03c-0.04,0-0.07-0.01-0.09-0.04c-0.01-0.03-0.03-0.06-0.04-0.11
			c-0.04-0.14-0.14-0.24-0.28-0.32c-0.14-0.07-0.28-0.11-0.42-0.11c-0.12,0-0.23,0.02-0.32,0.07c-0.09,0.05-0.14,0.12-0.14,0.21
			c0,0.08,0.03,0.15,0.08,0.19c0.05,0.05,0.14,0.08,0.26,0.11l0.5,0.17c0.18,0.06,0.34,0.13,0.48,0.22
			c0.14,0.09,0.22,0.25,0.22,0.47c0,0.22-0.07,0.38-0.22,0.5c-0.15,0.11-0.36,0.17-0.63,0.17c-0.14,0-0.3-0.02-0.46-0.07
			c-0.17-0.05-0.29-0.11-0.36-0.19c0,0.09-0.02,0.15-0.05,0.17c-0.03,0.03-0.07,0.04-0.11,0.04c-0.05,0-0.09-0.01-0.13-0.03
			c-0.03-0.02-0.05-0.06-0.05-0.11v-0.67c0-0.04,0.02-0.07,0.05-0.09c0.03-0.02,0.06-0.03,0.1-0.03c0.06,0,0.1,0.01,0.12,0.04
			c0.02,0.03,0.04,0.07,0.05,0.12c0.04,0.18,0.13,0.31,0.28,0.4c0.15,0.09,0.33,0.13,0.54,0.13c0.13,0,0.24-0.02,0.33-0.07
			c0.09-0.05,0.14-0.13,0.14-0.24c0-0.11-0.03-0.19-0.08-0.24s-0.15-0.1-0.28-0.14l-0.54-0.17c-0.17-0.05-0.31-0.12-0.44-0.21
			c-0.13-0.09-0.19-0.22-0.19-0.39C9.56,28.71,9.65,28.54,9.83,28.46z"/>
		<path class="st1" d="M14.12,30.61c-0.14,0.07-0.25,0.11-0.34,0.11c-0.11,0-0.19-0.03-0.26-0.08c-0.07-0.05-0.11-0.13-0.13-0.24
			c-0.1,0.11-0.22,0.19-0.38,0.24s-0.32,0.08-0.5,0.08c-0.2,0-0.37-0.06-0.5-0.18c-0.13-0.12-0.2-0.28-0.2-0.48
			c0-0.35,0.17-0.57,0.52-0.64c0.34-0.08,0.68-0.13,1.01-0.16v-0.32c0-0.1-0.04-0.17-0.13-0.21c-0.09-0.04-0.18-0.06-0.28-0.06
			c-0.18,0-0.32,0.02-0.42,0.06c-0.1,0.04-0.21,0.1-0.33,0.18c-0.01,0.01-0.02,0.01-0.03,0.02c-0.01,0-0.02,0.01-0.03,0.01
			c-0.04,0-0.08-0.02-0.12-0.06c-0.04-0.04-0.05-0.09-0.05-0.13c0-0.16,0.12-0.26,0.35-0.32c0.23-0.05,0.43-0.08,0.59-0.08
			c0.33,0,0.56,0.07,0.68,0.21c0.12,0.14,0.18,0.38,0.18,0.71v0.99c0,0.04,0.01,0.07,0.02,0.1c0.01,0.03,0.04,0.04,0.07,0.04
			c0.06,0,0.13-0.04,0.2-0.11c0.07-0.07,0.13-0.11,0.18-0.11c0.03,0,0.06,0.02,0.09,0.06c0.03,0.04,0.05,0.08,0.05,0.11
			C14.33,30.44,14.26,30.53,14.12,30.61z M13.33,29.55c-0.21,0.02-0.44,0.06-0.71,0.1c-0.26,0.05-0.4,0.18-0.4,0.4
			c0,0.11,0.04,0.19,0.12,0.25c0.08,0.05,0.18,0.08,0.3,0.08c0.14,0,0.26-0.02,0.38-0.07c0.11-0.05,0.22-0.11,0.31-0.18V29.55z"/>
		<path class="st1" d="M14.88,28.46c0.18-0.09,0.38-0.13,0.58-0.13c0.13,0,0.27,0.03,0.4,0.08c0.13,0.06,0.22,0.13,0.27,0.21l0-0.17
			c0-0.04,0.01-0.07,0.04-0.1c0.03-0.02,0.06-0.04,0.1-0.04c0.06,0,0.1,0.01,0.13,0.04c0.03,0.03,0.04,0.06,0.04,0.11l-0.01,0.57
			c-0.01,0.04-0.02,0.08-0.05,0.1c-0.03,0.02-0.07,0.03-0.11,0.03c-0.04,0-0.07-0.01-0.09-0.04c-0.01-0.03-0.03-0.06-0.04-0.11
			c-0.04-0.14-0.14-0.24-0.28-0.32c-0.14-0.07-0.28-0.11-0.42-0.11c-0.12,0-0.23,0.02-0.32,0.07c-0.09,0.05-0.14,0.12-0.14,0.21
			c0,0.08,0.03,0.15,0.08,0.19c0.05,0.05,0.14,0.08,0.26,0.11l0.5,0.17c0.18,0.06,0.34,0.13,0.48,0.22
			c0.14,0.09,0.22,0.25,0.22,0.47c0,0.22-0.07,0.38-0.22,0.5c-0.15,0.11-0.36,0.17-0.63,0.17c-0.14,0-0.3-0.02-0.46-0.07
			c-0.17-0.05-0.29-0.11-0.36-0.19c0,0.09-0.02,0.15-0.05,0.17c-0.03,0.03-0.07,0.04-0.11,0.04c-0.05,0-0.09-0.01-0.13-0.03
			c-0.03-0.02-0.05-0.06-0.05-0.11v-0.67c0-0.04,0.02-0.07,0.05-0.09c0.03-0.02,0.06-0.03,0.1-0.03c0.06,0,0.1,0.01,0.12,0.04
			c0.02,0.03,0.04,0.07,0.05,0.12c0.04,0.18,0.13,0.31,0.28,0.4c0.15,0.09,0.33,0.13,0.54,0.13c0.13,0,0.24-0.02,0.33-0.07
			c0.09-0.05,0.14-0.13,0.14-0.24c0-0.11-0.03-0.19-0.08-0.24c-0.05-0.05-0.15-0.1-0.28-0.14l-0.54-0.17
			c-0.17-0.05-0.31-0.12-0.44-0.21c-0.13-0.09-0.19-0.22-0.19-0.39C14.61,28.71,14.7,28.54,14.88,28.46z"/>
		<path class="st1" d="M18.09,28.67c0.2-0.23,0.46-0.35,0.8-0.35c0.16,0,0.29,0.02,0.41,0.07c0.11,0.05,0.22,0.11,0.31,0.19v-0.93
			l-0.47,0.12c-0.01,0-0.01,0-0.01,0c0,0,0,0-0.01,0c-0.04,0-0.08-0.02-0.11-0.05c-0.03-0.04-0.05-0.07-0.05-0.11
			c0-0.06,0.01-0.09,0.04-0.11c0.03-0.02,0.07-0.03,0.11-0.05l0.76-0.22c0,0,0.01,0,0.01,0c0.01,0,0.01,0,0.02,0
			c0.03,0,0.05,0.01,0.07,0.03c0.02,0.02,0.03,0.04,0.03,0.07v2.99l0.29-0.04c0.01,0,0.01,0,0.02,0c0.01,0,0.02,0,0.03,0
			c0.05,0,0.09,0.01,0.13,0.04c0.03,0.02,0.05,0.06,0.05,0.1c0,0.1-0.06,0.16-0.17,0.18c-0.12,0.02-0.22,0.03-0.3,0.04
			c-0.05,0.01-0.11,0.02-0.17,0.03s-0.12,0.02-0.16,0.02c-0.05,0-0.08-0.02-0.09-0.05c-0.01-0.03-0.02-0.07-0.02-0.11v-0.13
			c-0.07,0.09-0.17,0.17-0.3,0.24c-0.12,0.07-0.26,0.1-0.41,0.1c-0.35,0-0.62-0.11-0.81-0.34c-0.19-0.23-0.29-0.51-0.29-0.86
			C17.79,29.18,17.89,28.9,18.09,28.67z M18.41,30.12c0.12,0.17,0.29,0.26,0.52,0.26c0.16,0,0.29-0.03,0.41-0.1
			c0.11-0.07,0.21-0.15,0.28-0.25v-1.1c-0.08-0.08-0.18-0.15-0.3-0.2c-0.12-0.05-0.25-0.07-0.4-0.07c-0.22,0-0.39,0.09-0.5,0.26
			c-0.11,0.18-0.17,0.37-0.17,0.6C18.23,29.75,18.29,29.95,18.41,30.12z"/>
		<path class="st1" d="M21.17,29.54c0,0.26,0.08,0.47,0.24,0.6c0.16,0.14,0.36,0.21,0.59,0.21c0.17,0,0.3-0.03,0.39-0.09
			c0.1-0.06,0.19-0.13,0.27-0.21c0.02-0.02,0.04-0.03,0.06-0.04C22.76,30,22.78,30,22.8,30c0.05,0,0.1,0.02,0.13,0.05
			c0.04,0.03,0.06,0.08,0.06,0.13c0,0.17-0.12,0.3-0.37,0.4c-0.24,0.1-0.46,0.14-0.64,0.14c-0.36,0-0.66-0.11-0.89-0.32
			c-0.23-0.21-0.35-0.5-0.35-0.86c0-0.36,0.11-0.65,0.32-0.87c0.21-0.22,0.5-0.34,0.87-0.34c0.26,0,0.5,0.09,0.72,0.28
			c0.22,0.19,0.33,0.42,0.33,0.72c0,0.1-0.03,0.16-0.09,0.18c-0.06,0.02-0.14,0.03-0.23,0.04H21.17z M22.32,28.78
			c-0.12-0.08-0.24-0.12-0.38-0.12c-0.23,0-0.42,0.06-0.55,0.17c-0.14,0.11-0.21,0.26-0.23,0.45h1.19c0.04,0,0.07-0.01,0.1-0.02
			c0.03-0.01,0.05-0.04,0.05-0.07C22.49,28.99,22.43,28.85,22.32,28.78z"/>
		<path class="st1" d="M25.19,27.26c0.02,0.02,0.03,0.04,0.03,0.07v2.99h0.48c0.05,0,0.09,0.02,0.11,0.05
			c0.02,0.04,0.03,0.08,0.03,0.13c0,0.04-0.01,0.08-0.04,0.12c-0.03,0.03-0.06,0.05-0.11,0.05h-1.32c-0.06,0-0.1-0.02-0.12-0.05
			c-0.03-0.03-0.04-0.07-0.04-0.12c0-0.05,0.01-0.09,0.04-0.13c0.02-0.03,0.06-0.05,0.11-0.05h0.45v-2.66l-0.46,0.12
			c-0.01,0-0.01,0-0.01,0c0,0,0,0-0.01,0c-0.04,0-0.08-0.02-0.11-0.05c-0.03-0.04-0.05-0.07-0.05-0.11c0-0.06,0.01-0.09,0.04-0.11
			c0.03-0.02,0.07-0.03,0.11-0.05l0.76-0.22c0,0,0.01,0,0.01,0c0,0,0.01,0,0.02,0C25.15,27.24,25.17,27.25,25.19,27.26z"/>
		<path class="st1" d="M28.34,30.61c-0.14,0.07-0.25,0.11-0.34,0.11c-0.11,0-0.19-0.03-0.26-0.08c-0.07-0.05-0.11-0.13-0.13-0.24
			c-0.1,0.11-0.22,0.19-0.38,0.24c-0.16,0.05-0.32,0.08-0.5,0.08c-0.2,0-0.37-0.06-0.5-0.18c-0.13-0.12-0.2-0.28-0.2-0.48
			c0-0.35,0.17-0.57,0.52-0.64c0.34-0.08,0.68-0.13,1.01-0.16v-0.32c0-0.1-0.04-0.17-0.13-0.21s-0.18-0.06-0.28-0.06
			c-0.18,0-0.32,0.02-0.42,0.06c-0.1,0.04-0.21,0.1-0.33,0.18c-0.01,0.01-0.02,0.01-0.03,0.02c-0.01,0-0.02,0.01-0.03,0.01
			c-0.04,0-0.08-0.02-0.12-0.06c-0.04-0.04-0.05-0.09-0.05-0.13c0-0.16,0.12-0.26,0.35-0.32c0.23-0.05,0.43-0.08,0.59-0.08
			c0.33,0,0.56,0.07,0.68,0.21c0.12,0.14,0.18,0.38,0.18,0.71v0.99c0,0.04,0.01,0.07,0.02,0.1c0.01,0.03,0.04,0.04,0.07,0.04
			c0.06,0,0.13-0.04,0.2-0.11c0.07-0.07,0.13-0.11,0.18-0.11c0.03,0,0.06,0.02,0.09,0.06c0.03,0.04,0.05,0.08,0.05,0.11
			C28.55,30.44,28.48,30.53,28.34,30.61z M27.55,29.55c-0.21,0.02-0.44,0.06-0.71,0.1c-0.26,0.05-0.4,0.18-0.4,0.4
			c0,0.11,0.04,0.19,0.12,0.25c0.08,0.05,0.18,0.08,0.3,0.08c0.14,0,0.26-0.02,0.38-0.07c0.11-0.05,0.22-0.11,0.31-0.18V29.55z"/>
		<path class="st1" d="M31.91,30.38c-0.21,0.22-0.48,0.34-0.83,0.34c-0.16,0-0.3-0.02-0.42-0.07c-0.12-0.05-0.23-0.11-0.32-0.19v1
			h0.4c0.05,0,0.09,0.02,0.11,0.06c0.02,0.04,0.03,0.08,0.03,0.13c0,0.04-0.01,0.08-0.04,0.11s-0.06,0.05-0.11,0.05H29.7
			c-0.06,0-0.1-0.02-0.12-0.05c-0.03-0.03-0.04-0.07-0.04-0.12c0-0.05,0.01-0.09,0.04-0.13c0.02-0.03,0.06-0.05,0.11-0.05h0.25
			v-2.72l-0.28,0.07c0,0-0.01,0-0.01,0c-0.01,0-0.01,0-0.02,0c-0.04,0-0.08-0.02-0.11-0.05c-0.03-0.03-0.05-0.07-0.05-0.11
			c0-0.04,0.01-0.08,0.03-0.11c0.02-0.03,0.05-0.05,0.08-0.06l0.55-0.16c0.01,0,0.01,0,0.01,0c0,0,0,0,0.01,0h0.01
			c0.03,0,0.05,0.01,0.07,0.02c0.02,0.02,0.03,0.04,0.03,0.07l0.04,0.37c0.06-0.13,0.17-0.24,0.32-0.33
			c0.15-0.09,0.32-0.13,0.51-0.13c0.34,0,0.61,0.11,0.81,0.34c0.19,0.23,0.29,0.51,0.29,0.86C32.22,29.87,32.12,30.16,31.91,30.38z
			 M31.61,28.91c-0.12-0.17-0.29-0.26-0.52-0.26c-0.17,0-0.32,0.03-0.45,0.1c-0.13,0.07-0.23,0.15-0.31,0.26v1.1
			c0.08,0.08,0.19,0.15,0.31,0.2c0.12,0.05,0.27,0.07,0.43,0.07c0.23,0,0.4-0.09,0.52-0.26c0.12-0.17,0.18-0.37,0.18-0.6
			C31.78,29.29,31.72,29.08,31.61,28.91z"/>
		<path class="st1" d="M32.91,29.54c0,0.26,0.08,0.47,0.24,0.6c0.16,0.14,0.36,0.21,0.59,0.21c0.17,0,0.3-0.03,0.39-0.09
			c0.1-0.06,0.19-0.13,0.27-0.21c0.02-0.02,0.04-0.03,0.06-0.04C34.5,30,34.53,30,34.55,30c0.05,0,0.1,0.02,0.13,0.05
			s0.06,0.08,0.06,0.13c0,0.17-0.12,0.3-0.37,0.4c-0.24,0.1-0.46,0.14-0.64,0.14c-0.36,0-0.66-0.11-0.89-0.32
			c-0.23-0.21-0.35-0.5-0.35-0.86c0-0.36,0.11-0.65,0.32-0.87c0.21-0.22,0.51-0.34,0.87-0.34c0.26,0,0.5,0.09,0.72,0.28
			c0.22,0.19,0.33,0.42,0.33,0.72c0,0.1-0.03,0.16-0.09,0.18c-0.06,0.02-0.14,0.03-0.23,0.04H32.91z M34.07,28.78
			c-0.12-0.08-0.24-0.12-0.38-0.12c-0.23,0-0.42,0.06-0.55,0.17c-0.14,0.11-0.21,0.26-0.23,0.45h1.19c0.04,0,0.07-0.01,0.1-0.02
			c0.03-0.01,0.05-0.04,0.05-0.07C34.24,28.99,34.18,28.85,34.07,28.78z"/>
		<path class="st1" d="M35.36,28.67c0.2-0.23,0.46-0.35,0.8-0.35c0.16,0,0.29,0.02,0.41,0.07c0.11,0.05,0.22,0.11,0.31,0.19v-0.93
			l-0.47,0.12c-0.01,0-0.01,0-0.01,0c0,0,0,0-0.01,0c-0.04,0-0.08-0.02-0.11-0.05c-0.03-0.04-0.05-0.07-0.05-0.11
			c0-0.06,0.01-0.09,0.04-0.11c0.03-0.02,0.07-0.03,0.11-0.05l0.76-0.22c0,0,0.01,0,0.01,0c0.01,0,0.01,0,0.02,0
			c0.03,0,0.05,0.01,0.07,0.03c0.02,0.02,0.03,0.04,0.03,0.07v2.99l0.29-0.04c0.01,0,0.01,0,0.02,0c0.01,0,0.02,0,0.03,0
			c0.05,0,0.09,0.01,0.13,0.04c0.03,0.02,0.05,0.06,0.05,0.1c0,0.1-0.06,0.16-0.17,0.18c-0.12,0.02-0.22,0.03-0.3,0.04
			c-0.05,0.01-0.11,0.02-0.17,0.03c-0.06,0.01-0.12,0.02-0.16,0.02c-0.05,0-0.08-0.02-0.09-0.05c-0.01-0.03-0.02-0.07-0.02-0.11
			v-0.13c-0.07,0.09-0.17,0.17-0.3,0.24c-0.12,0.07-0.26,0.1-0.41,0.1c-0.35,0-0.62-0.11-0.81-0.34c-0.19-0.23-0.29-0.51-0.29-0.86
			C35.07,29.18,35.17,28.9,35.36,28.67z M35.68,30.12c0.12,0.17,0.29,0.26,0.52,0.26c0.16,0,0.29-0.03,0.41-0.1
			c0.11-0.07,0.21-0.15,0.28-0.25v-1.1c-0.08-0.08-0.18-0.15-0.3-0.2c-0.12-0.05-0.25-0.07-0.4-0.07c-0.22,0-0.39,0.09-0.5,0.26
			s-0.17,0.37-0.17,0.6C35.51,29.75,35.56,29.95,35.68,30.12z"/>
		<path class="st1" d="M39.63,28.68c-0.16,0-0.3,0.03-0.42,0.1c-0.12,0.07-0.22,0.15-0.28,0.25v1.29h0.53
			c0.05,0,0.09,0.02,0.11,0.05c0.02,0.04,0.03,0.08,0.03,0.13c0,0.04-0.01,0.08-0.04,0.12c-0.03,0.03-0.06,0.05-0.11,0.05h-1.3
			c-0.06,0-0.1-0.02-0.12-0.05c-0.03-0.03-0.04-0.07-0.04-0.12c0-0.05,0.01-0.09,0.04-0.13c0.02-0.03,0.06-0.05,0.11-0.05h0.39
			v-1.59l-0.28,0.07c0,0-0.01,0-0.01,0c0,0-0.01,0-0.02,0c-0.04,0-0.08-0.02-0.11-0.05c-0.03-0.03-0.05-0.07-0.05-0.11
			c0-0.04,0.01-0.08,0.03-0.11c0.02-0.03,0.05-0.05,0.08-0.06l0.55-0.16c0.01,0,0.01,0,0.01,0c0,0,0,0,0.01,0h0.01
			c0.03,0,0.05,0.01,0.07,0.02c0.02,0.02,0.03,0.04,0.03,0.07l0.04,0.37c0.09-0.14,0.21-0.25,0.36-0.33
			c0.15-0.09,0.34-0.13,0.57-0.13c0.04,0,0.08,0.01,0.12,0.04c0.03,0.03,0.05,0.06,0.05,0.11v0.42c0,0.06-0.02,0.1-0.05,0.12
			c-0.03,0.03-0.07,0.04-0.12,0.04c-0.05,0-0.09-0.01-0.13-0.04c-0.03-0.02-0.05-0.06-0.05-0.11V28.68z"/>
		<path class="st1" d="M40.64,29.54c0,0.26,0.08,0.47,0.24,0.6c0.16,0.14,0.36,0.21,0.59,0.21c0.17,0,0.3-0.03,0.39-0.09
			c0.1-0.06,0.19-0.13,0.27-0.21c0.02-0.02,0.04-0.03,0.06-0.04C42.23,30,42.25,30,42.27,30c0.05,0,0.1,0.02,0.13,0.05
			s0.06,0.08,0.06,0.13c0,0.17-0.12,0.3-0.37,0.4c-0.24,0.1-0.46,0.14-0.64,0.14c-0.36,0-0.66-0.11-0.89-0.32
			c-0.23-0.21-0.35-0.5-0.35-0.86c0-0.36,0.11-0.65,0.32-0.87c0.21-0.22,0.51-0.34,0.87-0.34c0.26,0,0.5,0.09,0.72,0.28
			c0.22,0.19,0.33,0.42,0.33,0.72c0,0.1-0.03,0.16-0.09,0.18c-0.06,0.02-0.14,0.03-0.23,0.04H40.64z M41.79,28.78
			c-0.12-0.08-0.24-0.12-0.38-0.12c-0.23,0-0.42,0.06-0.55,0.17c-0.14,0.11-0.21,0.26-0.23,0.45h1.19c0.04,0,0.07-0.01,0.1-0.02
			c0.03-0.01,0.05-0.04,0.05-0.07C41.96,28.99,41.9,28.85,41.79,28.78z"/>
		<path class="st1" d="M44.4,28.68c-0.16,0-0.3,0.03-0.42,0.1c-0.12,0.07-0.22,0.15-0.28,0.25v1.29h0.53c0.05,0,0.09,0.02,0.11,0.05
			c0.02,0.04,0.03,0.08,0.03,0.13c0,0.04-0.01,0.08-0.04,0.12c-0.03,0.03-0.06,0.05-0.11,0.05h-1.3c-0.06,0-0.1-0.02-0.12-0.05
			c-0.03-0.03-0.04-0.07-0.04-0.12c0-0.05,0.01-0.09,0.04-0.13c0.02-0.03,0.06-0.05,0.11-0.05h0.39v-1.59l-0.28,0.07
			c0,0-0.01,0-0.01,0s-0.01,0-0.02,0c-0.04,0-0.08-0.02-0.11-0.05c-0.03-0.03-0.05-0.07-0.05-0.11c0-0.04,0.01-0.08,0.03-0.11
			c0.02-0.03,0.05-0.05,0.08-0.06l0.55-0.16c0.01,0,0.01,0,0.01,0c0,0,0,0,0.01,0h0.01c0.03,0,0.05,0.01,0.07,0.02
			c0.02,0.02,0.03,0.04,0.03,0.07l0.04,0.37c0.09-0.14,0.21-0.25,0.36-0.33s0.34-0.13,0.57-0.13c0.04,0,0.08,0.01,0.12,0.04
			c0.03,0.03,0.05,0.06,0.05,0.11v0.42c0,0.06-0.02,0.1-0.05,0.12c-0.03,0.03-0.07,0.04-0.12,0.04c-0.05,0-0.09-0.01-0.13-0.04
			c-0.03-0.02-0.05-0.06-0.05-0.11V28.68z"/>
		<path class="st1" d="M47.29,30.61c-0.14,0.07-0.25,0.11-0.34,0.11c-0.11,0-0.19-0.03-0.26-0.08c-0.07-0.05-0.11-0.13-0.13-0.24
			c-0.1,0.11-0.22,0.19-0.38,0.24c-0.16,0.05-0.32,0.08-0.5,0.08c-0.2,0-0.37-0.06-0.5-0.18c-0.13-0.12-0.2-0.28-0.2-0.48
			c0-0.35,0.17-0.57,0.52-0.64c0.34-0.08,0.68-0.13,1.01-0.16v-0.32c0-0.1-0.04-0.17-0.13-0.21c-0.09-0.04-0.18-0.06-0.28-0.06
			c-0.18,0-0.32,0.02-0.42,0.06c-0.1,0.04-0.21,0.1-0.33,0.18c-0.01,0.01-0.02,0.01-0.03,0.02c-0.01,0-0.02,0.01-0.03,0.01
			c-0.04,0-0.08-0.02-0.12-0.06c-0.04-0.04-0.05-0.09-0.05-0.13c0-0.16,0.12-0.26,0.35-0.32c0.23-0.05,0.43-0.08,0.59-0.08
			c0.33,0,0.56,0.07,0.68,0.21s0.18,0.38,0.18,0.71v0.99c0,0.04,0.01,0.07,0.02,0.1s0.04,0.04,0.07,0.04c0.06,0,0.13-0.04,0.2-0.11
			c0.07-0.07,0.13-0.11,0.18-0.11c0.03,0,0.06,0.02,0.09,0.06c0.03,0.04,0.05,0.08,0.05,0.11C47.5,30.44,47.43,30.53,47.29,30.61z
			 M46.5,29.55c-0.21,0.02-0.44,0.06-0.71,0.1c-0.26,0.05-0.4,0.18-0.4,0.4c0,0.11,0.04,0.19,0.12,0.25
			c0.08,0.05,0.18,0.08,0.3,0.08c0.14,0,0.26-0.02,0.38-0.07c0.11-0.05,0.22-0.11,0.31-0.18V29.55z"/>
	</g>
	<g>
		<path class="st1" d="M17.45,33.25c-0.08,0-0.15,0.02-0.21,0.07c-0.06,0.05-0.12,0.1-0.16,0.17v0.67h0.18
			c0.03,0,0.04,0.01,0.05,0.03c0.01,0.02,0.01,0.04,0.01,0.07c0,0.02-0.01,0.04-0.02,0.06c-0.01,0.02-0.03,0.03-0.05,0.03h-0.52
			c-0.05,0-0.08-0.03-0.08-0.09c0-0.07,0.02-0.1,0.07-0.1h0.14v-1.45l-0.25,0.07c0,0,0,0-0.01,0c0,0,0,0-0.01,0
			c-0.02,0-0.04-0.01-0.06-0.03c-0.02-0.02-0.03-0.04-0.03-0.06c0-0.02,0-0.03,0.01-0.04c0-0.01,0.01-0.02,0.02-0.02
			c0.01-0.01,0.02-0.01,0.03-0.01c0.01,0,0.02-0.01,0.03-0.01l0.41-0.12c0,0,0.01,0,0.02,0c0.02,0,0.03,0,0.04,0.01
			c0.01,0.01,0.02,0.02,0.02,0.04v0.74c0.05-0.06,0.11-0.1,0.18-0.14c0.07-0.04,0.15-0.06,0.23-0.06c0.13,0,0.24,0.04,0.32,0.12
			c0.08,0.08,0.12,0.18,0.12,0.32v0.65h0.17c0.03,0,0.04,0.01,0.05,0.03c0.01,0.02,0.01,0.04,0.01,0.07c0,0.02-0.01,0.04-0.02,0.06
			c-0.01,0.02-0.03,0.03-0.05,0.03h-0.52c-0.05,0-0.08-0.03-0.08-0.09c0-0.07,0.03-0.1,0.08-0.1h0.14v-0.63
			c0-0.09-0.02-0.15-0.07-0.2C17.6,33.27,17.54,33.25,17.45,33.25z"/>
		<path class="st1" d="M18.95,34.37c-0.2,0-0.36-0.06-0.48-0.18c-0.12-0.12-0.18-0.28-0.18-0.47c0-0.2,0.06-0.36,0.18-0.47
			c0.12-0.12,0.28-0.18,0.48-0.18c0.2,0,0.35,0.06,0.47,0.18c0.12,0.12,0.18,0.28,0.18,0.47c0,0.2-0.06,0.35-0.18,0.47
			C19.3,34.31,19.14,34.37,18.95,34.37z M18.95,33.25c-0.13,0-0.24,0.04-0.31,0.13c-0.08,0.09-0.11,0.2-0.11,0.34
			c0,0.14,0.04,0.25,0.11,0.34c0.08,0.09,0.18,0.13,0.31,0.13c0.13,0,0.23-0.04,0.3-0.13c0.07-0.09,0.11-0.2,0.11-0.34
			c0-0.14-0.04-0.25-0.11-0.34C19.18,33.29,19.08,33.25,18.95,33.25z"/>
		<path class="st1" d="M20.29,34.2c0.03,0,0.06-0.01,0.08-0.02c0.02-0.01,0.04-0.03,0.05-0.04c0.01-0.01,0.02-0.03,0.04-0.04
			c0.02-0.01,0.03-0.02,0.05-0.02c0.02,0,0.04,0.01,0.06,0.02c0.01,0.02,0.02,0.03,0.02,0.06c0,0.04-0.02,0.08-0.06,0.11
			c-0.04,0.03-0.08,0.06-0.13,0.07c-0.05,0.02-0.1,0.02-0.15,0.02c-0.08,0-0.16-0.03-0.22-0.09c-0.06-0.06-0.09-0.13-0.09-0.21
			v-0.76h-0.16c-0.03,0-0.05-0.01-0.07-0.02c-0.01-0.02-0.02-0.04-0.02-0.07c0-0.03,0.01-0.05,0.02-0.07
			c0.01-0.02,0.03-0.03,0.06-0.03h0.17c0-0.28,0.04-0.42,0.13-0.42c0.03,0,0.06,0.01,0.09,0.03v0.02c0,0.01,0,0.02,0,0.03
			c0,0.01,0,0.03,0,0.03v0.31h0.28c0.03,0,0.05,0.01,0.06,0.03c0.01,0.02,0.02,0.04,0.02,0.07c0,0.03-0.01,0.05-0.02,0.06
			c-0.01,0.02-0.03,0.03-0.06,0.03h-0.28v0.73C20.15,34.15,20.2,34.2,20.29,34.2z"/>
		<path class="st1" d="M20.93,33.74c0,0.14,0.04,0.24,0.13,0.32c0.08,0.08,0.19,0.11,0.33,0.11c0.04,0,0.08,0,0.12-0.01
			s0.07-0.02,0.1-0.04c0.03-0.02,0.06-0.04,0.07-0.05c0.02-0.01,0.04-0.04,0.07-0.06c0.02-0.02,0.05-0.03,0.07-0.03
			c0.03,0,0.05,0.01,0.07,0.03c0.02,0.02,0.03,0.04,0.03,0.07c0,0.04-0.02,0.08-0.06,0.12c-0.04,0.04-0.09,0.07-0.14,0.09
			c-0.06,0.02-0.12,0.04-0.18,0.06c-0.06,0.01-0.12,0.02-0.17,0.02c-0.13,0-0.25-0.03-0.35-0.08s-0.18-0.13-0.24-0.22
			c-0.06-0.1-0.09-0.21-0.09-0.34c0-0.2,0.06-0.36,0.18-0.48c0.12-0.12,0.27-0.18,0.47-0.18c0.07,0,0.14,0.01,0.21,0.04
			c0.07,0.03,0.13,0.06,0.18,0.11c0.05,0.05,0.1,0.1,0.13,0.17c0.03,0.07,0.05,0.14,0.05,0.22c0,0.02,0,0.04-0.01,0.06
			c-0.01,0.02-0.02,0.03-0.04,0.03c-0.02,0.01-0.03,0.01-0.05,0.02c-0.02,0-0.04,0.01-0.06,0.01c0,0,0,0-0.01,0s0,0,0,0s0,0,0,0
			L20.93,33.74z M21.65,33.53c0-0.1-0.03-0.17-0.09-0.21c-0.06-0.05-0.13-0.07-0.21-0.07c-0.13,0-0.22,0.03-0.3,0.09
			c-0.07,0.06-0.12,0.14-0.13,0.25l0.64-0.01C21.63,33.57,21.65,33.56,21.65,33.53z"/>
		<path class="st1" d="M22.58,32.48c0.02,0,0.03,0,0.04,0.01c0.01,0.01,0.02,0.02,0.02,0.04v1.62h0.26c0.03,0,0.04,0.01,0.06,0.03
			c0.01,0.02,0.02,0.04,0.02,0.07c0,0.03-0.01,0.05-0.02,0.06c-0.01,0.02-0.03,0.03-0.06,0.03h-0.72c-0.03,0-0.05-0.01-0.07-0.02
			c-0.01-0.02-0.02-0.04-0.02-0.07c0-0.03,0.01-0.05,0.02-0.07c0.01-0.02,0.03-0.03,0.06-0.03h0.24v-1.44l-0.25,0.07c0,0,0,0-0.01,0
			c0,0,0,0-0.01,0c-0.02,0-0.04-0.01-0.06-0.03c-0.02-0.02-0.03-0.04-0.03-0.06c0-0.02,0-0.03,0.01-0.04c0-0.01,0.01-0.02,0.02-0.02
			c0.01-0.01,0.02-0.01,0.03-0.01c0.01,0,0.02-0.01,0.03-0.01l0.41-0.12C22.57,32.48,22.58,32.48,22.58,32.48z"/>
		<path class="st1" d="M24.95,33.72c0,0.19-0.05,0.35-0.16,0.47c-0.11,0.12-0.25,0.18-0.44,0.18c-0.08,0-0.16-0.02-0.23-0.05
			c-0.07-0.03-0.13-0.08-0.18-0.14c0,0.11-0.03,0.17-0.1,0.17c-0.06,0-0.09-0.04-0.09-0.13v-1.51l-0.25,0.07c0,0,0,0-0.01,0
			c0,0,0,0-0.01,0c-0.02,0-0.04-0.01-0.06-0.03c-0.02-0.02-0.03-0.04-0.03-0.06c0-0.02,0-0.03,0.01-0.04c0-0.01,0.01-0.02,0.02-0.02
			c0.01-0.01,0.02-0.01,0.03-0.01c0.01,0,0.02-0.01,0.03-0.01l0.41-0.12c0,0,0.01,0,0.02,0c0.02,0,0.03,0,0.04,0.01
			c0.01,0.01,0.02,0.02,0.02,0.04v0.7c0.06-0.05,0.11-0.09,0.18-0.12c0.06-0.03,0.13-0.04,0.22-0.04c0.18,0,0.32,0.06,0.43,0.18
			C24.9,33.37,24.95,33.53,24.95,33.72z M24.72,33.72c0-0.09-0.01-0.16-0.04-0.23c-0.03-0.07-0.07-0.13-0.12-0.17
			c-0.06-0.04-0.12-0.07-0.2-0.07c-0.16,0-0.29,0.05-0.38,0.15v0.6c0.09,0.13,0.21,0.19,0.37,0.19c0.08,0,0.15-0.02,0.21-0.07
			c0.06-0.04,0.1-0.1,0.13-0.17C24.7,33.88,24.72,33.8,24.72,33.72z"/>
		<path class="st1" d="M25.77,34.37c-0.2,0-0.36-0.06-0.48-0.18c-0.12-0.12-0.18-0.28-0.18-0.47c0-0.2,0.06-0.36,0.18-0.47
			c0.12-0.12,0.28-0.18,0.48-0.18c0.2,0,0.35,0.06,0.47,0.18c0.12,0.12,0.18,0.28,0.18,0.47c0,0.2-0.06,0.35-0.18,0.47
			C26.12,34.31,25.97,34.37,25.77,34.37z M25.77,33.25c-0.13,0-0.24,0.04-0.31,0.13c-0.08,0.09-0.11,0.2-0.11,0.34
			c0,0.14,0.04,0.25,0.11,0.34c0.08,0.09,0.18,0.13,0.31,0.13c0.13,0,0.23-0.04,0.3-0.13c0.07-0.09,0.11-0.2,0.11-0.34
			c0-0.14-0.04-0.25-0.11-0.34C26,33.29,25.9,33.25,25.77,33.25z"/>
		<path class="st1" d="M27.19,34.19c0.09,0,0.17-0.02,0.25-0.06c0.07-0.04,0.13-0.1,0.16-0.16v-0.67l-0.15,0.04c0,0-0.01,0-0.02,0
			c-0.02,0-0.04-0.01-0.06-0.03c-0.02-0.02-0.03-0.04-0.03-0.06c0-0.05,0.02-0.08,0.06-0.09l0.34-0.09c0.01,0,0.01,0,0.02,0
			c0.02,0,0.03,0,0.04,0.01c0.01,0.01,0.01,0.02,0.01,0.04v1.02h0.16c0.02,0,0.04,0.01,0.06,0.02c0.01,0.02,0.02,0.04,0.02,0.06
			c0,0.05-0.02,0.08-0.06,0.09l-0.29,0.03c-0.02,0-0.04-0.01-0.05-0.02c-0.01-0.01-0.02-0.04-0.03-0.07l-0.02-0.11
			c-0.04,0.06-0.11,0.12-0.19,0.16c-0.09,0.04-0.17,0.06-0.26,0.06c-0.13,0-0.22-0.04-0.3-0.12c-0.07-0.08-0.11-0.19-0.11-0.32
			v-0.64l-0.15,0.04c0,0-0.01,0-0.02,0c-0.02,0-0.04-0.01-0.06-0.03c-0.02-0.02-0.03-0.04-0.03-0.06c0-0.05,0.02-0.08,0.06-0.09
			l0.34-0.09c0.01,0,0.01,0,0.02,0c0.02,0,0.03,0,0.04,0.01c0.01,0.01,0.01,0.02,0.01,0.04v0.79c0,0.08,0.02,0.15,0.06,0.2
			C27.06,34.16,27.12,34.19,27.19,34.19z"/>
		<path class="st1" d="M28.69,34.2c0.03,0,0.06-0.01,0.08-0.02c0.02-0.01,0.04-0.03,0.05-0.04c0.01-0.01,0.02-0.03,0.04-0.04
			c0.02-0.01,0.03-0.02,0.05-0.02c0.02,0,0.04,0.01,0.06,0.02c0.01,0.02,0.02,0.03,0.02,0.06c0,0.04-0.02,0.08-0.06,0.11
			c-0.04,0.03-0.08,0.06-0.13,0.07c-0.05,0.02-0.1,0.02-0.15,0.02c-0.08,0-0.16-0.03-0.22-0.09c-0.06-0.06-0.09-0.13-0.09-0.21
			v-0.76h-0.16c-0.03,0-0.05-0.01-0.07-0.02c-0.01-0.02-0.02-0.04-0.02-0.07c0-0.03,0.01-0.05,0.02-0.07
			c0.01-0.02,0.03-0.03,0.06-0.03h0.17c0-0.28,0.04-0.42,0.13-0.42c0.03,0,0.06,0.01,0.09,0.03v0.02c0,0.01,0,0.02,0,0.03
			c0,0.01,0,0.03,0,0.03v0.31h0.28c0.03,0,0.05,0.01,0.06,0.03c0.01,0.02,0.02,0.04,0.02,0.07c0,0.03-0.01,0.05-0.02,0.06
			c-0.01,0.02-0.03,0.03-0.06,0.03h-0.28v0.73C28.55,34.15,28.59,34.2,28.69,34.2z"/>
		<path class="st1" d="M29.14,34.25c0-0.03,0.01-0.05,0.02-0.07c0.01-0.02,0.03-0.03,0.06-0.03h0.15v-0.87l-0.15,0.04
			c0,0-0.01,0-0.02,0c-0.02,0-0.04-0.01-0.06-0.03c-0.02-0.02-0.03-0.04-0.03-0.06c0-0.05,0.02-0.08,0.06-0.09l0.34-0.09
			c0.01,0,0.01,0,0.02,0c0.02,0,0.03,0,0.04,0.01c0.01,0.01,0.02,0.02,0.02,0.04v1.04h0.17c0.03,0,0.04,0.01,0.06,0.03
			s0.02,0.04,0.02,0.07c0,0.02-0.01,0.04-0.02,0.06c-0.01,0.02-0.03,0.03-0.06,0.03h-0.52C29.17,34.34,29.14,34.31,29.14,34.25z
			 M29.58,32.76c-0.03,0.03-0.07,0.05-0.11,0.05c-0.05,0-0.08-0.02-0.12-0.05c-0.03-0.03-0.05-0.07-0.05-0.12s0.02-0.08,0.05-0.12
			c0.03-0.03,0.07-0.05,0.12-0.05c0.04,0,0.08,0.02,0.11,0.05c0.03,0.03,0.05,0.07,0.05,0.12S29.61,32.73,29.58,32.76z"/>
		<path class="st1" d="M30.93,33.26c0.01-0.05,0.02-0.08,0.03-0.1c0.01-0.02,0.04-0.03,0.09-0.03c0.02,0,0.04,0.01,0.05,0.03
			c0.01,0.02,0.02,0.05,0.02,0.08v1.53h0.13c0.03,0,0.05,0.01,0.06,0.03c0.01,0.02,0.02,0.04,0.02,0.07c0,0.03-0.01,0.05-0.02,0.07
			c-0.01,0.02-0.04,0.02-0.07,0.02h-0.56c-0.02,0-0.04-0.01-0.06-0.03c-0.01-0.02-0.02-0.04-0.02-0.06c0-0.03,0.01-0.05,0.02-0.07
			s0.03-0.03,0.06-0.03h0.22v-0.54c-0.1,0.1-0.22,0.14-0.36,0.14c-0.12,0-0.23-0.03-0.32-0.09c-0.09-0.06-0.16-0.13-0.21-0.23
			c-0.05-0.1-0.07-0.21-0.07-0.33c0-0.13,0.02-0.24,0.07-0.33c0.04-0.1,0.11-0.17,0.2-0.23c0.09-0.06,0.19-0.09,0.31-0.09
			c0.08,0,0.16,0.02,0.23,0.06C30.82,33.16,30.88,33.21,30.93,33.26z M30.18,33.72c0,0.08,0.01,0.16,0.04,0.23
			c0.03,0.07,0.07,0.13,0.12,0.17c0.06,0.04,0.12,0.07,0.2,0.07c0.15,0,0.27-0.05,0.36-0.15v-0.6c-0.09-0.13-0.21-0.19-0.37-0.19
			c-0.06,0-0.11,0.01-0.16,0.04c-0.05,0.03-0.08,0.06-0.11,0.1c-0.03,0.04-0.05,0.09-0.06,0.15C30.19,33.6,30.18,33.65,30.18,33.72z
			"/>
		<path class="st1" d="M32.06,34.19c0.09,0,0.17-0.02,0.25-0.06s0.13-0.1,0.16-0.16v-0.67l-0.15,0.04c0,0-0.01,0-0.02,0
			c-0.02,0-0.04-0.01-0.06-0.03c-0.02-0.02-0.03-0.04-0.03-0.06c0-0.05,0.02-0.08,0.06-0.09l0.34-0.09c0.01,0,0.01,0,0.02,0
			c0.02,0,0.03,0,0.04,0.01c0.01,0.01,0.01,0.02,0.01,0.04v1.02h0.16c0.02,0,0.04,0.01,0.06,0.02c0.01,0.02,0.02,0.04,0.02,0.06
			c0,0.05-0.02,0.08-0.06,0.09l-0.29,0.03c-0.02,0-0.04-0.01-0.05-0.02c-0.01-0.01-0.02-0.04-0.03-0.07l-0.02-0.11
			c-0.04,0.06-0.11,0.12-0.19,0.16c-0.09,0.04-0.17,0.06-0.26,0.06c-0.13,0-0.22-0.04-0.3-0.12c-0.07-0.08-0.11-0.19-0.11-0.32
			v-0.64l-0.15,0.04c0,0-0.01,0-0.02,0c-0.02,0-0.04-0.01-0.06-0.03c-0.02-0.02-0.03-0.04-0.03-0.06c0-0.05,0.02-0.08,0.06-0.09
			l0.34-0.09c0.01,0,0.01,0,0.02,0c0.02,0,0.03,0,0.04,0.01c0.01,0.01,0.01,0.02,0.01,0.04v0.79c0,0.08,0.02,0.15,0.06,0.2
			C31.93,34.16,31.98,34.19,32.06,34.19z"/>
		<path class="st1" d="M33.24,33.74c0,0.14,0.04,0.24,0.13,0.32c0.08,0.08,0.19,0.11,0.33,0.11c0.04,0,0.08,0,0.12-0.01
			c0.03-0.01,0.07-0.02,0.1-0.04c0.03-0.02,0.06-0.04,0.07-0.05c0.02-0.01,0.04-0.04,0.07-0.06c0.02-0.02,0.05-0.03,0.07-0.03
			c0.03,0,0.05,0.01,0.07,0.03c0.02,0.02,0.03,0.04,0.03,0.07c0,0.04-0.02,0.08-0.06,0.12s-0.09,0.07-0.14,0.09
			c-0.06,0.02-0.12,0.04-0.18,0.06c-0.06,0.01-0.12,0.02-0.17,0.02c-0.13,0-0.25-0.03-0.35-0.08s-0.18-0.13-0.24-0.22
			c-0.06-0.1-0.09-0.21-0.09-0.34c0-0.2,0.06-0.36,0.18-0.48c0.12-0.12,0.27-0.18,0.47-0.18c0.07,0,0.14,0.01,0.21,0.04
			c0.07,0.03,0.13,0.06,0.18,0.11c0.05,0.05,0.1,0.1,0.13,0.17c0.03,0.07,0.05,0.14,0.05,0.22c0,0.02,0,0.04-0.01,0.06
			c-0.01,0.02-0.02,0.03-0.04,0.03c-0.02,0.01-0.03,0.01-0.05,0.02c-0.02,0-0.04,0.01-0.06,0.01c0,0,0,0-0.01,0c0,0,0,0,0,0
			c0,0,0,0,0,0L33.24,33.74z M33.96,33.53c0-0.1-0.03-0.17-0.09-0.21c-0.06-0.05-0.13-0.07-0.21-0.07c-0.13,0-0.22,0.03-0.3,0.09
			c-0.07,0.06-0.12,0.14-0.13,0.25l0.64-0.01C33.94,33.57,33.96,33.56,33.96,33.53z"/>
	</g>
	<path class="st1" d="M38.22,17.85c-1.21-0.45-2.44-0.77-3.75-0.45c-1.17,0.28-2.29,0.69-3.3,1.36c-0.91,0.61-1.81,1.22-2.71,1.82
		c-1.72,1.15-3.63,1.67-5.69,1.68c-1.52,0.01-2.95-0.45-4.36-0.95c-0.86-0.31-1.68-0.75-2.54-1.04c-0.97-0.32-1.97-0.55-2.96-0.81
		c-1.07-0.28-2.6-0.58-2.79-0.57c-0.68,0.02-0.93,0.21-1.01,0.31c0,0,0,0,0,0c0.04,0.01,0.22,0.1,0.26,0.11
		c0.96,0.28,1.94,0.54,2.93,0.68c0.87,0.12,1.73,0.28,2.55,0.58c0.84,0.31,1.68,0.62,2.52,0.94c1.97,0.76,3.97,1.28,6.12,1.13
		c1.65-0.12,3.21-0.46,4.55-1.48c0.44-0.34,0.91-0.64,1.38-0.94c2.02-1.31,4.21-2.06,6.64-2.01c0.67,0.01,1.35,0.06,2.07,0.1
		C38.39,18.32,38.47,17.95,38.22,17.85L38.22,17.85z"/>
	<path class="st1" d="M40.13,19.7c0.03-0.06,0.05-0.12,0.08-0.17c-0.31-0.2-0.6-0.49-0.95-0.59c-0.61-0.18,0.22,0.07-2.63-0.14
		c-2.85-0.21-4.65,0.16-7,1.72c-0.64,0.42-1.28,0.86-1.91,1.29c-0.68,0.46-1.43,0.76-2.23,0.93c-2.55,0.54-5.05,0.33-7.49-0.59
		c-1.28-0.48-2.56-0.95-3.85-1.41c-0.53-0.19-1.08-0.3-1.74-0.32c0.12,0.11,0.16,0.16,0.21,0.18c1.18,0.45,2.35,0.89,3.53,1.33
		c1.82,0.68,3.68,1.22,5.61,1.56c2.17,0.38,4.25,0.26,6.17-0.97c1.72-1.1,3.58-1.92,5.52-2.53c1.83-0.58,3.7-0.82,5.62-0.43
		C39.41,19.63,39.77,19.65,40.13,19.7z"/>
	<path class="st1" d="M6.4,19.74c-0.01,0.04-0.01,0.09-0.02,0.13c0.14,0.03,0.29,0.06,0.43,0.09c1.36,0.25,2.75,0.41,4.08,0.77
		c1.64,0.45,3.23,1.08,4.85,1.63c1.88,0.63,3.75,1.29,5.65,1.87c1.67,0.52,3.37,0.57,5.02-0.12c0.88-0.37,1.73-0.82,2.6-1.23
		c0.98-0.46,1.94-1.03,2.97-1.34c3-0.92,6.08-1.29,9.23-0.93c0.1,0.01,0.21-0.02,0.32-0.03c0.01-0.05,0.01-0.1,0.02-0.14
		c-0.29-0.1-0.58-0.23-0.88-0.28c-0.63-0.11-1.27-0.14-1.9-0.26c-1.7-0.32-3.37-0.1-4.99,0.39c-1.92,0.58-3.78,1.37-5.47,2.46
		c-1.94,1.25-4.03,1.51-6.26,1.16c-2.66-0.41-5.19-1.25-7.66-2.24c-1.88-0.75-3.78-1.34-5.77-1.65C7.87,19.9,7.13,19.83,6.4,19.74z"
		/>
	<path class="st1" d="M9.81,18.3c0,0.17,2.16,0.57,3.52,0.85c1.56,0.32,3.01,0.91,4.48,1.5c1.16,0.47,2.37,0.9,3.6,1.1
		c2.5,0.42,4.83-0.15,6.95-1.56c0.94-0.63,1.87-1.28,2.83-1.87c0.56-0.34,1.16-0.63,1.78-0.87c1.22-0.47,2.49-0.73,3.82-0.45
		c-0.58-0.37-0.99-0.5-1.56-0.5c-0.97,0-1.92,0.12-2.81,0.53c-0.83,0.39-1.67,0.77-2.47,1.21c-1.01,0.55-2,1.14-3,1.72
		c-1.11,0.64-2.32,0.97-3.59,1.07c-0.8,0.06-1.62,0.06-2.43,0.01c-1.5-0.09-2.96-0.37-4.3-1.12c-1.05-0.59-2.19-0.94-3.39-1.12
		C11.91,18.6,9.81,18.13,9.81,18.3z"/>
	<path class="st1" d="M10.14,20.87c-0.03,0.06-0.05,0.11-0.08,0.17c0.56,0.19,1.12,0.38,1.68,0.57c0.83,0.28,1.67,0.52,2.47,0.85
		c1.52,0.61,3.02,1.29,4.53,1.92c2.91,1.22,5.85,1.26,8.78,0.08c0.79-0.32,1.57-0.67,2.34-1.03c1.81-0.84,3.71-1.4,5.68-1.7
		c1.99-0.3,4-0.3,6-0.26c0.58,0.01,1.15,0.05,1.73,0.08c-0.61-0.37-1.26-0.52-1.93-0.59c-1.94-0.22-3.87-0.1-5.8,0.16
		c-2.34,0.31-4.53,1-6.57,2.19c-0.77,0.45-1.6,0.8-2.43,1.15c-1.49,0.63-3.05,0.67-4.59,0.3c-1.37-0.33-2.7-0.8-4.04-1.23
		c-1.12-0.36-2.22-0.74-3.33-1.12c-0.75-0.25-1.49-0.51-2.23-0.77C11.62,21.39,10.88,21.13,10.14,20.87z"/>
	<path class="st1" d="M34.03,16.12c-0.69-0.14-1.36-0.04-2,0.2c-1.58,0.59-3.15,1.2-4.71,1.82c-0.85,0.34-2.06,0.53-2.52,1.11
		c-0.45,0.58-3.24,0.87-4.94,0.43c-0.68-0.18-1.37-0.34-2.05-0.48c-1.04-0.22-2.08-0.41-3.12-0.62c0.12,0.13,0.27,0.2,0.42,0.26
		c0.51,0.21,1.05,0.38,1.53,0.64c1.24,0.69,2.56,1,3.96,1.14c2.35,0.23,4.59-0.03,6.66-1.28c0.33-0.2,0.67-0.37,1-0.57
		C30.08,17.67,31.9,16.57,34.03,16.12z"/>
	<path class="st1" d="M17.13,18.68c-0.01,0.04-0.02,0.08-0.03,0.12c0.85,0.2,1.7,0.4,2.54,0.6c1.32,0.32,2.63,0.24,3.9-0.22
		c0.38-0.14,0.76-0.29,1.13-0.45c2.09-0.92,4.15-1.9,6.33-2.6c0.84-0.27,1.68-0.46,2.57-0.4c0.13,0.01,0.26-0.04,0.4-0.06
		c-0.57-0.15-1.15-0.22-1.72-0.23c-1.15-0.02-2.25,0.25-3.31,0.64c-1.62,0.61-3.21,1.29-4.8,1.95c-1.46,0.61-2.97,0.95-4.54,0.91
		C18.78,18.92,17.95,18.77,17.13,18.68z"/>
	<path class="st1" d="M30.15,15.2c-0.5,0.08-1.01,0.12-1.5,0.26c-1.03,0.29-2.05,0.6-3.06,0.95c-2.51,0.87-5.04,1.61-7.73,1.65
		c-0.49,0.01-0.97,0.07-1.46,0.11c1.1,0.19,2.2,0.37,3.31,0.4c1.53,0.04,3-0.33,4.41-0.94C26.11,16.77,28.06,15.84,30.15,15.2z"/>
	<path class="st1" d="M13.82,22.79c0,0.18,0.23,0.18,0.36,0.25c1.21,0.58,2.39,1.2,3.63,1.71c1.54,0.64,2.29,0.76,3.43,0.76
		C18.62,25.06,13.82,22.61,13.82,22.79z"/>
	<path class="st1" d="M21.94,17.05c2.22-0.46,4.3-1.38,6.47-2.01C26.17,15.47,24.02,16.14,21.94,17.05z"/>
</g>
</svg>
