<?xml version="1.0" encoding="utf-8"?>
<!-- Generator: Adobe Illustrator 26.0.0, SVG Export Plug-In . SVG Version: 6.00 Build 0)  -->
<svg version="1.1" id="Capa_1" xmlns="http://www.w3.org/2000/svg" xmlns:xlink="http://www.w3.org/1999/xlink" x="0px" y="0px"
	 viewBox="0 0 60.6 37.6" style="enable-background:new 0 0 60.6 37.6;" xml:space="preserve">
<style type="text/css">
	.yyyttt{fill:#396BA4;}
</style>
<g>
	<path class="yyyttt" d="M59.38,37.6H41.81c-0.71,0-1.31-0.6-1.31-1.3S41.1,35,41.81,35h17.47c0.71,0,1.31,0.6,1.31,1.3
		S59.99,37.6,59.38,37.6z"/>
	<path class="yyyttt" d="M37.17,37.6H23.43c-0.71,0-1.31-0.6-1.31-1.3s0.61-1.2,1.31-1.2h13.84c0.71,0,1.31,0.6,1.31,1.3
		C38.48,37,37.87,37.6,37.17,37.6z"/>
	<path class="yyyttt" d="M18.78,37.6H1.31C0.61,37.6,0,37,0,36.3S0.61,35,1.31,35h17.47c0.71,0,1.31,0.6,1.31,1.3
		C20,37,19.49,37.6,18.78,37.6z"/>
	<path class="yyyttt" d="M23.43,37.6h-4.65c-0.71,0-1.31-0.6-1.31-1.3v-4.6c0-0.7,0.61-1.3,1.31-1.3c0.71,0,1.31,0.6,1.31,1.3v3.4h2.12
		v-3.3c0-0.7,0.61-1.3,1.31-1.3c0.71,0,1.31,0.6,1.31,1.3v4.6C24.64,37,24.04,37.6,23.43,37.6z"/>
	<path class="yyyttt" d="M41.81,37.6h-4.65c-0.71,0-1.31-0.6-1.31-1.3v-4.6c0-0.7,0.61-1.3,1.31-1.3s1.31,0.6,1.31,1.3v3.4h2.12v-3.3
		c0-0.7,0.61-1.3,1.31-1.3c0.71,0,1.31,0.6,1.31,1.3v4.6C43.12,37,42.52,37.6,41.81,37.6z"/>
	<path class="yyyttt" d="M41.81,33H17.67c-3.23,0-5.96-2.9-6.26-6.8c0-0.3,0.1-0.7,0.3-1c0.2-0.3,0.61-0.4,0.91-0.4
		c0.2,0,0.5,0.1,0.71,0.2c0.3,0.1,0.61,0.2,0.81,0.5c0.3,0.5,0.3,1.1,0,1.5c0.5,2,1.92,3.4,3.53,3.4h25.25c1.62,0,3.03-1.4,3.53-3.3
		c-0.4-0.5-0.4-1.2,0-1.6c0.2-0.3,0.61-0.4,0.91-0.4c0.3-0.1,0.61-0.1,0.91,0c0.61,0.2,0.91,0.7,0.81,1.3
		c-0.4,3.8-3.13,6.6-6.26,6.6H41.81L41.81,33z"/>
	<path class="yyyttt" d="M17.98,15.5c-0.3,0-0.5-0.1-0.71-0.2l-0.91-0.7c-0.4-0.3-0.61-0.7-0.5-1.2l1.31-8.3c0-1.4,0.81-2.7,2.22-3.7
		C20.7,0.5,22.42,0,24.24,0h12.42c1.82,0,3.53,0.5,4.85,1.4c1.41,0.9,2.22,2.3,2.22,3.7l1.31,8.2c0.1,0.5-0.2,1-0.61,1.3l-1.41,0.8
		c-0.2,0.1-0.4,0.2-0.61,0.2h-0.4c-0.71,0-1.31-0.6-1.31-1.3s0.61-1.3,1.31-1.3l0,0l0.3-0.2l-1.11-7.4c0-0.1,0-0.1,0-0.2
		c0-1.3-1.82-2.6-4.54-2.6H24.14c-2.63,0-4.54,1.4-4.54,2.6c0,0.1,0,0.1,0,0.2l-1.21,7.7l0.3,0.2c0.61,0.4,0.71,1.2,0.3,1.7
		C18.68,15.4,18.38,15.5,17.98,15.5z"/>
	<path class="yyyttt" d="M44.74,28.7H15.96c-0.1,0-0.1,0-0.2,0c-1.31-0.2-2.42-0.7-3.43-1.4c-0.2-0.2-0.4-0.3-0.61-0.5
		c-0.2-0.2-0.4-0.6-0.4-0.9v-2.6v-0.1c0,0,0,0,0-0.1v-5.8c0-2.4,2.63-4.8,5.55-5.1c0.3,0,0.71,0.1,0.91,0.3l0.5,0.4h23.13l1.52-0.7
		c0.2-0.1,0.4-0.1,0.61-0.1c3.03,0.2,5.55,2.6,5.55,5.1V23c0,0,0,0,0,0.1v0.1v2.6c0,0.3-0.1,0.7-0.4,0.9c-0.2,0.2-0.4,0.4-0.71,0.6
		c-0.91,0.7-2.12,1.2-3.33,1.3C44.84,28.7,44.74,28.7,44.74,28.7z M15.96,26.2h28.58c0.71-0.1,1.41-0.4,2.02-0.8c0,0,0,0,0.1,0v-2.1
		v-0.1v-0.1v-5.7c0-1-1.31-2.3-2.93-2.5l-1.41,0.6c-0.2,0.1-0.3,0.1-0.5,0.1H17.98c-0.3,0-0.61-0.1-0.81-0.3l-0.5-0.5
		c-1.52,0.3-2.73,1.6-2.73,2.5V23c0,0.1,0,0.1,0,0.2v0.1v2C14.54,25.8,15.25,26.1,15.96,26.2z"/>
	<path class="yyyttt" d="M20.7,24.5c-1.92,0-3.43-1.5-3.43-3.4s1.51-3.4,3.43-3.4c1.92,0,3.43,1.5,3.43,3.4S22.62,24.5,20.7,24.5z
		 M20.7,20.1c-0.5,0-0.91,0.4-0.91,0.9s0.4,0.9,0.91,0.9s0.91-0.4,0.91-0.9S21.21,20.1,20.7,20.1z"/>
	<path class="yyyttt" d="M39.89,24.5c-1.92,0-3.43-1.5-3.43-3.4s1.52-3.4,3.43-3.4c1.92,0,3.43,1.5,3.43,3.4S41.81,24.5,39.89,24.5z
		 M39.89,20.1c-0.5,0-0.91,0.4-0.91,0.9s0.4,0.9,0.91,0.9c0.5,0,0.91-0.4,0.91-0.9S40.4,20.1,39.89,20.1z"/>
</g>
</svg>
