<?xml version="1.0" encoding="utf-8"?>
<!-- Generator: Adobe Illustrator 26.0.0, SVG Export Plug-In . SVG Version: 6.00 Build 0)  -->
<svg version="1.1" id="Capa_1" xmlns="http://www.w3.org/2000/svg" xmlns:xlink="http://www.w3.org/1999/xlink" x="0px" y="0px"
	 viewBox="0 0 30.11 25.01" style="enable-background:new 0 0 30.11 25.01;" xml:space="preserve">
<style type="text/css">
	.yyyttt{fill-rule:evenodd;clip-rule:evenodd;fill:#396BA4;}
	.oooppp{fill:#396BA4;}
</style>
<path class="yyyttt" d="M6.04,8.77c-0.01,0-0.02,0-0.03,0L6.04,8.77L6.04,8.77z"/>
<path class="yyyttt" d="M6.04,12.15c-0.01,0-0.02,0-0.03,0H6.04L6.04,12.15z"/>
<g>
	<g>
		<g>
			<g>
				<g>
					<g>
						<path class="oooppp" d="M9.06,7.02c-0.73,0-1.33-0.59-1.33-1.33V2.78c0-0.73,0.59-1.33,1.33-1.33c0.73,0,1.33,0.59,1.33,1.33V5.7
							C10.38,6.43,9.79,7.02,9.06,7.02z"/>
					</g>
				</g>
				<g>
					<g>
						<path class="oooppp" d="M21.05,7.02c-0.73,0-1.33-0.59-1.33-1.33V2.78c0-0.73,0.59-1.33,1.33-1.33c0.73,0,1.33,0.59,1.33,1.33
							V5.7C22.38,6.43,21.78,7.02,21.05,7.02z"/>
					</g>
				</g>
			</g>
			<g>
				<g>
					<path class="oooppp" d="M6.72,1.33C6.72,0.59,7.32,0,8.05,0h14.01c0.73,0,1.33,0.59,1.33,1.33c0,0.73-0.59,1.33-1.33,1.33H8.05
						C7.32,2.65,6.72,2.06,6.72,1.33z"/>
				</g>
			</g>
		</g>
		<path class="oooppp" d="M28.97,4.28H1.14C0.51,4.28,0,4.79,0,5.41v18.46c0,0.63,0.51,1.14,1.14,1.14h27.83
			c0.63,0,1.14-0.51,1.14-1.14V5.41C30.11,4.79,29.6,4.28,28.97,4.28z"/>
	</g>
</g>
</svg>
