<?xml version="1.0" encoding="utf-8"?>
<!-- Generator: Adobe Illustrator 26.0.0, SVG Export Plug-In . SVG Version: 6.00 Build 0)  -->
<svg version="1.1" id="Capa_1" xmlns="http://www.w3.org/2000/svg" xmlns:xlink="http://www.w3.org/1999/xlink" x="0px" y="0px"
	 viewBox="0 0 33.57 33.57" style="enable-background:new 0 0 33.57 33.57;" xml:space="preserve">
<style type="text/css">
	.yyyttt{fill-rule:evenodd;clip-rule:evenodd;fill:#396BA4;}
	.oooppp{fill:#396BA4;}
</style>
<path class="yyyttt" d="M7.77,11.74c-0.01,0-0.02,0-0.03,0L7.77,11.74L7.77,11.74z"/>
<path class="yyyttt" d="M7.77,15.12c-0.01,0-0.02,0-0.03,0H7.77L7.77,15.12z"/>
<g>
	<path class="yyyttt" d="M16.79,0C7.52,0,0,7.51,0,16.78c0,9.27,7.52,16.78,16.79,16.78c9.27,0,16.79-7.51,16.79-16.78
		C33.57,7.51,26.06,0,16.79,0z M16.79,32.32c-8.58,0-15.53-6.96-15.53-15.54c0-8.58,6.95-15.53,15.53-15.53
		c8.58,0,15.53,6.96,15.53,15.53C32.32,25.36,25.36,32.32,16.79,32.32z"/>
	<g>
		<path class="oooppp" d="M16.79,11.72c-0.66,0-1.2-0.19-1.61-0.58c-0.42-0.38-0.62-0.86-0.62-1.43c0-0.57,0.21-1.05,0.62-1.43
			c0.41-0.38,0.95-0.58,1.61-0.58c0.66,0,1.2,0.18,1.61,0.54c0.41,0.36,0.62,0.83,0.62,1.39c0,0.6-0.2,1.1-0.61,1.49
			C18,11.53,17.46,11.72,16.79,11.72z M14.99,25.86V13.45h3.6v12.41H14.99z"/>
	</g>
</g>
</svg>
