<?xml version="1.0" encoding="utf-8"?>
<!-- Generator: Adobe Illustrator 26.0.0, SVG Export Plug-In . SVG Version: 6.00 Build 0)  -->
<svg version="1.1" id="Capa_1" xmlns="http://www.w3.org/2000/svg" xmlns:xlink="http://www.w3.org/1999/xlink" x="0px" y="0px"
	 viewBox="0 0 31.7 31.7" style="enable-background:new 0 0 31.7 31.7;" xml:space="preserve">
<style type="text/css">
	.yyyttt{fill:#396BA4;}
	.oooppp{fill:none;stroke:#396BA4;stroke-width:3;stroke-miterlimit:10;}
</style>
<g>
	<g>
		<g>
			<g>
				<path class="yyyttt" d="M11.87,28.73c0,0,5.23-3.99,9.13-7.89c3.49-3.49,7.49-8.73,7.49-8.73c2.71-2.71,2.71-7.11,0-9.82
					c0,0-7.78,10.37-11.7,14.3C12.39,20.98,2.04,28.73,2.04,28.73C4.75,31.44,9.15,31.44,11.87,28.73z"/>
			</g>
			<g>
				<path class="yyyttt" d="M20.2,10.08c-1.88-1.88-2.59-4.21-1.59-5.21l4.42-4.42c1-1,3.34-0.29,5.21,1.59l0,0
					c1.88,1.88,2.59,4.21,1.59,5.21l-4.42,4.42C24.41,12.67,22.07,11.96,20.2,10.08L20.2,10.08z"/>
			</g>
			<g>
				<path class="yyyttt" d="M2.04,28.73c-1.88-1.88-2.59-4.21-1.59-5.22l4.42-4.42c1-1,3.34-0.29,5.21,1.59l0,0
					c1.88,1.88,2.59,4.21,1.59,5.22l-4.42,4.42C6.26,31.32,3.92,30.6,2.04,28.73L2.04,28.73z"/>
			</g>
		</g>
	</g>
	<line class="oooppp" x1="6.06" y1="6.06" x2="30.64" y2="30.64"/>
</g>
</svg>
