<?xml version="1.0" encoding="utf-8"?>
<!-- Generator: Adobe Illustrator 26.0.0, SVG Export Plug-In . SVG Version: 6.00 Build 0)  -->
<svg version="1.1" id="Capa_1" xmlns="http://www.w3.org/2000/svg" xmlns:xlink="http://www.w3.org/1999/xlink" x="0px" y="0px"
	 viewBox="0 0 25 25" style="enable-background:new 0 0 25 25;" xml:space="preserve">
<style type="text/css">
	.st0{fill:#396BA4;}
</style>
<g>
	<g>
		<path class="st0" d="M15.44,19.3c0.31,0.06,0.6,0.12,0.89,0.19c0.8,0.19,1.59,0.42,2.29,0.87c0.31,0.2,0.61,0.45,0.84,0.74
			c0.48,0.59,0.45,1.32-0.02,1.92c-0.38,0.48-0.89,0.78-1.44,1.03c-0.98,0.44-2.02,0.66-3.08,0.8c-2.02,0.25-4.03,0.21-6.02-0.21
			c-0.89-0.19-1.75-0.44-2.52-0.93c-0.2-0.13-0.39-0.27-0.57-0.43c-0.8-0.77-0.78-1.76,0.04-2.51c0.52-0.47,1.13-0.76,1.79-0.97
			c0.58-0.18,1.17-0.3,1.76-0.45c0.05-0.01,0.11-0.02,0.18-0.04c-0.1-0.16-0.19-0.3-0.28-0.44c-1.2-1.87-2.34-3.76-3.32-5.76
			C5.46,12.06,4.99,11,4.66,9.89C4.14,8.11,4.34,6.37,5.13,4.73c1.33-2.77,3.55-4.38,6.61-4.68c2.69-0.27,4.98,0.65,6.81,2.65
			c1.4,1.53,2.08,3.36,2.08,5.43c0,0.9-0.25,1.76-0.55,2.6c-0.66,1.8-1.56,3.5-2.53,5.15c-0.65,1.1-1.34,2.18-2.01,3.26
			C15.51,19.19,15.48,19.24,15.44,19.3z M12.5,21.45c0.06-0.08,0.1-0.13,0.14-0.18c1.44-1.98,2.78-4.03,4-6.16
			c0.92-1.6,1.78-3.23,2.4-4.99c0.41-1.15,0.54-2.31,0.27-3.51c-1.08-4.79-6.58-6.99-10.67-4.27c-2.2,1.46-3.82,4.63-2.66,7.73
			c0.5,1.34,1.1,2.63,1.78,3.89c1.12,2.06,2.36,4.04,3.69,5.97C11.78,20.44,12.13,20.93,12.5,21.45z M12.51,23.85
			c0.7-0.05,1.4-0.08,2.1-0.16c1-0.11,1.98-0.31,2.91-0.72c0.35-0.15,0.69-0.33,0.95-0.62c0.21-0.23,0.22-0.41-0.01-0.62
			c-0.22-0.2-0.47-0.38-0.73-0.52c-0.88-0.45-1.84-0.63-2.81-0.79c-0.18-0.03-0.27,0.03-0.36,0.17c-0.5,0.73-1.01,1.45-1.52,2.17
			c-0.32,0.45-0.76,0.45-1.07,0.01c-0.53-0.75-1.05-1.5-1.57-2.25c-0.07-0.1-0.13-0.13-0.25-0.11c-0.5,0.1-1,0.18-1.49,0.3
			c-0.65,0.16-1.29,0.37-1.84,0.77c-0.57,0.4-0.57,0.7-0.01,1.11c0.43,0.31,0.92,0.51,1.43,0.66C9.63,23.67,11.06,23.81,12.51,23.85
			z"/>
		<path class="st0" d="M9.53,8.12c0-1.65,1.34-2.99,2.98-2.99c1.65,0,2.98,1.34,2.98,3c0,1.64-1.35,2.97-3.01,2.96
			C10.86,11.08,9.53,9.74,9.53,8.12z M12.52,9.91c1.01-0.01,1.81-0.81,1.8-1.83c-0.01-0.99-0.83-1.79-1.83-1.78
			c-1,0.01-1.8,0.83-1.79,1.84C10.71,9.13,11.52,9.92,12.52,9.91z"/>
	</g>
</g>
</svg>
