<?xml version="1.0" encoding="utf-8"?>
<!-- Generator: Adobe Illustrator 26.0.0, SVG Export Plug-In . SVG Version: 6.00 Build 0)  -->
<svg version="1.1" id="Capa_1" xmlns="http://www.w3.org/2000/svg" xmlns:xlink="http://www.w3.org/1999/xlink" x="0px" y="0px"
	 viewBox="0 0 242.32 107.24" style="enable-background:new 0 0 242.32 107.24;" xml:space="preserve">
<style type="text/css">
	.st0{fill:#FFFFFF;}
</style>
<g>
	<g>
		<path class="st0" d="M13.81,82.59c-1.05,1.21-2.5,1.82-4.34,1.82c-0.87,0-1.65-0.18-2.34-0.55c-0.69-0.37-1.26-0.8-1.71-1.31
			c0,0.41-0.07,0.78-0.21,1.1c-0.14,0.33-0.41,0.49-0.81,0.49c-0.36,0-0.61-0.13-0.74-0.4c-0.13-0.27-0.2-0.57-0.2-0.92V67.95
			l-2.51,0.66c-0.03,0-0.05,0-0.05,0c-0.01,0-0.02,0-0.05,0c-0.22,0-0.42-0.1-0.59-0.29C0.09,68.12,0,67.92,0,67.7
			c0-0.3,0.08-0.5,0.24-0.6c0.16-0.09,0.36-0.18,0.59-0.25l4.09-1.17c0.01-0.01,0.03-0.01,0.06-0.02c0.02,0,0.05-0.01,0.09-0.01
			c0.15,0,0.28,0.05,0.4,0.14c0.12,0.1,0.18,0.22,0.18,0.38v6.96c0.5-0.49,1.06-0.88,1.66-1.18c0.6-0.3,1.34-0.45,2.21-0.45
			c1.8,0,3.23,0.61,4.29,1.84c1.06,1.23,1.59,2.76,1.59,4.59C15.38,79.83,14.86,81.38,13.81,82.59z M12.13,74.72
			c-0.61-0.93-1.51-1.4-2.7-1.4c-0.86,0-1.6,0.13-2.21,0.39c-0.62,0.26-1.14,0.62-1.57,1.06v5.92c0.38,0.55,0.87,1,1.47,1.36
			c0.61,0.36,1.34,0.54,2.2,0.54c1.23,0,2.16-0.46,2.78-1.39c0.62-0.93,0.94-2.01,0.94-3.25C13.03,76.73,12.73,75.65,12.13,74.72z"
			/>
		<path class="st0" d="M25.52,73.43c-0.85,0-1.61,0.19-2.27,0.56c-0.67,0.38-1.17,0.82-1.52,1.34v6.93h2.85
			c0.27,0,0.46,0.1,0.58,0.29c0.12,0.2,0.18,0.42,0.18,0.69c0,0.23-0.07,0.44-0.21,0.62c-0.14,0.18-0.33,0.27-0.58,0.27h-7.02
			c-0.3,0-0.52-0.08-0.66-0.25c-0.14-0.17-0.21-0.39-0.21-0.66c0-0.26,0.07-0.49,0.2-0.67c0.13-0.19,0.33-0.28,0.61-0.28h2.08v-8.55
			l-1.52,0.37c-0.01,0.01-0.03,0.01-0.06,0.02c-0.02,0-0.05,0.01-0.09,0.01c-0.21,0-0.41-0.09-0.6-0.26
			c-0.18-0.17-0.28-0.37-0.28-0.59c0-0.24,0.05-0.43,0.15-0.58c0.1-0.15,0.25-0.25,0.45-0.31l2.96-0.85c0.03,0,0.05,0,0.05,0
			s0.02,0,0.05,0h0.06c0.15,0,0.28,0.04,0.38,0.13c0.11,0.08,0.16,0.2,0.16,0.35l0.22,2.01c0.49-0.74,1.13-1.34,1.93-1.8
			c0.8-0.46,1.81-0.69,3.05-0.69c0.23,0,0.44,0.07,0.62,0.21c0.18,0.14,0.27,0.33,0.27,0.58v2.25c0,0.3-0.08,0.52-0.25,0.66
			c-0.17,0.14-0.39,0.21-0.66,0.21c-0.26,0-0.49-0.07-0.67-0.2c-0.19-0.13-0.28-0.34-0.28-0.61V73.43z"/>
		<path class="st0" d="M29.24,82.58c0.13-0.19,0.33-0.28,0.61-0.28h1.46v-8.6l-1.52,0.41c-0.01,0.01-0.03,0.01-0.06,0.02
			c-0.02,0-0.06,0.01-0.09,0.01c-0.21,0-0.41-0.09-0.59-0.26c-0.18-0.17-0.28-0.37-0.28-0.59c0-0.23,0.05-0.42,0.15-0.58
			c0.1-0.16,0.25-0.26,0.45-0.31l3.4-0.85c0.02-0.01,0.05-0.01,0.07-0.02c0.03,0,0.06-0.01,0.1-0.01c0.16,0,0.29,0.04,0.39,0.13
			c0.1,0.09,0.15,0.21,0.15,0.37V82.3h1.64c0.27,0,0.46,0.1,0.58,0.29c0.12,0.2,0.18,0.42,0.18,0.69c0,0.23-0.07,0.44-0.21,0.61
			s-0.33,0.25-0.58,0.25h-5.18c-0.3,0-0.52-0.08-0.66-0.24c-0.14-0.16-0.21-0.37-0.21-0.64C29.04,82.99,29.11,82.77,29.24,82.58z
			 M31.17,68.42c-0.32-0.32-0.47-0.7-0.47-1.14c0-0.45,0.16-0.83,0.47-1.14c0.32-0.32,0.7-0.47,1.14-0.47
			c0.45,0,0.82,0.16,1.14,0.47c0.31,0.31,0.47,0.7,0.47,1.14c0,0.45-0.16,0.83-0.47,1.14c-0.31,0.32-0.69,0.47-1.14,0.47
			C31.87,68.89,31.49,68.74,31.17,68.42z"/>
		<path class="st0" d="M39.47,72.23c0.98-0.47,2.02-0.71,3.13-0.71c0.72,0,1.44,0.15,2.15,0.45c0.71,0.3,1.19,0.68,1.46,1.15
			l0.01-0.89c0-0.22,0.08-0.39,0.23-0.52s0.34-0.19,0.56-0.19c0.31,0,0.55,0.07,0.7,0.21s0.23,0.35,0.23,0.61L47.9,75.4
			c-0.03,0.24-0.12,0.42-0.28,0.55s-0.35,0.19-0.59,0.19c-0.23,0-0.39-0.07-0.47-0.21c-0.08-0.14-0.15-0.34-0.22-0.61
			C46.1,74.57,45.6,74,44.85,73.6C44.09,73.2,43.34,73,42.58,73c-0.65,0-1.22,0.13-1.71,0.38c-0.49,0.25-0.73,0.64-0.73,1.16
			c0,0.45,0.15,0.79,0.44,1.04c0.29,0.25,0.76,0.45,1.41,0.62l2.72,0.89c0.95,0.32,1.81,0.72,2.58,1.21
			c0.77,0.49,1.16,1.33,1.16,2.52c0,1.17-0.4,2.06-1.21,2.67c-0.8,0.61-1.93,0.91-3.38,0.91c-0.76,0-1.59-0.12-2.5-0.37
			c-0.91-0.24-1.56-0.59-1.97-1.03c0,0.47-0.08,0.78-0.25,0.92c-0.17,0.14-0.37,0.21-0.61,0.21c-0.27,0-0.49-0.06-0.67-0.18
			c-0.18-0.12-0.27-0.32-0.27-0.61v-3.59c0.01-0.22,0.09-0.39,0.25-0.5c0.16-0.11,0.35-0.17,0.55-0.17c0.31,0,0.53,0.07,0.65,0.22
			c0.12,0.14,0.22,0.35,0.28,0.63c0.22,0.96,0.73,1.68,1.52,2.15c0.79,0.48,1.76,0.72,2.89,0.72c0.69,0,1.28-0.13,1.77-0.39
			c0.49-0.26,0.74-0.69,0.74-1.28s-0.14-1.03-0.43-1.3c-0.28-0.28-0.79-0.52-1.51-0.74l-2.89-0.9c-0.9-0.28-1.69-0.66-2.38-1.12
			C38.34,76.6,38,75.91,38,74.99C38,73.62,38.49,72.7,39.47,72.23z"/>
		<path class="st0" d="M62.58,83.8c-0.75,0.4-1.37,0.6-1.85,0.6c-0.58,0-1.05-0.14-1.4-0.43c-0.35-0.28-0.59-0.72-0.72-1.3
			c-0.52,0.58-1.19,1.02-2.03,1.3c-0.84,0.28-1.73,0.42-2.68,0.42c-1.08,0-1.99-0.33-2.71-0.98c-0.73-0.66-1.09-1.51-1.09-2.56
			c0-1.89,0.93-3.05,2.78-3.47c1.86-0.42,3.67-0.71,5.44-0.87V74.8c0-0.55-0.24-0.94-0.71-1.15c-0.47-0.22-0.98-0.32-1.53-0.32
			c-0.99,0-1.74,0.11-2.26,0.32c-0.51,0.21-1.11,0.53-1.79,0.97c-0.06,0.04-0.13,0.06-0.19,0.09c-0.06,0.02-0.12,0.03-0.19,0.03
			c-0.24,0-0.46-0.11-0.65-0.34c-0.19-0.23-0.29-0.46-0.29-0.71c0-0.85,0.62-1.42,1.86-1.72c1.24-0.29,2.3-0.44,3.18-0.44
			c1.79,0,3.02,0.38,3.68,1.14c0.66,0.76,0.99,2.03,0.99,3.8v5.35c0,0.22,0.04,0.4,0.11,0.55c0.07,0.15,0.19,0.22,0.36,0.22
			c0.32,0,0.68-0.19,1.07-0.57c0.4-0.38,0.72-0.57,0.98-0.57c0.16,0,0.32,0.1,0.49,0.31c0.17,0.21,0.26,0.41,0.26,0.61
			C63.71,82.92,63.33,83.4,62.58,83.8z M58.32,78.11c-1.12,0.12-2.39,0.3-3.81,0.54c-1.42,0.24-2.13,0.96-2.13,2.14
			c0,0.6,0.22,1.04,0.67,1.34c0.45,0.29,0.98,0.44,1.59,0.44c0.74,0,1.41-0.13,2.02-0.4c0.61-0.27,1.16-0.59,1.65-0.97V78.11z"/>
		<path class="st0" d="M66.68,72.23c0.98-0.47,2.02-0.71,3.13-0.71c0.72,0,1.44,0.15,2.15,0.45c0.71,0.3,1.19,0.68,1.46,1.15
			l0.01-0.89c0-0.22,0.08-0.39,0.23-0.52c0.16-0.13,0.34-0.19,0.56-0.19c0.31,0,0.55,0.07,0.7,0.21c0.16,0.14,0.23,0.35,0.23,0.61
			l-0.04,3.05c-0.03,0.24-0.12,0.42-0.28,0.55s-0.35,0.19-0.59,0.19c-0.23,0-0.39-0.07-0.47-0.21c-0.08-0.14-0.15-0.34-0.22-0.61
			c-0.24-0.74-0.74-1.31-1.49-1.71C71.31,73.2,70.55,73,69.79,73c-0.65,0-1.22,0.13-1.71,0.38c-0.49,0.25-0.73,0.64-0.73,1.16
			c0,0.45,0.15,0.79,0.44,1.04c0.29,0.25,0.76,0.45,1.41,0.62l2.72,0.89c0.95,0.32,1.81,0.72,2.58,1.21
			c0.77,0.49,1.16,1.33,1.16,2.52c0,1.17-0.4,2.06-1.21,2.67c-0.8,0.61-1.93,0.91-3.38,0.91c-0.76,0-1.59-0.12-2.5-0.37
			c-0.91-0.24-1.56-0.59-1.97-1.03c0,0.47-0.08,0.78-0.25,0.92c-0.17,0.14-0.37,0.21-0.61,0.21c-0.27,0-0.49-0.06-0.67-0.18
			c-0.18-0.12-0.27-0.32-0.27-0.61v-3.59c0.01-0.22,0.09-0.39,0.25-0.5c0.16-0.11,0.35-0.17,0.55-0.17c0.31,0,0.53,0.07,0.65,0.22
			c0.12,0.14,0.22,0.35,0.28,0.63c0.22,0.96,0.73,1.68,1.52,2.15c0.79,0.48,1.76,0.72,2.89,0.72c0.69,0,1.28-0.13,1.77-0.39
			c0.49-0.26,0.74-0.69,0.74-1.28s-0.14-1.03-0.43-1.3c-0.28-0.28-0.79-0.52-1.51-0.74l-2.89-0.9c-0.9-0.28-1.69-0.66-2.38-1.12
			c-0.69-0.47-1.04-1.16-1.04-2.08C65.22,73.62,65.7,72.7,66.68,72.23z"/>
		<path class="st0" d="M83.94,73.38c1.06-1.24,2.49-1.86,4.29-1.86c0.84,0,1.57,0.13,2.19,0.4c0.62,0.27,1.18,0.61,1.69,1.01v-4.98
			l-2.51,0.66c-0.03,0-0.05,0-0.05,0c-0.01,0-0.02,0-0.05,0c-0.22,0-0.42-0.1-0.59-0.29c-0.17-0.19-0.26-0.4-0.26-0.62
			c0-0.3,0.08-0.5,0.24-0.6c0.16-0.09,0.36-0.18,0.59-0.25l4.09-1.17c0.01-0.01,0.04-0.01,0.06-0.02c0.03,0,0.06-0.01,0.1-0.01
			c0.15,0,0.28,0.05,0.39,0.14c0.11,0.1,0.17,0.22,0.17,0.38v16.08l1.54-0.22c0.04-0.01,0.08-0.01,0.13-0.02
			c0.05,0,0.1-0.01,0.16-0.01c0.28,0,0.51,0.07,0.68,0.2c0.17,0.13,0.25,0.31,0.25,0.55c0,0.55-0.31,0.86-0.93,0.95
			c-0.62,0.08-1.16,0.15-1.62,0.2c-0.28,0.04-0.59,0.09-0.93,0.14c-0.34,0.05-0.63,0.08-0.85,0.08c-0.25,0-0.41-0.09-0.49-0.27
			c-0.08-0.18-0.12-0.38-0.12-0.61v-0.72c-0.4,0.49-0.94,0.92-1.59,1.3c-0.66,0.38-1.4,0.56-2.23,0.56c-1.86,0-3.32-0.61-4.36-1.83
			c-1.04-1.22-1.57-2.76-1.57-4.62C82.35,76.15,82.88,74.62,83.94,73.38z M85.65,81.2c0.63,0.93,1.55,1.4,2.78,1.4
			c0.84,0,1.57-0.18,2.19-0.55c0.62-0.37,1.11-0.82,1.49-1.35v-5.92c-0.45-0.45-0.98-0.81-1.61-1.07c-0.63-0.26-1.35-0.39-2.17-0.39
			c-1.2,0-2.1,0.47-2.7,1.42c-0.61,0.95-0.91,2.02-0.91,3.21C84.71,79.19,85.02,80.27,85.65,81.2z"/>
		<path class="st0" d="M100.52,78.09c0,1.42,0.43,2.51,1.3,3.25c0.87,0.74,1.94,1.12,3.2,1.12c0.9,0,1.61-0.17,2.12-0.5
			c0.51-0.34,1-0.72,1.47-1.15c0.11-0.09,0.22-0.16,0.34-0.21c0.12-0.05,0.24-0.07,0.36-0.07c0.28,0,0.52,0.09,0.72,0.26
			c0.2,0.17,0.3,0.41,0.3,0.7c0,0.91-0.66,1.62-1.97,2.14c-1.31,0.52-2.46,0.78-3.43,0.78c-1.94,0-3.54-0.58-4.8-1.73
			c-1.26-1.15-1.89-2.7-1.89-4.65c0-1.93,0.58-3.49,1.73-4.7c1.15-1.21,2.72-1.81,4.7-1.81c1.42,0,2.71,0.5,3.88,1.5
			c1.17,1,1.75,2.29,1.75,3.87c0,0.54-0.16,0.87-0.49,0.97c-0.33,0.11-0.75,0.19-1.25,0.24H100.52z M106.72,73.96
			c-0.62-0.42-1.3-0.63-2.03-0.63c-1.25,0-2.24,0.3-2.97,0.9c-0.73,0.6-1.15,1.4-1.24,2.4h6.38c0.2,0,0.38-0.04,0.54-0.12
			c0.16-0.08,0.24-0.21,0.24-0.4C107.65,75.09,107.34,74.38,106.72,73.96z"/>
		<path class="st0" d="M122.2,65.81c0.11,0.1,0.17,0.22,0.17,0.38v16.08h2.59c0.27,0,0.46,0.1,0.58,0.29
			c0.12,0.2,0.18,0.42,0.18,0.69c0,0.23-0.07,0.44-0.21,0.62c-0.14,0.18-0.33,0.27-0.58,0.27h-7.1c-0.3,0-0.52-0.08-0.66-0.25
			c-0.14-0.17-0.21-0.39-0.21-0.66c0-0.26,0.07-0.49,0.2-0.67c0.13-0.19,0.33-0.28,0.61-0.28h2.41V67.96l-2.5,0.66
			c-0.03,0-0.05,0-0.05,0s-0.02,0-0.05,0c-0.22,0-0.42-0.1-0.59-0.29c-0.17-0.19-0.26-0.4-0.26-0.62c0-0.3,0.08-0.5,0.24-0.6
			c0.16-0.09,0.36-0.18,0.59-0.25l4.09-1.17c0.01-0.01,0.03-0.01,0.06-0.02c0.02,0,0.05-0.01,0.09-0.01
			C121.96,65.66,122.09,65.71,122.2,65.81z"/>
		<path class="st0" d="M139.16,83.8c-0.75,0.4-1.37,0.6-1.85,0.6c-0.58,0-1.05-0.14-1.4-0.43c-0.35-0.28-0.59-0.72-0.72-1.3
			c-0.52,0.58-1.19,1.02-2.03,1.3s-1.73,0.42-2.68,0.42c-1.08,0-1.99-0.33-2.71-0.98c-0.73-0.66-1.09-1.51-1.09-2.56
			c0-1.89,0.93-3.05,2.78-3.47c1.86-0.42,3.67-0.71,5.44-0.87V74.8c0-0.55-0.24-0.94-0.71-1.15s-0.98-0.32-1.53-0.32
			c-0.99,0-1.74,0.11-2.26,0.32c-0.51,0.21-1.11,0.53-1.79,0.97c-0.06,0.04-0.13,0.06-0.19,0.09c-0.06,0.02-0.12,0.03-0.19,0.03
			c-0.24,0-0.46-0.11-0.65-0.34c-0.19-0.23-0.29-0.46-0.29-0.71c0-0.85,0.62-1.42,1.86-1.72c1.24-0.29,2.3-0.44,3.18-0.44
			c1.79,0,3.02,0.38,3.68,1.14c0.66,0.76,0.99,2.03,0.99,3.8v5.35c0,0.22,0.04,0.4,0.11,0.55c0.07,0.15,0.19,0.22,0.36,0.22
			c0.32,0,0.68-0.19,1.07-0.57c0.4-0.38,0.72-0.57,0.98-0.57c0.16,0,0.32,0.1,0.49,0.31c0.17,0.21,0.26,0.41,0.26,0.61
			C140.29,82.92,139.91,83.4,139.16,83.8z M134.9,78.11c-1.12,0.12-2.39,0.3-3.81,0.54c-1.42,0.24-2.13,0.96-2.13,2.14
			c0,0.6,0.22,1.04,0.67,1.34c0.45,0.29,0.98,0.44,1.59,0.44c0.74,0,1.41-0.13,2.02-0.4c0.61-0.27,1.16-0.59,1.65-0.97V78.11z"/>
		<path class="st0" d="M158.36,82.59c-1.11,1.21-2.6,1.81-4.46,1.81c-0.87,0-1.63-0.13-2.28-0.39c-0.65-0.26-1.22-0.61-1.73-1.03
			v5.4h2.15c0.27,0,0.46,0.1,0.58,0.3c0.12,0.2,0.18,0.43,0.18,0.69c0,0.23-0.07,0.44-0.21,0.62s-0.33,0.27-0.58,0.27h-5.57
			c-0.3,0-0.52-0.09-0.66-0.25c-0.14-0.17-0.21-0.39-0.21-0.66c0-0.26,0.07-0.49,0.2-0.67c0.13-0.19,0.34-0.28,0.61-0.28h1.33V73.72
			l-1.52,0.37c-0.01,0.01-0.04,0.01-0.06,0.02c-0.03,0-0.06,0.01-0.1,0.01c-0.21,0-0.41-0.09-0.59-0.26
			c-0.18-0.17-0.28-0.37-0.28-0.59c0-0.24,0.05-0.43,0.16-0.58c0.11-0.15,0.26-0.25,0.46-0.31l2.95-0.85c0.03,0,0.05,0,0.05,0
			c0.01,0,0.02,0,0.05,0h0.07c0.15,0,0.28,0.04,0.38,0.13c0.11,0.08,0.16,0.2,0.16,0.35l0.21,2.01c0.34-0.72,0.91-1.31,1.7-1.78
			c0.79-0.47,1.71-0.71,2.74-0.71c1.86,0,3.31,0.61,4.35,1.82c1.04,1.21,1.57,2.75,1.57,4.62
			C160.03,79.84,159.47,81.38,158.36,82.59z M156.74,74.68c-0.63-0.92-1.55-1.38-2.78-1.38c-0.93,0-1.74,0.18-2.42,0.54
			c-0.68,0.36-1.23,0.82-1.65,1.37v5.92c0.45,0.45,1,0.8,1.67,1.07c0.67,0.27,1.45,0.4,2.33,0.4c1.24,0,2.18-0.46,2.82-1.39
			c0.64-0.92,0.96-2.01,0.96-3.26C157.68,76.7,157.37,75.61,156.74,74.68z"/>
		<path class="st0" d="M163.78,78.09c0,1.42,0.43,2.51,1.3,3.25c0.87,0.74,1.93,1.12,3.2,1.12c0.9,0,1.61-0.17,2.12-0.5
			c0.51-0.34,1-0.72,1.47-1.15c0.11-0.09,0.22-0.16,0.34-0.21c0.12-0.05,0.24-0.07,0.36-0.07c0.28,0,0.52,0.09,0.72,0.26
			c0.2,0.17,0.3,0.41,0.3,0.7c0,0.91-0.66,1.62-1.97,2.14c-1.31,0.52-2.46,0.78-3.43,0.78c-1.94,0-3.54-0.58-4.8-1.73
			c-1.26-1.15-1.89-2.7-1.89-4.65c0-1.93,0.58-3.49,1.73-4.7c1.15-1.21,2.72-1.81,4.7-1.81c1.42,0,2.71,0.5,3.88,1.5
			c1.17,1,1.75,2.29,1.75,3.87c0,0.54-0.16,0.87-0.49,0.97c-0.33,0.11-0.75,0.19-1.25,0.24H163.78z M169.98,73.96
			c-0.62-0.42-1.3-0.63-2.03-0.63c-1.25,0-2.24,0.3-2.97,0.9c-0.73,0.6-1.15,1.4-1.24,2.4h6.39c0.2,0,0.38-0.04,0.54-0.12
			c0.16-0.08,0.24-0.21,0.24-0.4C170.91,75.09,170.6,74.38,169.98,73.96z"/>
		<path class="st0" d="M176.96,73.38c1.06-1.24,2.49-1.86,4.29-1.86c0.84,0,1.57,0.13,2.19,0.4c0.62,0.27,1.18,0.61,1.69,1.01v-4.98
			l-2.51,0.66c-0.03,0-0.05,0-0.05,0c-0.01,0-0.02,0-0.05,0c-0.22,0-0.42-0.1-0.59-0.29c-0.17-0.19-0.26-0.4-0.26-0.62
			c0-0.3,0.08-0.5,0.24-0.6c0.16-0.09,0.36-0.18,0.59-0.25l4.09-1.17c0.01-0.01,0.04-0.01,0.06-0.02c0.03,0,0.06-0.01,0.1-0.01
			c0.15,0,0.28,0.05,0.39,0.14c0.11,0.1,0.17,0.22,0.17,0.38v16.08l1.54-0.22c0.04-0.01,0.08-0.01,0.13-0.02
			c0.05,0,0.1-0.01,0.16-0.01c0.28,0,0.51,0.07,0.68,0.2c0.17,0.13,0.25,0.31,0.25,0.55c0,0.55-0.31,0.86-0.93,0.95
			c-0.62,0.08-1.16,0.15-1.62,0.2c-0.28,0.04-0.59,0.09-0.93,0.14c-0.34,0.05-0.63,0.08-0.86,0.08c-0.25,0-0.41-0.09-0.49-0.27
			s-0.12-0.38-0.12-0.61v-0.72c-0.4,0.49-0.93,0.92-1.59,1.3c-0.66,0.38-1.4,0.56-2.23,0.56c-1.86,0-3.32-0.61-4.36-1.83
			c-1.04-1.22-1.57-2.76-1.57-4.62C175.37,76.15,175.9,74.62,176.96,73.38z M178.67,81.2c0.63,0.93,1.55,1.4,2.78,1.4
			c0.84,0,1.57-0.18,2.19-0.55c0.62-0.37,1.11-0.82,1.49-1.35v-5.92c-0.45-0.45-0.98-0.81-1.61-1.07c-0.63-0.26-1.35-0.39-2.17-0.39
			c-1.2,0-2.1,0.47-2.7,1.42c-0.61,0.95-0.91,2.02-0.91,3.21C177.73,79.19,178.04,80.27,178.67,81.2z"/>
		<path class="st0" d="M199.92,73.43c-0.85,0-1.61,0.19-2.27,0.56c-0.67,0.38-1.17,0.82-1.52,1.34v6.93h2.85
			c0.27,0,0.46,0.1,0.58,0.29c0.12,0.2,0.18,0.42,0.18,0.69c0,0.23-0.07,0.44-0.21,0.62c-0.14,0.18-0.33,0.27-0.58,0.27h-7.02
			c-0.3,0-0.52-0.08-0.66-0.25c-0.14-0.17-0.21-0.39-0.21-0.66c0-0.26,0.07-0.49,0.2-0.67c0.13-0.19,0.34-0.28,0.61-0.28h2.08v-8.55
			l-1.52,0.37c-0.01,0.01-0.03,0.01-0.06,0.02c-0.02,0-0.06,0.01-0.09,0.01c-0.21,0-0.41-0.09-0.59-0.26
			c-0.18-0.17-0.28-0.37-0.28-0.59c0-0.24,0.05-0.43,0.15-0.58c0.1-0.15,0.25-0.25,0.45-0.31l2.96-0.85c0.03,0,0.05,0,0.05,0
			c0.01,0,0.02,0,0.05,0h0.06c0.15,0,0.28,0.04,0.38,0.13c0.11,0.08,0.16,0.2,0.16,0.35l0.22,2.01c0.49-0.74,1.13-1.34,1.93-1.8
			s1.82-0.69,3.05-0.69c0.23,0,0.44,0.07,0.62,0.21c0.18,0.14,0.27,0.33,0.27,0.58v2.25c0,0.3-0.09,0.52-0.26,0.66
			c-0.17,0.14-0.39,0.21-0.66,0.21c-0.26,0-0.49-0.07-0.67-0.2c-0.19-0.13-0.28-0.34-0.28-0.61V73.43z"/>
		<path class="st0" d="M205.37,78.09c0,1.42,0.43,2.51,1.3,3.25c0.87,0.74,1.93,1.12,3.2,1.12c0.9,0,1.61-0.17,2.12-0.5
			c0.51-0.34,1-0.72,1.47-1.15c0.11-0.09,0.22-0.16,0.34-0.21c0.12-0.05,0.24-0.07,0.36-0.07c0.28,0,0.52,0.09,0.72,0.26
			c0.2,0.17,0.3,0.41,0.3,0.7c0,0.91-0.66,1.62-1.97,2.14c-1.31,0.52-2.46,0.78-3.43,0.78c-1.94,0-3.54-0.58-4.8-1.73
			c-1.26-1.15-1.89-2.7-1.89-4.65c0-1.93,0.58-3.49,1.73-4.7c1.15-1.21,2.72-1.81,4.7-1.81c1.42,0,2.71,0.5,3.88,1.5
			c1.17,1,1.75,2.29,1.75,3.87c0,0.54-0.16,0.87-0.49,0.97c-0.33,0.11-0.75,0.19-1.25,0.24H205.37z M211.57,73.96
			c-0.62-0.42-1.3-0.63-2.03-0.63c-1.25,0-2.24,0.3-2.97,0.9c-0.73,0.6-1.15,1.4-1.24,2.4h6.39c0.2,0,0.38-0.04,0.54-0.12
			c0.16-0.08,0.24-0.21,0.24-0.4C212.5,75.09,212.19,74.38,211.57,73.96z"/>
		<path class="st0" d="M225.61,73.43c-0.85,0-1.61,0.19-2.27,0.56c-0.67,0.38-1.17,0.82-1.52,1.34v6.93h2.85
			c0.27,0,0.46,0.1,0.58,0.29c0.12,0.2,0.18,0.42,0.18,0.69c0,0.23-0.07,0.44-0.21,0.62c-0.14,0.18-0.33,0.27-0.58,0.27h-7.02
			c-0.3,0-0.52-0.08-0.66-0.25s-0.21-0.39-0.21-0.66c0-0.26,0.07-0.49,0.2-0.67c0.13-0.19,0.34-0.28,0.61-0.28h2.08v-8.55
			l-1.52,0.37c-0.01,0.01-0.03,0.01-0.06,0.02c-0.02,0-0.06,0.01-0.09,0.01c-0.21,0-0.41-0.09-0.59-0.26
			c-0.18-0.17-0.28-0.37-0.28-0.59c0-0.24,0.05-0.43,0.15-0.58c0.1-0.15,0.25-0.25,0.45-0.31l2.96-0.85c0.03,0,0.05,0,0.05,0
			c0.01,0,0.02,0,0.05,0h0.06c0.15,0,0.28,0.04,0.38,0.13c0.11,0.08,0.16,0.2,0.16,0.35l0.22,2.01c0.49-0.74,1.13-1.34,1.93-1.8
			c0.8-0.46,1.82-0.69,3.05-0.69c0.23,0,0.44,0.07,0.62,0.21c0.18,0.14,0.27,0.33,0.27,0.58v2.25c0,0.3-0.09,0.52-0.25,0.66
			c-0.17,0.14-0.39,0.21-0.66,0.21c-0.26,0-0.49-0.07-0.67-0.2c-0.19-0.13-0.28-0.34-0.28-0.61V73.43z"/>
		<path class="st0" d="M241.19,83.8c-0.75,0.4-1.37,0.6-1.85,0.6c-0.58,0-1.05-0.14-1.4-0.43c-0.35-0.28-0.6-0.72-0.72-1.3
			c-0.52,0.58-1.19,1.02-2.03,1.3c-0.84,0.28-1.73,0.42-2.68,0.42c-1.08,0-1.99-0.33-2.71-0.98c-0.73-0.66-1.09-1.51-1.09-2.56
			c0-1.89,0.93-3.05,2.78-3.47c1.86-0.42,3.67-0.71,5.44-0.87V74.8c0-0.55-0.24-0.94-0.71-1.15c-0.47-0.22-0.98-0.32-1.53-0.32
			c-0.99,0-1.74,0.11-2.26,0.32c-0.51,0.21-1.11,0.53-1.79,0.97c-0.06,0.04-0.13,0.06-0.19,0.09c-0.06,0.02-0.12,0.03-0.19,0.03
			c-0.24,0-0.46-0.11-0.65-0.34c-0.19-0.23-0.29-0.46-0.29-0.71c0-0.85,0.62-1.42,1.86-1.72c1.24-0.29,2.3-0.44,3.18-0.44
			c1.79,0,3.02,0.38,3.68,1.14s0.99,2.03,0.99,3.8v5.35c0,0.22,0.04,0.4,0.11,0.55c0.07,0.15,0.19,0.22,0.36,0.22
			c0.32,0,0.68-0.19,1.07-0.57c0.4-0.38,0.72-0.57,0.98-0.57c0.16,0,0.32,0.1,0.49,0.31c0.17,0.21,0.26,0.41,0.26,0.61
			C242.32,82.92,241.94,83.4,241.19,83.8z M236.93,78.11c-1.12,0.12-2.39,0.3-3.81,0.54c-1.42,0.24-2.13,0.96-2.13,2.14
			c0,0.6,0.22,1.04,0.67,1.34c0.45,0.29,0.98,0.44,1.59,0.44c0.74,0,1.41-0.13,2.02-0.4c0.61-0.27,1.16-0.59,1.65-0.97V78.11z"/>
	</g>
	<g>
		<path class="st0" d="M80.52,98.04c-0.41,0-0.79,0.12-1.13,0.36c-0.34,0.24-0.62,0.54-0.84,0.9v3.6h0.95
			c0.14,0,0.23,0.05,0.28,0.14c0.05,0.09,0.07,0.22,0.07,0.38c0,0.13-0.03,0.24-0.1,0.34s-0.15,0.15-0.27,0.15h-2.82
			c-0.29,0-0.44-0.16-0.44-0.49c0-0.35,0.13-0.53,0.4-0.53h0.75v-7.79L76,95.47c-0.01,0-0.02,0-0.03,0.01
			c-0.01,0-0.02,0.01-0.03,0.01c-0.12,0-0.23-0.05-0.32-0.16c-0.09-0.11-0.14-0.22-0.14-0.34c0-0.08,0.01-0.15,0.03-0.2
			c0.02-0.05,0.05-0.1,0.1-0.13s0.1-0.06,0.14-0.07c0.04-0.02,0.1-0.03,0.18-0.06l2.22-0.64c0.02-0.01,0.05-0.01,0.08-0.01
			c0.08,0,0.16,0.03,0.22,0.08c0.06,0.05,0.09,0.12,0.09,0.21v3.96c0.25-0.3,0.57-0.55,0.95-0.76c0.38-0.2,0.8-0.31,1.24-0.31
			c0.72,0,1.3,0.21,1.72,0.63c0.42,0.42,0.63,1,0.63,1.72v3.49h0.94c0.14,0,0.23,0.05,0.28,0.14s0.08,0.22,0.08,0.38
			c0,0.13-0.03,0.24-0.1,0.34s-0.16,0.15-0.27,0.15h-2.82c-0.29,0-0.44-0.16-0.44-0.49c0-0.35,0.13-0.53,0.4-0.53h0.76v-3.38
			c0-0.47-0.12-0.83-0.35-1.09C81.33,98.17,80.98,98.04,80.52,98.04z"/>
		<path class="st0" d="M88.57,104.06c-1.08,0-1.95-0.32-2.6-0.95c-0.66-0.64-0.99-1.49-0.99-2.55c0-1.07,0.33-1.92,0.99-2.55
			c0.66-0.63,1.52-0.95,2.6-0.95c1.05,0,1.9,0.32,2.55,0.96c0.64,0.64,0.96,1.49,0.96,2.54c0,1.05-0.32,1.9-0.97,2.54
			C90.47,103.74,89.62,104.06,88.57,104.06z M88.57,98.04c-0.72,0-1.28,0.23-1.69,0.7c-0.41,0.46-0.61,1.07-0.61,1.82
			c0,0.75,0.2,1.36,0.61,1.83c0.41,0.46,0.97,0.7,1.69,0.7c0.7,0,1.24-0.23,1.64-0.7s0.59-1.08,0.59-1.82s-0.2-1.35-0.59-1.82
			C89.82,98.27,89.27,98.04,88.57,98.04z"/>
		<path class="st0" d="M95.79,103.15c0.17,0,0.32-0.03,0.44-0.1s0.22-0.14,0.28-0.21c0.06-0.08,0.13-0.15,0.22-0.21
			c0.08-0.07,0.18-0.1,0.27-0.1c0.12,0,0.22,0.04,0.3,0.13c0.08,0.08,0.12,0.19,0.12,0.31c0,0.22-0.1,0.41-0.3,0.59
			s-0.43,0.31-0.71,0.4c-0.27,0.09-0.54,0.13-0.81,0.13c-0.45,0-0.85-0.16-1.19-0.47c-0.34-0.32-0.51-0.69-0.51-1.11V98.4h-0.87
			c-0.16,0-0.28-0.04-0.36-0.13c-0.08-0.09-0.12-0.21-0.12-0.36c0-0.15,0.04-0.27,0.11-0.38c0.08-0.1,0.18-0.15,0.33-0.15h0.9
			c0-1.52,0.23-2.28,0.68-2.28c0.17,0,0.33,0.05,0.46,0.14v0.12c0,0.03,0,0.09,0.01,0.17c0,0.08,0.01,0.14,0.01,0.17v1.68h1.51
			c0.14,0,0.24,0.05,0.31,0.15c0.07,0.1,0.1,0.23,0.1,0.39c0,0.13-0.04,0.25-0.12,0.34s-0.18,0.14-0.31,0.14h-1.5v3.91
			C95.06,102.87,95.3,103.15,95.79,103.15z"/>
		<path class="st0" d="M99.26,100.69c0,0.73,0.23,1.3,0.68,1.71s1.04,0.61,1.76,0.61c0.23,0,0.45-0.02,0.63-0.07
			s0.37-0.12,0.53-0.22c0.17-0.1,0.3-0.19,0.39-0.27c0.1-0.08,0.23-0.2,0.39-0.35c0.12-0.1,0.25-0.15,0.38-0.15
			c0.16,0,0.29,0.05,0.4,0.14c0.11,0.1,0.16,0.22,0.16,0.38c0,0.23-0.1,0.46-0.31,0.66c-0.21,0.21-0.46,0.37-0.77,0.51
			c-0.31,0.13-0.62,0.23-0.96,0.31s-0.63,0.11-0.91,0.11c-0.7,0-1.33-0.14-1.88-0.42s-0.98-0.68-1.29-1.21
			c-0.31-0.53-0.46-1.14-0.46-1.84c0-1.06,0.32-1.92,0.94-2.57c0.63-0.65,1.48-0.97,2.55-0.97c0.39,0,0.76,0.07,1.13,0.21
			c0.37,0.14,0.69,0.34,0.98,0.58s0.52,0.55,0.69,0.91s0.26,0.75,0.26,1.16c0,0.13-0.02,0.24-0.06,0.32
			c-0.04,0.08-0.1,0.15-0.19,0.18c-0.08,0.04-0.17,0.07-0.27,0.08c-0.09,0.02-0.21,0.03-0.35,0.05c-0.01,0-0.02,0-0.03,0
			s-0.02,0-0.03,0s-0.02,0-0.03,0L99.26,100.69z M103.14,99.55c0-0.51-0.16-0.89-0.47-1.14c-0.31-0.25-0.69-0.37-1.14-0.37
			c-0.67,0-1.21,0.16-1.61,0.49c-0.4,0.33-0.62,0.78-0.68,1.34l3.47-0.08C102.99,99.79,103.14,99.7,103.14,99.55z"/>
		<path class="st0" d="M108.14,93.9c0.08,0,0.16,0.03,0.22,0.08c0.06,0.05,0.09,0.12,0.09,0.21v8.72h1.41
			c0.14,0,0.24,0.05,0.31,0.15c0.07,0.1,0.1,0.23,0.1,0.38c0,0.14-0.04,0.25-0.12,0.34c-0.08,0.09-0.18,0.14-0.31,0.14h-3.86
			c-0.16,0-0.28-0.04-0.35-0.13c-0.08-0.09-0.12-0.21-0.12-0.36c0-0.15,0.04-0.27,0.11-0.37s0.18-0.15,0.33-0.15h1.31v-7.76
			l-1.36,0.36c-0.01,0-0.02,0-0.03,0.01c-0.01,0-0.02,0.01-0.03,0.01c-0.12,0-0.23-0.05-0.32-0.16c-0.09-0.11-0.14-0.22-0.14-0.34
			c0-0.08,0.01-0.15,0.03-0.2c0.02-0.05,0.05-0.1,0.1-0.13c0.05-0.03,0.1-0.06,0.14-0.08c0.04-0.02,0.1-0.03,0.18-0.06l2.22-0.64
			C108.09,93.9,108.11,93.9,108.14,93.9z"/>
		<path class="st0" d="M120.91,100.56c0,1.04-0.29,1.89-0.86,2.54c-0.58,0.65-1.36,0.97-2.35,0.97c-0.45,0-0.86-0.09-1.24-0.28
			c-0.38-0.19-0.7-0.43-0.96-0.73c0,0.61-0.19,0.91-0.55,0.91c-0.34,0-0.51-0.24-0.51-0.72v-8.13l-1.36,0.36
			c-0.01,0-0.02,0-0.03,0.01s-0.02,0.01-0.03,0.01c-0.12,0-0.23-0.05-0.32-0.16c-0.09-0.11-0.14-0.22-0.14-0.34
			c0-0.08,0.01-0.15,0.03-0.2c0.02-0.05,0.05-0.1,0.1-0.13c0.05-0.03,0.1-0.06,0.14-0.07c0.04-0.02,0.1-0.03,0.18-0.06l2.22-0.64
			c0.02-0.01,0.05-0.01,0.08-0.01c0.08,0,0.16,0.03,0.22,0.08c0.06,0.05,0.09,0.12,0.09,0.21v3.78c0.3-0.29,0.61-0.51,0.94-0.66
			c0.33-0.15,0.71-0.23,1.16-0.23c0.97,0,1.74,0.33,2.32,0.98C120.62,98.7,120.91,99.54,120.91,100.56z M119.63,100.56
			c0-0.46-0.07-0.87-0.21-1.25c-0.14-0.37-0.37-0.68-0.67-0.92c-0.3-0.24-0.66-0.36-1.08-0.36c-0.86,0-1.55,0.26-2.06,0.79v3.22
			c0.47,0.69,1.14,1.03,2,1.03c0.43,0,0.8-0.12,1.12-0.35c0.31-0.23,0.54-0.54,0.69-0.91C119.56,101.44,119.63,101.02,119.63,100.56
			z"/>
		<path class="st0" d="M125.3,104.06c-1.08,0-1.95-0.32-2.6-0.95s-0.98-1.49-0.98-2.55c0-1.07,0.33-1.92,0.98-2.55
			c0.66-0.63,1.52-0.95,2.6-0.95c1.05,0,1.9,0.32,2.55,0.96c0.64,0.64,0.96,1.49,0.96,2.54c0,1.05-0.32,1.9-0.97,2.54
			C127.2,103.74,126.36,104.06,125.3,104.06z M125.3,98.04c-0.72,0-1.28,0.23-1.69,0.7c-0.41,0.46-0.61,1.07-0.61,1.82
			c0,0.75,0.2,1.36,0.61,1.83c0.41,0.46,0.97,0.7,1.69,0.7c0.7,0,1.24-0.23,1.64-0.7s0.6-1.08,0.6-1.82s-0.2-1.35-0.59-1.82
			C126.55,98.27,126,98.04,125.3,98.04z"/>
		<path class="st0" d="M132.95,103.08c0.49,0,0.93-0.11,1.34-0.34s0.69-0.52,0.85-0.86v-3.61l-0.83,0.2
			c-0.02,0.01-0.05,0.01-0.09,0.01c-0.12,0-0.22-0.05-0.32-0.14c-0.1-0.1-0.15-0.2-0.15-0.32c0-0.27,0.11-0.43,0.33-0.49l1.84-0.46
			c0.03-0.01,0.06-0.01,0.1-0.01c0.09,0,0.17,0.02,0.22,0.07c0.05,0.05,0.08,0.12,0.08,0.21v5.48h0.87c0.13,0,0.23,0.04,0.3,0.13
			c0.07,0.09,0.11,0.2,0.11,0.33c0,0.27-0.11,0.43-0.33,0.48l-1.58,0.17c-0.12,0-0.21-0.04-0.27-0.12s-0.11-0.21-0.14-0.39
			l-0.09-0.57c-0.23,0.34-0.58,0.62-1.03,0.85c-0.46,0.23-0.93,0.34-1.43,0.34c-0.68,0-1.21-0.22-1.6-0.65
			c-0.39-0.43-0.58-1-0.58-1.71v-3.44l-0.83,0.2c-0.02,0.01-0.05,0.01-0.08,0.01c-0.12,0-0.22-0.05-0.32-0.14
			c-0.1-0.1-0.15-0.2-0.15-0.32c0-0.27,0.11-0.43,0.33-0.49l1.85-0.46c0.03-0.01,0.06-0.01,0.09-0.01c0.09,0,0.16,0.02,0.22,0.07
			c0.05,0.05,0.08,0.12,0.08,0.21v4.26c0,0.44,0.1,0.8,0.31,1.07S132.55,103.08,132.95,103.08z"/>
		<path class="st0" d="M141,103.15c0.17,0,0.32-0.03,0.44-0.1s0.22-0.14,0.28-0.21c0.06-0.08,0.13-0.15,0.22-0.21
			c0.08-0.07,0.18-0.1,0.27-0.1c0.12,0,0.22,0.04,0.3,0.13c0.08,0.08,0.12,0.19,0.12,0.31c0,0.22-0.1,0.41-0.3,0.59
			s-0.43,0.31-0.71,0.4c-0.27,0.09-0.54,0.13-0.81,0.13c-0.45,0-0.85-0.16-1.19-0.47c-0.34-0.32-0.51-0.69-0.51-1.11V98.4h-0.87
			c-0.16,0-0.28-0.04-0.36-0.13c-0.08-0.09-0.12-0.21-0.12-0.36c0-0.15,0.04-0.27,0.11-0.38c0.08-0.1,0.18-0.15,0.33-0.15h0.9
			c0-1.52,0.23-2.28,0.68-2.28c0.17,0,0.33,0.05,0.46,0.14v0.12c0,0.03,0,0.09,0.01,0.17c0,0.08,0.01,0.14,0.01,0.17v1.68h1.51
			c0.14,0,0.24,0.05,0.31,0.15c0.07,0.1,0.1,0.23,0.1,0.39c0,0.13-0.04,0.25-0.12,0.34s-0.18,0.14-0.31,0.14h-1.5v3.91
			C140.27,102.87,140.51,103.15,141,103.15z"/>
		<path class="st0" d="M143.43,103.44c0-0.15,0.04-0.27,0.11-0.37s0.18-0.15,0.33-0.15h0.79v-4.68l-0.83,0.23
			c-0.02,0.01-0.05,0.01-0.08,0.01c-0.12,0-0.22-0.05-0.32-0.14c-0.1-0.1-0.15-0.2-0.15-0.32c0-0.27,0.11-0.43,0.33-0.49l1.85-0.46
			c0.03-0.01,0.06-0.01,0.09-0.01c0.09,0,0.16,0.02,0.21,0.07c0.05,0.05,0.08,0.11,0.08,0.2v5.59h0.89c0.14,0,0.24,0.05,0.31,0.15
			s0.1,0.23,0.1,0.38c0,0.13-0.04,0.24-0.12,0.33s-0.18,0.14-0.31,0.14h-2.82C143.59,103.92,143.43,103.76,143.43,103.44z
			 M145.83,95.42c-0.17,0.17-0.38,0.26-0.62,0.26c-0.24,0-0.45-0.09-0.62-0.26c-0.17-0.17-0.26-0.38-0.26-0.62s0.09-0.45,0.26-0.62
			c0.17-0.17,0.38-0.26,0.62-0.26c0.24,0,0.45,0.09,0.62,0.26c0.17,0.17,0.25,0.38,0.25,0.62S146,95.25,145.83,95.42z"/>
		<path class="st0" d="M153.11,98.11c0.04-0.26,0.09-0.45,0.17-0.56c0.08-0.11,0.23-0.17,0.46-0.17c0.13,0,0.22,0.06,0.29,0.18
			c0.07,0.12,0.1,0.26,0.1,0.43v8.24h0.72c0.14,0,0.25,0.05,0.33,0.14s0.11,0.22,0.11,0.38c0,0.15-0.04,0.28-0.12,0.36
			c-0.08,0.09-0.2,0.13-0.35,0.13h-3.03c-0.13,0-0.23-0.05-0.31-0.14c-0.08-0.09-0.12-0.21-0.12-0.34c0-0.16,0.03-0.29,0.1-0.39
			s0.17-0.15,0.31-0.15h1.17v-2.93c-0.55,0.52-1.2,0.77-1.93,0.77c-0.65,0-1.22-0.15-1.72-0.46c-0.49-0.31-0.87-0.72-1.12-1.25
			c-0.26-0.53-0.38-1.13-0.38-1.8c0-0.67,0.12-1.27,0.36-1.8c0.24-0.52,0.6-0.94,1.07-1.24s1.03-0.46,1.67-0.46
			c0.44,0,0.86,0.1,1.24,0.3C152.52,97.55,152.84,97.8,153.11,98.11z M149.08,100.56c0,0.45,0.07,0.87,0.21,1.24
			s0.36,0.68,0.66,0.92c0.3,0.24,0.66,0.36,1.07,0.36c0.81,0,1.45-0.27,1.93-0.8v-3.22c-0.47-0.69-1.13-1.03-1.97-1.03
			c-0.31,0-0.59,0.07-0.84,0.21s-0.45,0.33-0.6,0.56s-0.26,0.5-0.34,0.8S149.08,100.22,149.08,100.56z"/>
		<path class="st0" d="M159.16,103.08c0.49,0,0.93-0.11,1.34-0.34s0.69-0.52,0.85-0.86v-3.61l-0.83,0.2
			c-0.02,0.01-0.05,0.01-0.09,0.01c-0.12,0-0.22-0.05-0.32-0.14c-0.1-0.1-0.15-0.2-0.15-0.32c0-0.27,0.11-0.43,0.33-0.49l1.84-0.46
			c0.03-0.01,0.06-0.01,0.1-0.01c0.09,0,0.17,0.02,0.22,0.07c0.05,0.05,0.08,0.12,0.08,0.21v5.48h0.87c0.13,0,0.23,0.04,0.3,0.13
			c0.07,0.09,0.11,0.2,0.11,0.33c0,0.27-0.11,0.43-0.33,0.48l-1.58,0.17c-0.12,0-0.21-0.04-0.27-0.12s-0.11-0.21-0.14-0.39
			l-0.09-0.57c-0.23,0.34-0.58,0.62-1.03,0.85c-0.46,0.23-0.93,0.34-1.43,0.34c-0.68,0-1.21-0.22-1.6-0.65
			c-0.39-0.43-0.58-1-0.58-1.71v-3.44l-0.83,0.2c-0.02,0.01-0.05,0.01-0.08,0.01c-0.12,0-0.22-0.05-0.32-0.14
			c-0.1-0.1-0.15-0.2-0.15-0.32c0-0.27,0.11-0.43,0.33-0.49l1.85-0.46c0.03-0.01,0.06-0.01,0.09-0.01c0.09,0,0.16,0.02,0.22,0.07
			c0.05,0.05,0.08,0.12,0.08,0.21v4.26c0,0.44,0.1,0.8,0.31,1.07S158.76,103.08,159.16,103.08z"/>
		<path class="st0" d="M165.54,100.69c0,0.73,0.23,1.3,0.68,1.71s1.04,0.61,1.76,0.61c0.23,0,0.45-0.02,0.63-0.07
			s0.37-0.12,0.53-0.22c0.17-0.1,0.3-0.19,0.39-0.27c0.1-0.08,0.23-0.2,0.39-0.35c0.12-0.1,0.25-0.15,0.38-0.15
			c0.16,0,0.29,0.05,0.4,0.14c0.11,0.1,0.16,0.22,0.16,0.38c0,0.23-0.1,0.46-0.31,0.66c-0.21,0.21-0.46,0.37-0.77,0.51
			c-0.31,0.13-0.62,0.23-0.96,0.31s-0.63,0.11-0.91,0.11c-0.7,0-1.33-0.14-1.88-0.42s-0.98-0.68-1.29-1.21
			c-0.31-0.53-0.46-1.14-0.46-1.84c0-1.06,0.32-1.92,0.94-2.57c0.63-0.65,1.48-0.97,2.55-0.97c0.39,0,0.76,0.07,1.13,0.21
			c0.37,0.14,0.69,0.34,0.98,0.58s0.52,0.55,0.69,0.91s0.26,0.75,0.26,1.16c0,0.13-0.02,0.24-0.06,0.32
			c-0.04,0.08-0.1,0.15-0.19,0.18c-0.08,0.04-0.17,0.07-0.27,0.08c-0.09,0.02-0.21,0.03-0.35,0.05c-0.01,0-0.02,0-0.03,0
			s-0.02,0-0.03,0s-0.02,0-0.03,0L165.54,100.69z M169.42,99.55c0-0.51-0.16-0.89-0.47-1.14c-0.31-0.25-0.69-0.37-1.14-0.37
			c-0.67,0-1.21,0.16-1.61,0.49c-0.4,0.33-0.62,0.78-0.68,1.34l3.47-0.08C169.28,99.79,169.42,99.7,169.42,99.55z"/>
	</g>
	<path class="st0" d="M192.32,15.12c-6.52-2.42-13.15-4.13-20.21-2.45c-6.32,1.5-12.32,3.71-17.75,7.34
		c-4.87,3.26-9.73,6.55-14.62,9.79c-9.28,6.17-19.55,8.97-30.63,9.02c-8.2,0.04-15.88-2.41-23.45-5.14
		c-4.64-1.67-9.03-4.05-13.7-5.61c-5.22-1.75-10.61-2.98-15.94-4.36c-5.77-1.5-14-3.1-15.04-3.07c-3.67,0.09-4.98,1.14-5.43,1.68
		c0,0,0,0.01,0,0.01c0.22,0.07,1.21,0.53,1.41,0.59c5.18,1.49,10.43,2.9,15.75,3.65c4.7,0.67,9.29,1.49,13.73,3.13
		c4.53,1.67,9.05,3.34,13.55,5.09c10.6,4.11,21.4,6.88,32.95,6.07c8.89-0.62,17.26-2.46,24.52-7.99c2.37-1.81,4.91-3.42,7.41-5.04
		c10.87-7.04,22.68-11.08,35.74-10.82c3.63,0.07,7.26,0.32,11.17,0.55C193.24,17.64,193.67,15.63,192.32,15.12L192.32,15.12z"/>
	<path class="st0" d="M202.61,25.08c0.15-0.31,0.29-0.62,0.44-0.94c-1.69-1.09-3.25-2.62-5.1-3.17c-3.29-0.97,1.21,0.37-14.14-0.76
		c-15.35-1.13-25.03,0.88-37.7,9.24c-3.46,2.28-6.87,4.61-10.29,6.95c-3.66,2.5-7.68,4.12-12.01,5.03
		c-13.75,2.91-27.18,1.77-40.32-3.19c-6.88-2.6-13.79-5.1-20.71-7.6c-2.86-1.03-5.82-1.64-9.4-1.73c0.66,0.57,0.86,0.86,1.13,0.96
		c6.33,2.41,12.67,4.82,19.02,7.17c9.83,3.64,19.83,6.59,30.19,8.39c11.71,2.03,22.87,1.39,33.21-5.2
		c9.27-5.91,19.27-10.31,29.71-13.62c9.85-3.12,19.95-4.42,30.26-2.29C198.77,24.71,200.7,24.83,202.61,25.08z"/>
	<path class="st0" d="M20.98,25.31c-0.04,0.24-0.07,0.47-0.11,0.71c0.78,0.15,1.56,0.31,2.34,0.46c7.34,1.35,14.81,2.2,21.98,4.17
		c8.84,2.43,17.41,5.83,26.11,8.75c10.12,3.4,20.2,6.92,30.4,10.07c9.01,2.78,18.14,3.08,27.02-0.64c4.76-1.99,9.33-4.43,14.01-6.62
		c5.3-2.48,10.43-5.54,15.98-7.23c16.18-4.94,32.76-6.97,49.69-5.03c0.55,0.06,1.13-0.12,1.7-0.19c0.04-0.26,0.08-0.52,0.11-0.77
		c-1.58-0.52-3.12-1.24-4.74-1.51c-3.4-0.57-6.86-0.73-10.24-1.37c-9.17-1.75-18.16-0.52-26.88,2.12
		c-10.36,3.13-20.34,7.38-29.48,13.27c-10.44,6.72-21.69,8.12-33.73,6.26C90.84,45.54,77.22,41,63.89,35.68
		c-10.1-4.04-20.34-7.22-31.05-8.89C28.91,26.17,24.93,25.79,20.98,25.31z"/>
	<path class="st0" d="M39.35,17.55c0,0.9,11.62,3.06,18.98,4.56c8.4,1.72,16.23,4.88,24.13,8.05c6.26,2.52,12.76,4.84,19.38,5.95
		c13.44,2.24,26.02-0.8,37.41-8.42c5.06-3.39,10.05-6.9,15.24-10.08c3.02-1.85,6.27-3.41,9.57-4.67c6.6-2.53,13.41-3.94,20.55-2.43
		c-3.14-2.01-5.33-2.68-8.41-2.67c-5.22,0.01-10.34,0.65-15.12,2.86c-4.48,2.07-8.97,4.15-13.31,6.49
		c-5.46,2.94-10.77,6.16-16.16,9.24c-5.99,3.43-12.51,5.25-19.34,5.76c-4.33,0.33-8.72,0.3-13.06,0.03
		c-8.08-0.51-15.92-1.98-23.13-6.04c-5.66-3.18-11.8-5.08-18.23-6C50.67,19.14,39.35,16.65,39.35,17.55z"/>
	<path class="st0" d="M41.12,31.4c-0.15,0.31-0.29,0.62-0.44,0.92c3.01,1.03,6.02,2.06,9.04,3.08c4.45,1.51,8.98,2.79,13.33,4.55
		c8.19,3.31,16.26,6.94,24.42,10.35c15.69,6.56,31.49,6.76,47.3,0.46c4.27-1.7,8.45-3.63,12.62-5.56
		c9.77-4.52,19.99-7.54,30.61-9.13c10.71-1.61,21.51-1.59,32.31-1.4c3.1,0.06,6.2,0.28,9.31,0.42c-3.29-1.97-6.79-2.79-10.41-3.19
		c-10.46-1.16-20.84-0.53-31.24,0.87c-12.58,1.69-24.39,5.36-35.38,11.81c-4.14,2.43-8.63,4.3-13.06,6.19
		c-8.01,3.42-16.41,3.61-24.7,1.6c-7.35-1.78-14.53-4.29-21.75-6.6c-6.01-1.92-11.98-3.99-17.95-6.02
		c-4.01-1.36-8.01-2.77-12.01-4.16C49.11,34.19,45.11,32.79,41.12,31.4z"/>
	<path class="st0" d="M169.79,5.82c-3.72-0.73-7.33-0.22-10.77,1.07c-8.48,3.18-16.94,6.44-25.35,9.82
		c-4.58,1.84-11.11,2.86-13.55,5.98c-2.44,3.12-17.44,4.66-26.59,2.3c-3.67-0.95-7.35-1.82-11.06-2.59
		c-5.59-1.17-11.21-2.22-16.81-3.33c0.64,0.71,1.44,1.06,2.25,1.4c2.75,1.14,5.65,2.03,8.23,3.46c6.67,3.7,13.81,5.4,21.33,6.15
		c12.67,1.26,24.74-0.19,35.85-6.87c1.77-1.06,3.61-2.01,5.38-3.08C148.51,14.16,158.3,8.2,169.79,5.82z"/>
	<path class="st0" d="M78.78,19.59c-0.05,0.21-0.11,0.42-0.16,0.64c4.57,1.07,9.13,2.13,13.7,3.22c7.13,1.71,14.14,1.27,21.03-1.16
		c2.06-0.73,4.08-1.56,6.07-2.45c11.24-4.97,22.36-10.23,34.09-14c4.53-1.46,9.07-2.46,13.86-2.17c0.7,0.04,1.42-0.21,2.13-0.32
		c-3.09-0.79-6.17-1.18-9.24-1.23c-6.17-0.11-12.13,1.32-17.82,3.47c-8.7,3.29-17.27,6.93-25.85,10.52
		c-7.84,3.28-15.99,5.11-24.47,4.92C87.66,20.91,83.22,20.08,78.78,19.59z"/>
	<path class="st0" d="M148.88,0.83c-2.69,0.44-5.44,0.65-8.05,1.38c-5.53,1.55-11.03,3.23-16.45,5.12
		c-13.51,4.7-27.15,8.68-41.62,8.88c-2.62,0.04-5.24,0.38-7.86,0.58c5.95,1,11.87,2.01,17.82,2.16c8.25,0.22,16.16-1.79,23.75-5.05
		C127.14,9.31,137.64,4.31,148.88,0.83z"/>
	<path class="st0" d="M60.94,41.73c0,0.99,1.25,0.99,1.95,1.33c6.49,3.12,12.89,6.47,19.54,9.23c8.3,3.44,12.35,4.08,18.47,4.09
		C86.79,53.96,60.94,40.74,60.94,41.73z"/>
	<path class="st0" d="M104.66,10.82c11.95-2.48,23.16-7.4,34.83-10.82C127.47,2.29,115.86,5.89,104.66,10.82z"/>
</g>
</svg>
