<?xml version="1.0" encoding="utf-8"?>
<!-- Generator: Adobe Illustrator 26.0.0, SVG Export Plug-In . SVG Version: 6.00 Build 0)  -->
<svg version="1.1" id="Capa_1" xmlns="http://www.w3.org/2000/svg" xmlns:xlink="http://www.w3.org/1999/xlink" x="0px" y="0px"
	 viewBox="0 0 315.59 138.98" style="enable-background:new 0 0 315.59 138.98;" xml:space="preserve">
<style type="text/css">
	.st0054836{fill:#1E1E1C;stroke:#282525;stroke-miterlimit:10;}
	.st1ce{fill:#1E1E1C;}
	.st2cr{font-family:'Cutive-Regular';}
	.st3fr{font-size:15.3816px;}
	.st4gr{fill:#396BA4;}
</style>
<g>
	<g>
		<path class="st0054836" d="M18.46,107.39c-1.36,1.57-3.25,2.36-5.65,2.36c-1.13,0-2.15-0.24-3.05-0.72c-0.9-0.48-1.64-1.04-2.22-1.7
			c0,0.53-0.09,1.01-0.27,1.44c-0.18,0.42-0.53,0.64-1.06,0.64c-0.47,0-0.79-0.17-0.96-0.52c-0.17-0.35-0.26-0.75-0.26-1.2V88.36
			l-3.26,0.86c-0.04,0-0.06,0-0.07,0c-0.01,0-0.03,0-0.07,0c-0.29,0-0.54-0.13-0.77-0.38c-0.23-0.25-0.34-0.52-0.34-0.8
			c0-0.39,0.1-0.65,0.31-0.77c0.21-0.12,0.46-0.23,0.77-0.32l5.32-1.52c0.02-0.01,0.04-0.02,0.08-0.02c0.03,0,0.07-0.01,0.12-0.01
			c0.19,0,0.37,0.06,0.52,0.19s0.23,0.29,0.23,0.49v9.05c0.65-0.64,1.37-1.15,2.16-1.53c0.78-0.39,1.74-0.58,2.87-0.58
			c2.34,0,4.2,0.8,5.57,2.4c1.38,1.6,2.06,3.59,2.06,5.97C20.5,103.81,19.82,105.82,18.46,107.39z M16.27,97.16
			c-0.79-1.21-1.96-1.82-3.52-1.82c-1.11,0-2.07,0.17-2.88,0.51c-0.81,0.34-1.48,0.8-2.04,1.38v7.69c0.49,0.71,1.13,1.3,1.91,1.77
			s1.74,0.7,2.87,0.7c1.6,0,2.81-0.6,3.62-1.81c0.81-1.21,1.22-2.62,1.22-4.23C17.45,99.78,17.06,98.37,16.27,97.16z"/>
		<path class="st0054836" d="M33.68,95.48c-1.11,0-2.09,0.24-2.96,0.73c-0.87,0.49-1.52,1.07-1.98,1.75v9.01h3.7
			c0.35,0,0.6,0.13,0.76,0.38c0.16,0.25,0.23,0.55,0.23,0.89c0,0.3-0.09,0.57-0.27,0.81c-0.18,0.23-0.43,0.35-0.75,0.35h-9.13
			c-0.39,0-0.67-0.11-0.86-0.33c-0.18-0.22-0.28-0.51-0.28-0.86c0-0.34,0.09-0.63,0.26-0.88c0.17-0.24,0.43-0.37,0.79-0.37h2.71
			V95.86l-1.98,0.48c-0.02,0.01-0.04,0.02-0.08,0.02c-0.03,0-0.07,0.01-0.12,0.01c-0.28,0-0.53-0.11-0.77-0.34
			c-0.24-0.23-0.36-0.48-0.36-0.77c0-0.31,0.07-0.56,0.2-0.75c0.13-0.19,0.33-0.32,0.59-0.41L27.26,93c0.04,0,0.06,0,0.07,0
			c0.01,0,0.03,0,0.07,0h0.08c0.19,0,0.36,0.05,0.5,0.17c0.14,0.11,0.21,0.26,0.21,0.46l0.29,2.61c0.64-0.96,1.47-1.74,2.51-2.34
			c1.04-0.6,2.36-0.9,3.97-0.9c0.3,0,0.57,0.09,0.81,0.27c0.24,0.18,0.35,0.43,0.35,0.75v2.93c0,0.39-0.11,0.67-0.33,0.85
			c-0.22,0.18-0.51,0.27-0.86,0.27c-0.34,0-0.63-0.09-0.88-0.26c-0.24-0.17-0.37-0.44-0.37-0.8V95.48z"/>
		<path class="st0054836" d="M38.52,107.38c0.17-0.24,0.44-0.37,0.79-0.37h1.89V95.83l-1.98,0.54c-0.02,0.01-0.04,0.02-0.08,0.02
			c-0.03,0-0.07,0.01-0.12,0.01c-0.28,0-0.53-0.11-0.77-0.34c-0.24-0.23-0.36-0.48-0.36-0.77c0-0.29,0.07-0.55,0.2-0.75
			c0.13-0.21,0.33-0.34,0.59-0.41l4.42-1.11c0.03-0.01,0.06-0.02,0.1-0.02c0.04,0,0.08-0.01,0.12-0.01c0.2,0,0.37,0.06,0.5,0.17
			c0.13,0.12,0.2,0.27,0.2,0.48v13.37h2.13c0.35,0,0.6,0.13,0.76,0.38c0.16,0.25,0.24,0.55,0.24,0.89c0,0.3-0.09,0.57-0.27,0.79
			c-0.18,0.22-0.43,0.33-0.75,0.33H39.4c-0.39,0-0.67-0.1-0.86-0.31c-0.18-0.21-0.28-0.49-0.28-0.84
			C38.27,107.92,38.35,107.63,38.52,107.38z M41.04,88.97c-0.41-0.41-0.61-0.9-0.61-1.48c0-0.58,0.2-1.08,0.61-1.48
			c0.41-0.41,0.9-0.61,1.48-0.61c0.58,0,1.07,0.2,1.48,0.61c0.41,0.41,0.61,0.9,0.61,1.48c0,0.58-0.2,1.08-0.61,1.48
			c-0.41,0.41-0.9,0.61-1.48,0.61C41.94,89.59,41.45,89.38,41.04,88.97z"/>
		<path class="st0054836" d="M51.82,93.92c1.27-0.62,2.63-0.93,4.07-0.93c0.94,0,1.87,0.2,2.79,0.59c0.92,0.39,1.55,0.89,1.89,1.5
			l0.01-1.16c0-0.28,0.1-0.51,0.3-0.67c0.2-0.17,0.45-0.25,0.73-0.25c0.41,0,0.71,0.09,0.91,0.27c0.2,0.18,0.3,0.45,0.3,0.8
			l-0.06,3.97c-0.04,0.31-0.16,0.55-0.36,0.71c-0.2,0.16-0.46,0.24-0.77,0.24c-0.3,0-0.51-0.09-0.61-0.28
			c-0.1-0.18-0.2-0.45-0.29-0.79c-0.31-0.97-0.96-1.71-1.94-2.22c-0.98-0.52-1.96-0.77-2.95-0.77c-0.85,0-1.59,0.17-2.22,0.5
			c-0.64,0.33-0.95,0.83-0.95,1.5c0,0.58,0.19,1.03,0.57,1.35c0.38,0.32,0.99,0.59,1.84,0.8l3.54,1.16
			c1.23,0.41,2.35,0.94,3.36,1.57c1,0.63,1.51,1.73,1.51,3.28c0,1.53-0.52,2.68-1.57,3.47c-1.05,0.79-2.51,1.19-4.4,1.19
			c-0.99,0-2.07-0.16-3.25-0.48c-1.18-0.32-2.03-0.76-2.56-1.34c0,0.62-0.11,1.02-0.32,1.2c-0.22,0.18-0.48,0.27-0.79,0.27
			c-0.35,0-0.64-0.08-0.88-0.24c-0.24-0.16-0.35-0.42-0.35-0.79v-4.67c0.01-0.29,0.12-0.5,0.33-0.65c0.21-0.15,0.45-0.22,0.72-0.22
			c0.41,0,0.69,0.09,0.85,0.28c0.16,0.19,0.28,0.46,0.37,0.82c0.29,1.25,0.94,2.18,1.98,2.8c1.03,0.62,2.28,0.93,3.76,0.93
			c0.89,0,1.66-0.17,2.3-0.51c0.64-0.34,0.96-0.9,0.96-1.67s-0.18-1.34-0.55-1.69c-0.37-0.36-1.02-0.68-1.96-0.96l-3.76-1.17
			c-1.17-0.37-2.2-0.85-3.1-1.46c-0.9-0.61-1.35-1.51-1.35-2.7C49.91,95.74,50.55,94.54,51.82,93.92z"/>
		<path class="st0054836" d="M81.88,108.97c-0.98,0.52-1.78,0.78-2.4,0.78c-0.76,0-1.36-0.18-1.82-0.55c-0.46-0.37-0.77-0.93-0.94-1.69
			c-0.67,0.76-1.55,1.32-2.64,1.69c-1.09,0.37-2.25,0.55-3.48,0.55c-1.41,0-2.59-0.43-3.53-1.28c-0.94-0.85-1.42-1.96-1.42-3.33
			c0-2.46,1.21-3.96,3.62-4.51c2.41-0.55,4.77-0.93,7.07-1.13v-2.24c0-0.72-0.31-1.22-0.93-1.5c-0.62-0.28-1.28-0.42-1.99-0.42
			c-1.29,0-2.27,0.14-2.94,0.41c-0.67,0.28-1.44,0.7-2.33,1.26c-0.08,0.05-0.16,0.08-0.24,0.11c-0.08,0.03-0.16,0.04-0.24,0.04
			c-0.31,0-0.59-0.15-0.84-0.44c-0.25-0.29-0.37-0.6-0.37-0.93c0-1.11,0.81-1.85,2.42-2.23c1.62-0.38,3-0.57,4.14-0.57
			c2.33,0,3.92,0.49,4.78,1.48c0.86,0.99,1.28,2.64,1.28,4.94v6.96c0,0.29,0.05,0.52,0.14,0.71c0.1,0.19,0.25,0.28,0.46,0.28
			c0.41,0,0.88-0.25,1.4-0.75c0.52-0.5,0.94-0.75,1.27-0.75c0.2,0,0.42,0.14,0.64,0.41c0.23,0.27,0.34,0.54,0.34,0.79
			C83.34,107.82,82.85,108.45,81.88,108.97z M76.34,101.58c-1.46,0.16-3.11,0.39-4.95,0.71c-1.85,0.32-2.77,1.24-2.77,2.78
			c0,0.78,0.29,1.36,0.87,1.74c0.58,0.38,1.27,0.57,2.07,0.57c0.96,0,1.84-0.17,2.63-0.52c0.8-0.35,1.51-0.77,2.15-1.26V101.58z"/>
		<path class="st0054836" d="M87.21,93.92c1.27-0.62,2.63-0.93,4.07-0.93c0.94,0,1.87,0.2,2.79,0.59c0.92,0.39,1.55,0.89,1.89,1.5
			l0.01-1.16c0-0.28,0.1-0.51,0.3-0.67c0.2-0.17,0.45-0.25,0.73-0.25c0.41,0,0.71,0.09,0.91,0.27c0.2,0.18,0.3,0.45,0.3,0.8
			l-0.06,3.97c-0.04,0.31-0.16,0.55-0.36,0.71c-0.2,0.16-0.46,0.24-0.77,0.24c-0.3,0-0.51-0.09-0.61-0.28
			c-0.1-0.18-0.2-0.45-0.29-0.79c-0.31-0.97-0.96-1.71-1.94-2.22c-0.98-0.52-1.96-0.77-2.95-0.77c-0.85,0-1.59,0.17-2.22,0.5
			c-0.64,0.33-0.95,0.83-0.95,1.5c0,0.58,0.19,1.03,0.57,1.35c0.38,0.32,0.99,0.59,1.84,0.8l3.54,1.16
			c1.23,0.41,2.35,0.94,3.36,1.57c1,0.63,1.51,1.73,1.51,3.28c0,1.53-0.52,2.68-1.57,3.47c-1.05,0.79-2.51,1.19-4.4,1.19
			c-0.99,0-2.07-0.16-3.25-0.48c-1.18-0.32-2.03-0.76-2.56-1.34c0,0.62-0.11,1.02-0.32,1.2c-0.22,0.18-0.48,0.27-0.79,0.27
			c-0.35,0-0.64-0.08-0.88-0.24c-0.24-0.16-0.35-0.42-0.35-0.79v-4.67c0.01-0.29,0.12-0.5,0.33-0.65c0.21-0.15,0.45-0.22,0.72-0.22
			c0.41,0,0.69,0.09,0.85,0.28c0.16,0.19,0.28,0.46,0.37,0.82c0.29,1.25,0.94,2.18,1.98,2.8c1.03,0.62,2.28,0.93,3.76,0.93
			c0.89,0,1.66-0.17,2.3-0.51c0.64-0.34,0.96-0.9,0.96-1.67s-0.18-1.34-0.55-1.69c-0.37-0.36-1.02-0.68-1.96-0.96l-3.76-1.17
			c-1.17-0.37-2.2-0.85-3.1-1.46c-0.9-0.61-1.35-1.51-1.35-2.7C85.3,95.74,85.94,94.54,87.21,93.92z"/>
		<path class="st1ce" d="M109.65,95.42c1.38-1.62,3.23-2.42,5.57-2.42c1.1,0,2.04,0.17,2.85,0.52c0.8,0.35,1.53,0.79,2.2,1.31v-6.48
			l-3.26,0.86c-0.04,0-0.06,0-0.07,0c-0.01,0-0.03,0-0.07,0c-0.29,0-0.54-0.13-0.77-0.38c-0.23-0.25-0.34-0.52-0.34-0.8
			c0-0.39,0.1-0.65,0.31-0.77c0.21-0.12,0.46-0.23,0.77-0.32l5.32-1.52c0.02-0.01,0.05-0.02,0.08-0.02c0.04,0,0.08-0.01,0.12-0.01
			c0.19,0,0.36,0.06,0.51,0.19s0.22,0.29,0.22,0.49v20.91l2-0.29c0.05-0.01,0.1-0.02,0.17-0.02s0.13-0.01,0.21-0.01
			c0.37,0,0.66,0.09,0.88,0.26c0.22,0.17,0.33,0.41,0.33,0.72c0,0.71-0.4,1.12-1.21,1.23c-0.81,0.11-1.51,0.2-2.11,0.26
			c-0.36,0.05-0.76,0.11-1.21,0.18s-0.82,0.11-1.11,0.11c-0.32,0-0.53-0.12-0.64-0.35c-0.1-0.23-0.15-0.5-0.15-0.79v-0.93
			c-0.53,0.64-1.22,1.2-2.07,1.69c-0.86,0.49-1.82,0.73-2.9,0.73c-2.42,0-4.31-0.79-5.67-2.38c-1.36-1.59-2.04-3.59-2.04-6
			C107.59,99.02,108.27,97.04,109.65,95.42z M111.87,105.59c0.82,1.21,2.02,1.82,3.61,1.82c1.1,0,2.04-0.24,2.85-0.72
			c0.8-0.48,1.45-1.06,1.93-1.75v-7.69c-0.58-0.59-1.28-1.05-2.09-1.39c-0.81-0.34-1.76-0.5-2.82-0.5c-1.56,0-2.73,0.61-3.52,1.84
			c-0.79,1.23-1.18,2.62-1.18,4.18C110.65,102.97,111.06,104.38,111.87,105.59z"/>
		<path class="st1ce" d="M131.21,101.55c0,1.85,0.56,3.26,1.69,4.23c1.13,0.97,2.52,1.45,4.16,1.45c1.17,0,2.09-0.22,2.76-0.66
			c0.67-0.44,1.31-0.94,1.91-1.5c0.14-0.12,0.29-0.21,0.44-0.27c0.16-0.06,0.31-0.09,0.47-0.09c0.37,0,0.68,0.11,0.94,0.34
			c0.26,0.23,0.39,0.53,0.39,0.9c0,1.18-0.85,2.11-2.56,2.78c-1.71,0.68-3.19,1.01-4.45,1.01c-2.52,0-4.6-0.75-6.24-2.24
			c-1.63-1.5-2.45-3.51-2.45-6.04c0-2.5,0.75-4.54,2.25-6.11c1.5-1.57,3.54-2.35,6.11-2.35c1.84,0,3.52,0.65,5.04,1.95
			c1.52,1.3,2.28,2.97,2.28,5.03c0,0.7-0.21,1.13-0.64,1.27c-0.43,0.14-0.97,0.24-1.62,0.31H131.21z M139.27,96.17
			c-0.81-0.55-1.69-0.82-2.65-0.82c-1.62,0-2.91,0.39-3.86,1.18s-1.49,1.82-1.61,3.12h8.3c0.26,0,0.49-0.05,0.7-0.15
			c0.21-0.1,0.32-0.28,0.32-0.52C140.48,97.65,140.07,96.72,139.27,96.17z"/>
		<path class="st1ce" d="M159.4,85.57c0.15,0.12,0.22,0.29,0.22,0.49v20.91h3.37c0.35,0,0.6,0.13,0.76,0.38
			c0.16,0.25,0.24,0.55,0.24,0.89c0,0.3-0.09,0.57-0.27,0.81c-0.18,0.23-0.43,0.35-0.75,0.35h-9.23c-0.39,0-0.67-0.11-0.86-0.33
			c-0.18-0.22-0.28-0.51-0.28-0.86c0-0.34,0.09-0.63,0.26-0.88c0.17-0.24,0.44-0.37,0.79-0.37h3.14V88.37l-3.25,0.86
			c-0.04,0-0.06,0-0.07,0s-0.03,0-0.07,0c-0.29,0-0.54-0.13-0.77-0.38c-0.23-0.25-0.34-0.52-0.34-0.8c0-0.39,0.1-0.65,0.31-0.78
			c0.21-0.12,0.46-0.23,0.77-0.32l5.32-1.53c0.02-0.01,0.04-0.02,0.08-0.02c0.03,0,0.07-0.01,0.12-0.01
			C159.08,85.39,159.25,85.45,159.4,85.57z"/>
		<path class="st1ce" d="M181.46,108.97c-0.98,0.52-1.78,0.78-2.4,0.78c-0.75,0-1.36-0.18-1.82-0.55c-0.46-0.37-0.77-0.93-0.94-1.69
			c-0.67,0.76-1.55,1.32-2.64,1.69s-2.25,0.55-3.48,0.55c-1.41,0-2.59-0.43-3.53-1.28c-0.94-0.85-1.42-1.96-1.42-3.33
			c0-2.46,1.21-3.96,3.62-4.51c2.41-0.55,4.77-0.93,7.07-1.13v-2.24c0-0.72-0.31-1.22-0.93-1.5s-1.28-0.42-1.99-0.42
			c-1.29,0-2.27,0.14-2.94,0.41c-0.67,0.28-1.44,0.7-2.33,1.26c-0.08,0.05-0.16,0.08-0.24,0.11c-0.08,0.03-0.16,0.04-0.24,0.04
			c-0.31,0-0.59-0.15-0.84-0.44c-0.25-0.29-0.37-0.6-0.37-0.93c0-1.11,0.81-1.85,2.42-2.23c1.62-0.38,3-0.57,4.14-0.57
			c2.33,0,3.92,0.49,4.78,1.48c0.86,0.99,1.29,2.64,1.29,4.94v6.96c0,0.29,0.05,0.52,0.14,0.71c0.1,0.19,0.25,0.28,0.46,0.28
			c0.41,0,0.88-0.25,1.4-0.75c0.52-0.5,0.94-0.75,1.27-0.75c0.2,0,0.42,0.14,0.64,0.41c0.23,0.27,0.34,0.54,0.34,0.79
			C182.93,107.82,182.44,108.45,181.46,108.97z M175.92,101.58c-1.46,0.16-3.11,0.39-4.95,0.71c-1.85,0.32-2.77,1.24-2.77,2.78
			c0,0.78,0.29,1.36,0.87,1.74c0.58,0.38,1.27,0.57,2.07,0.57c0.96,0,1.83-0.17,2.63-0.52c0.8-0.35,1.51-0.77,2.15-1.26V101.58z"/>
		<path class="st1ce" d="M206.42,107.4c-1.45,1.57-3.38,2.36-5.8,2.36c-1.13,0-2.12-0.17-2.96-0.51c-0.84-0.34-1.59-0.79-2.24-1.34
			v7.02h2.79c0.35,0,0.6,0.13,0.76,0.39c0.16,0.26,0.24,0.56,0.24,0.9c0,0.3-0.09,0.57-0.27,0.8c-0.18,0.23-0.43,0.35-0.75,0.35
			h-7.24c-0.39,0-0.67-0.11-0.86-0.33c-0.18-0.22-0.28-0.51-0.28-0.86c0-0.34,0.09-0.63,0.26-0.88s0.44-0.37,0.79-0.37h1.73V95.86
			l-1.98,0.48c-0.02,0.01-0.05,0.02-0.08,0.02c-0.04,0-0.08,0.01-0.12,0.01c-0.28,0-0.53-0.11-0.77-0.34
			c-0.24-0.23-0.36-0.48-0.36-0.77c0-0.31,0.07-0.56,0.21-0.75c0.14-0.19,0.34-0.32,0.59-0.41l3.84-1.11c0.04,0,0.06,0,0.07,0
			c0.01,0,0.03,0,0.07,0h0.1c0.19,0,0.36,0.05,0.5,0.17c0.14,0.11,0.21,0.26,0.21,0.46l0.28,2.61c0.44-0.93,1.18-1.7,2.21-2.32
			c1.03-0.61,2.22-0.92,3.56-0.92c2.41,0,4.3,0.79,5.66,2.37c1.36,1.58,2.04,3.58,2.04,6C208.59,103.82,207.87,105.83,206.42,107.4z
			 M204.32,97.11c-0.82-1.2-2.02-1.8-3.61-1.8c-1.22,0-2.26,0.23-3.14,0.7c-0.88,0.47-1.6,1.06-2.15,1.79v7.69
			c0.58,0.58,1.31,1.04,2.18,1.39c0.87,0.35,1.88,0.52,3.03,0.52c1.61,0,2.83-0.6,3.67-1.8c0.83-1.2,1.25-2.61,1.25-4.23
			C205.54,99.73,205.13,98.31,204.32,97.11z"/>
		<path class="st1ce" d="M213.47,101.55c0,1.85,0.56,3.26,1.69,4.23c1.13,0.97,2.52,1.45,4.17,1.45c1.17,0,2.09-0.22,2.76-0.66
			c0.67-0.44,1.31-0.94,1.91-1.5c0.14-0.12,0.28-0.21,0.44-0.27s0.31-0.09,0.47-0.09c0.37,0,0.68,0.11,0.94,0.34
			c0.26,0.23,0.39,0.53,0.39,0.9c0,1.18-0.85,2.11-2.56,2.78c-1.71,0.68-3.19,1.01-4.45,1.01c-2.52,0-4.6-0.75-6.24-2.24
			c-1.63-1.5-2.45-3.51-2.45-6.04c0-2.5,0.75-4.54,2.25-6.11c1.5-1.57,3.54-2.35,6.11-2.35c1.84,0,3.52,0.65,5.04,1.95
			c1.52,1.3,2.28,2.97,2.28,5.03c0,0.7-0.21,1.13-0.64,1.27c-0.43,0.14-0.97,0.24-1.62,0.31H213.47z M221.53,96.17
			c-0.81-0.55-1.69-0.82-2.64-0.82c-1.62,0-2.91,0.39-3.86,1.18c-0.95,0.78-1.49,1.82-1.61,3.12h8.3c0.26,0,0.49-0.05,0.7-0.15
			c0.21-0.1,0.32-0.28,0.32-0.52C222.74,97.65,222.33,96.72,221.53,96.17z"/>
		<path class="st1ce" d="M230.6,95.42c1.38-1.62,3.23-2.42,5.57-2.42c1.1,0,2.04,0.17,2.85,0.52c0.8,0.35,1.53,0.79,2.2,1.31v-6.48
			l-3.26,0.86c-0.04,0-0.06,0-0.07,0c-0.01,0-0.03,0-0.07,0c-0.29,0-0.54-0.13-0.77-0.38c-0.23-0.25-0.34-0.52-0.34-0.8
			c0-0.39,0.1-0.65,0.31-0.77c0.21-0.12,0.46-0.23,0.77-0.32l5.32-1.52c0.02-0.01,0.05-0.02,0.08-0.02c0.04,0,0.08-0.01,0.12-0.01
			c0.19,0,0.36,0.06,0.51,0.19s0.22,0.29,0.22,0.49v20.91l2-0.29c0.05-0.01,0.1-0.02,0.17-0.02c0.06,0,0.13-0.01,0.21-0.01
			c0.37,0,0.66,0.09,0.88,0.26c0.22,0.17,0.33,0.41,0.33,0.72c0,0.71-0.4,1.12-1.21,1.23c-0.81,0.11-1.51,0.2-2.11,0.26
			c-0.36,0.05-0.76,0.11-1.21,0.18c-0.45,0.07-0.82,0.11-1.11,0.11c-0.32,0-0.53-0.12-0.64-0.35c-0.1-0.23-0.15-0.5-0.15-0.79v-0.93
			c-0.52,0.64-1.22,1.2-2.07,1.69c-0.86,0.49-1.82,0.73-2.9,0.73c-2.42,0-4.31-0.79-5.67-2.38c-1.36-1.59-2.04-3.59-2.04-6
			C228.54,99.02,229.23,97.04,230.6,95.42z M232.83,105.59c0.82,1.21,2.02,1.82,3.61,1.82c1.1,0,2.04-0.24,2.85-0.72
			c0.8-0.48,1.45-1.06,1.93-1.75v-7.69c-0.58-0.59-1.28-1.05-2.09-1.39c-0.82-0.34-1.76-0.5-2.83-0.5c-1.56,0-2.73,0.61-3.52,1.84
			c-0.79,1.23-1.18,2.62-1.18,4.18C231.61,102.97,232.01,104.38,232.83,105.59z"/>
		<path class="st1ce" d="M260.46,95.48c-1.1,0-2.09,0.24-2.96,0.73c-0.87,0.49-1.52,1.07-1.98,1.75v9.01h3.7
			c0.35,0,0.6,0.13,0.76,0.38c0.16,0.25,0.24,0.55,0.24,0.89c0,0.3-0.09,0.57-0.27,0.81c-0.18,0.23-0.43,0.35-0.75,0.35h-9.13
			c-0.39,0-0.67-0.11-0.86-0.33c-0.18-0.22-0.28-0.51-0.28-0.86c0-0.34,0.09-0.63,0.26-0.88c0.17-0.24,0.44-0.37,0.79-0.37h2.71
			V95.86l-1.98,0.48c-0.02,0.01-0.04,0.02-0.08,0.02c-0.03,0-0.07,0.01-0.12,0.01c-0.28,0-0.53-0.11-0.77-0.34
			c-0.24-0.23-0.36-0.48-0.36-0.77c0-0.31,0.07-0.56,0.2-0.75c0.13-0.19,0.33-0.32,0.59-0.41l3.85-1.11c0.04,0,0.06,0,0.07,0
			c0.01,0,0.03,0,0.07,0h0.08c0.19,0,0.36,0.05,0.5,0.17c0.14,0.11,0.21,0.26,0.21,0.46l0.29,2.61c0.64-0.96,1.47-1.74,2.51-2.34
			c1.04-0.6,2.36-0.9,3.97-0.9c0.3,0,0.57,0.09,0.81,0.27c0.24,0.18,0.35,0.43,0.35,0.75v2.93c0,0.39-0.11,0.67-0.33,0.85
			c-0.22,0.18-0.51,0.27-0.86,0.27c-0.34,0-0.63-0.09-0.88-0.26c-0.24-0.17-0.37-0.44-0.37-0.8V95.48z"/>
		<path class="st1ce" d="M267.55,101.55c0,1.85,0.56,3.26,1.69,4.23c1.13,0.97,2.52,1.45,4.17,1.45c1.17,0,2.09-0.22,2.76-0.66
			c0.67-0.44,1.31-0.94,1.91-1.5c0.14-0.12,0.28-0.21,0.44-0.27s0.31-0.09,0.47-0.09c0.37,0,0.68,0.11,0.94,0.34
			c0.26,0.23,0.39,0.53,0.39,0.9c0,1.18-0.85,2.11-2.56,2.78c-1.71,0.68-3.19,1.01-4.45,1.01c-2.52,0-4.6-0.75-6.24-2.24
			c-1.63-1.5-2.45-3.51-2.45-6.04c0-2.5,0.75-4.54,2.25-6.11c1.5-1.57,3.54-2.35,6.11-2.35c1.84,0,3.52,0.65,5.04,1.95
			c1.52,1.3,2.28,2.97,2.28,5.03c0,0.7-0.21,1.13-0.64,1.27c-0.43,0.14-0.97,0.24-1.62,0.31H267.55z M275.61,96.17
			c-0.81-0.55-1.69-0.82-2.64-0.82c-1.62,0-2.91,0.39-3.86,1.18c-0.95,0.78-1.49,1.82-1.61,3.12h8.3c0.26,0,0.49-0.05,0.7-0.15
			c0.21-0.1,0.32-0.28,0.32-0.52C276.82,97.65,276.42,96.72,275.61,96.17z"/>
		<path class="st1ce" d="M293.86,95.48c-1.1,0-2.09,0.24-2.96,0.73c-0.87,0.49-1.52,1.07-1.98,1.75v9.01h3.7
			c0.35,0,0.6,0.13,0.76,0.38c0.16,0.25,0.24,0.55,0.24,0.89c0,0.3-0.09,0.57-0.27,0.81c-0.18,0.23-0.43,0.35-0.75,0.35h-9.13
			c-0.39,0-0.67-0.11-0.86-0.33c-0.18-0.22-0.28-0.51-0.28-0.86c0-0.34,0.09-0.63,0.26-0.88c0.17-0.24,0.44-0.37,0.79-0.37h2.71
			V95.86l-1.98,0.48c-0.02,0.01-0.04,0.02-0.08,0.02c-0.03,0-0.07,0.01-0.12,0.01c-0.28,0-0.53-0.11-0.77-0.34
			c-0.24-0.23-0.36-0.48-0.36-0.77c0-0.31,0.07-0.56,0.2-0.75c0.13-0.19,0.33-0.32,0.59-0.41l3.85-1.11c0.04,0,0.06,0,0.07,0
			c0.01,0,0.03,0,0.07,0h0.08c0.19,0,0.36,0.05,0.5,0.17c0.14,0.11,0.21,0.26,0.21,0.46l0.29,2.61c0.64-0.96,1.47-1.74,2.51-2.34
			c1.04-0.6,2.36-0.9,3.97-0.9c0.3,0,0.57,0.09,0.81,0.27c0.24,0.18,0.35,0.43,0.35,0.75v2.93c0,0.39-0.11,0.67-0.33,0.85
			c-0.22,0.18-0.51,0.27-0.86,0.27c-0.34,0-0.63-0.09-0.88-0.26c-0.24-0.17-0.37-0.44-0.37-0.8V95.48z"/>
		<path class="st1ce" d="M314.13,108.97c-0.98,0.52-1.78,0.78-2.4,0.78c-0.75,0-1.36-0.18-1.82-0.55c-0.46-0.37-0.77-0.93-0.94-1.69
			c-0.67,0.76-1.55,1.32-2.64,1.69c-1.09,0.37-2.25,0.55-3.48,0.55c-1.41,0-2.59-0.43-3.53-1.28c-0.94-0.85-1.42-1.96-1.42-3.33
			c0-2.46,1.21-3.96,3.62-4.51c2.41-0.55,4.77-0.93,7.07-1.13v-2.24c0-0.72-0.31-1.22-0.92-1.5c-0.62-0.28-1.28-0.42-1.99-0.42
			c-1.29,0-2.27,0.14-2.94,0.41c-0.67,0.28-1.44,0.7-2.33,1.26c-0.08,0.05-0.16,0.08-0.24,0.11c-0.08,0.03-0.16,0.04-0.24,0.04
			c-0.31,0-0.59-0.15-0.84-0.44c-0.25-0.29-0.37-0.6-0.37-0.93c0-1.11,0.81-1.85,2.42-2.23c1.62-0.38,3-0.57,4.14-0.57
			c2.33,0,3.92,0.49,4.78,1.48c0.86,0.99,1.28,2.64,1.28,4.94v6.96c0,0.29,0.05,0.52,0.15,0.71c0.1,0.19,0.25,0.28,0.46,0.28
			c0.41,0,0.88-0.25,1.4-0.75c0.52-0.5,0.94-0.75,1.27-0.75c0.2,0,0.42,0.14,0.64,0.41c0.23,0.27,0.34,0.54,0.34,0.79
			C315.59,107.82,315.11,108.45,314.13,108.97z M308.59,101.58c-1.45,0.16-3.11,0.39-4.95,0.71c-1.85,0.32-2.77,1.24-2.77,2.78
			c0,0.78,0.29,1.36,0.87,1.74c0.58,0.38,1.27,0.57,2.07,0.57c0.96,0,1.83-0.17,2.63-0.52c0.8-0.35,1.51-0.77,2.15-1.26V101.58z"/>
	</g>
	<text transform="matrix(1 0 0 1 98.8848 135.1326)" class="st1ce st2cr st3fr">hotel boutique</text>
	<g>
		<path class="st4gr" d="M250.59,19.66c-8.48-3.15-17.1-5.37-26.28-3.19c-8.22,1.95-16.02,4.83-23.08,9.55
			c-6.34,4.24-12.66,8.51-19.01,12.73c-12.06,8.02-25.42,11.67-39.83,11.73c-10.66,0.05-20.65-3.13-30.5-6.68
			c-6.03-2.18-11.74-5.27-17.82-7.3c-6.78-2.27-13.8-3.87-20.73-5.67c-7.5-1.94-18.2-4.03-19.56-4c-4.77,0.11-6.48,1.49-7.06,2.19
			c0,0,0,0.01,0,0.01c0.29,0.08,1.57,0.69,1.84,0.77c6.73,1.94,13.57,3.77,20.49,4.75c6.11,0.87,12.08,1.94,17.86,4.07
			c5.89,2.17,11.77,4.35,17.62,6.61c13.79,5.34,27.83,8.94,42.84,7.89c11.56-0.81,22.45-3.2,31.89-10.39
			c3.09-2.35,6.38-4.45,9.64-6.56c14.14-9.16,29.49-14.41,46.48-14.08c4.72,0.09,9.44,0.41,14.53,0.72
			C251.77,22.94,252.34,20.33,250.59,19.66L250.59,19.66z"/>
		<path class="st4gr" d="M263.96,32.61c0.19-0.41,0.38-0.81,0.57-1.22c-2.2-1.42-4.23-3.41-6.64-4.12c-4.28-1.26,1.57,0.48-18.39-0.99
			c-19.96-1.47-32.54,1.15-49.02,12.02c-4.49,2.96-8.94,6-13.39,9.03c-4.76,3.25-9.99,5.35-15.61,6.54
			c-17.88,3.78-35.34,2.3-52.42-4.15c-8.94-3.38-17.93-6.64-26.93-9.88c-3.72-1.34-7.57-2.13-12.22-2.25
			c0.86,0.75,1.12,1.12,1.47,1.25c8.24,3.13,16.47,6.27,24.73,9.33c12.78,4.73,25.78,8.57,39.25,10.91
			c15.22,2.64,29.74,1.81,43.19-6.76c12.05-7.68,25.06-13.41,38.63-17.72c12.81-4.06,25.94-5.74,39.34-2.98
			C258.97,32.13,261.48,32.29,263.96,32.61z"/>
		<path class="st4gr" d="M27.78,32.91c-0.05,0.31-0.09,0.61-0.14,0.92c1.01,0.2,2.03,0.41,3.04,0.6c9.54,1.76,19.26,2.86,28.58,5.43
			c11.49,3.16,22.64,7.58,33.96,11.38c13.16,4.43,26.27,9,39.53,13.1c11.71,3.62,23.59,4,35.13-0.83
			c6.19-2.59,12.13-5.76,18.21-8.61c6.89-3.22,13.57-7.2,20.78-9.4c21.04-6.43,42.6-9.06,64.61-6.54c0.72,0.08,1.47-0.16,2.21-0.24
			c0.05-0.34,0.1-0.67,0.15-1.01c-2.05-0.67-4.06-1.61-6.16-1.97c-4.41-0.74-8.93-0.95-13.32-1.79
			c-11.93-2.27-23.62-0.67-34.96,2.75c-13.47,4.07-26.44,9.6-38.33,17.25c-13.58,8.74-28.21,10.55-43.86,8.14
			c-18.6-2.87-36.31-8.78-53.64-15.7c-13.13-5.25-26.44-9.38-40.37-11.56C38.09,34.03,32.92,33.54,27.78,32.91z"/>
		<path class="st4gr" d="M51.67,22.82c0,1.17,15.11,3.98,24.68,5.93c10.92,2.23,21.1,6.34,31.37,10.47c8.13,3.27,16.6,6.3,25.2,7.73
			c17.48,2.92,33.83-1.04,48.64-10.95c6.58-4.41,13.07-8.97,19.82-13.11c3.92-2.41,8.15-4.43,12.45-6.08
			c8.58-3.29,17.43-5.12,26.72-3.16c-4.08-2.61-6.93-3.49-10.94-3.48c-6.78,0.02-13.44,0.84-19.66,3.72
			c-5.82,2.7-11.66,5.4-17.31,8.44c-7.1,3.82-14.01,8.01-21.01,12.01c-7.79,4.46-16.27,6.82-25.14,7.49
			c-5.63,0.42-11.34,0.39-16.98,0.04c-10.5-0.66-20.71-2.57-30.08-7.85c-7.36-4.14-15.35-6.6-23.71-7.81
			C66.39,24.88,51.67,21.64,51.67,22.82z"/>
		<path class="st4gr" d="M53.97,40.83c-0.19,0.4-0.38,0.8-0.57,1.2c3.92,1.34,7.83,2.68,11.75,4.01c5.78,1.96,11.68,3.63,17.33,5.92
			c10.66,4.31,21.14,9.02,31.75,13.46c20.41,8.53,40.95,8.8,61.51,0.6c5.55-2.21,10.98-4.72,16.41-7.22
			c12.7-5.87,25.99-9.8,39.81-11.88c13.93-2.1,27.98-2.07,42.02-1.82c4.04,0.07,8.07,0.36,12.1,0.55
			c-4.27-2.56-8.82-3.63-13.54-4.15c-13.6-1.51-27.1-0.69-40.63,1.13c-16.36,2.19-31.71,6.97-46,15.36
			c-5.38,3.16-11.23,5.59-16.99,8.04c-10.42,4.44-21.33,4.69-32.11,2.08c-9.56-2.31-18.89-5.58-28.28-8.58
			c-7.82-2.5-15.57-5.19-23.35-7.83c-5.22-1.77-10.42-3.6-15.62-5.41C64.36,44.46,59.16,42.64,53.97,40.83z"/>
		<path class="st4gr" d="M221.28,7.57c-4.84-0.95-9.53-0.28-14.01,1.4c-11.03,4.14-22.03,8.37-32.97,12.76
			c-5.95,2.39-14.44,3.72-17.62,7.77s-22.68,6.06-34.57,2.99c-4.77-1.23-9.56-2.36-14.38-3.37c-7.27-1.52-14.57-2.89-21.86-4.32
			c0.83,0.92,1.88,1.38,2.93,1.81c3.58,1.48,7.34,2.63,10.71,4.5c8.67,4.81,17.95,7.02,27.73,7.99c16.47,1.63,32.17-0.24,46.62-8.93
			c2.3-1.38,4.7-2.61,6.99-4.01C193.61,18.42,206.35,10.66,221.28,7.57z"/>
		<path class="st4gr" d="M102.94,25.47c-0.07,0.28-0.14,0.55-0.21,0.83c5.94,1.39,11.88,2.77,17.81,4.19
			c9.27,2.22,18.39,1.66,27.34-1.51c2.67-0.95,5.3-2.03,7.89-3.18c14.62-6.46,29.07-13.3,44.33-18.21c5.89-1.89,11.8-3.2,18.02-2.83
			c0.91,0.06,1.85-0.27,2.77-0.42c-4.02-1.02-8.02-1.54-12.02-1.6c-8.02-0.14-15.77,1.72-23.18,4.52
			c-11.31,4.27-22.45,9.01-33.61,13.67c-10.2,4.26-20.79,6.65-31.82,6.4C114.48,27.19,108.72,26.12,102.94,25.47z"/>
		<path class="st4gr" d="M194.1,1.08c-3.5,0.58-7.08,0.84-10.47,1.79c-7.19,2.02-14.34,4.2-21.4,6.65
			c-17.57,6.11-35.3,11.29-54.12,11.55c-3.41,0.05-6.81,0.49-10.22,0.75c7.73,1.3,15.44,2.61,23.17,2.81
			c10.73,0.28,21.01-2.33,30.89-6.57C165.82,12.11,179.47,5.6,194.1,1.08z"/>
		<path class="st4gr" d="M79.75,54.27c0,1.29,1.63,1.29,2.54,1.72c8.44,4.06,16.76,8.42,25.41,12c10.79,4.47,16.06,5.3,24.02,5.31
			C113.36,70.16,79.75,52.98,79.75,54.27z"/>
		<path class="st4gr" d="M136.59,14.08c15.54-3.23,30.11-9.63,45.28-14.08C166.26,2.98,151.16,7.66,136.59,14.08z"/>
	</g>
</g>
</svg>
